<?xml version="1.0" encoding="UTF-8" standalone="no"?>
<!--
  #%L
  xplan-workspaces - Modul zur Gruppierung aller Workspaces
  %%
  Copyright (C) 2008 - 2022 lat/lon GmbH, info@lat-lon.de, www.lat-lon.de
  %%
  This program is free software: you can redistribute it and/or modify
  it under the terms of the GNU Affero General Public License as published by
  the Free Software Foundation, either version 3 of the License, or
  (at your option) any later version.
  
  This program is distributed in the hope that it will be useful,
  but WITHOUT ANY WARRANTY; without even the implied warranty of
  MERCHANTABILITY or FITNESS FOR A PARTICULAR PURPOSE.  See the
  GNU General Public License for more details.
  
  You should have received a copy of the GNU Affero General Public License
  along with this program.  If not, see <http://www.gnu.org/licenses/>.
  #L%
  -->

<!-- Created with Inkscape (http://www.inkscape.org/) -->

<svg
   xmlns:svg="http://www.w3.org/2000/svg"
   xmlns="http://www.w3.org/2000/svg"
   version="1.1"
   width="177.16534"
   height="177.16534"
   viewBox="0 0 50 50"
   id="svg2"
   xml:space="preserve"><defs
   id="defs11" />
 

   
   <path

    d="M35.0627 25.0086c0,-1.4011 -0.2586,-2.7104 -0.7756,-3.928 -0.5171,-1.2176 -1.226,-2.2767 -2.1266,-3.1774 -0.9007,-0.9007 -1.9599,-1.6179 -3.1774,-2.1517 -1.2176,-0.5337 -2.527,-0.8006 -3.928,-0.8006 -1.4011,0 -2.7104,0.2669 -3.928,0.8006 -1.2176,0.5338 -2.2767,1.251 -3.1774,2.1517 -0.9007,0.9007 -1.6096,1.9598 -2.1266,3.1774 -0.5171,1.2176 -0.7756,2.5269 -0.7756,3.928 0,1.401 0.2585,2.702 0.7756,3.9029 0.517,1.2009 1.2259,2.2517 2.1266,3.1524 0.9007,0.9007 1.9598,1.6096 3.1774,2.1266 1.2176,0.5171 2.5269,0.7756 3.928,0.7756 1.401,0 2.7104,-0.2585 3.928,-0.7756 1.2175,-0.517 2.2767,-1.2259 3.1774,-2.1266 0.9006,-0.9007 1.6095,-1.9515 2.1266,-3.1524 0.517,-1.2009 0.7756,-2.5019 0.7756,-3.9029zm-2.2517 0c0,1.0674 -0.2002,2.0682 -0.6005,3.0022 -0.4003,0.9341 -0.9507,1.7514 -1.6513,2.4519 -0.7005,0.7005 -1.5178,1.2509 -2.4518,1.6512 -0.934,0.4003 -1.9515,0.6005 -3.0523,0.6005 -1.1009,0 -2.1183,-0.2002 -3.0523,-0.6005 -0.9341,-0.4003 -1.7514,-0.9507 -2.4519,-1.6512 -0.7005,-0.7005 -1.2509,-1.5178 -1.6512,-2.4519 -0.4003,-0.934 -0.6005,-1.9348 -0.6005,-3.0022 0,-1.0342 0.2002,-2.0266 0.6005,-2.9773 0.4003,-0.9507 0.9507,-1.7847 1.6512,-2.5019 0.7005,-0.7172 1.5178,-1.2843 2.4519,-1.7013 0.934,-0.417 1.9514,-0.6255 3.0523,-0.6255 1.1008,0 2.1183,0.2085 3.0523,0.6255 0.934,0.417 1.7513,0.9758 2.4518,1.6763 0.7006,0.7005 1.251,1.5261 1.6513,2.4769 0.4003,0.9507 0.6005,1.9598 0.6005,3.0273zm-7.1054 6.8552l0.2502 -0.7506 1.7513 0 0.4503 -1.8014 -1.5511 -0.4503 0 -3.7028 4.9537 0.6004 0 -1.6012 -5.4541 -2.9522 0 -1.5012 -1.0008 -1.5011 -0.1001 0 -0.8006 1.5011 0 1.5012 -5.4541 2.9522 0 1.6513 5.0038 -0.6505 0 3.7028 -1.6012 0.4503 0.4503 1.8014 1.7513 0 0.2002 0.7506 1.1509 0z"
     
   id="path3604"
   style="fill:#828282;fill-opacity:1;fill-rule:nonzero;stroke:none" />
   
   </svg>
