<?xml version="1.0" encoding="UTF-8" standalone="no"?>
<!--
  #%L
  xplan-workspaces - Modul zur Gruppierung aller Workspaces
  %%
  Copyright (C) 2008 - 2022 lat/lon GmbH, info@lat-lon.de, www.lat-lon.de
  %%
  This program is free software: you can redistribute it and/or modify
  it under the terms of the GNU Affero General Public License as published by
  the Free Software Foundation, either version 3 of the License, or
  (at your option) any later version.
  
  This program is distributed in the hope that it will be useful,
  but WITHOUT ANY WARRANTY; without even the implied warranty of
  MERCHANTABILITY or FITNESS FOR A PARTICULAR PURPOSE.  See the
  GNU General Public License for more details.
  
  You should have received a copy of the GNU Affero General Public License
  along with this program.  If not, see <http://www.gnu.org/licenses/>.
  #L%
  -->

<!-- Created with Inkscape (http://www.inkscape.org/) -->

<svg
   xmlns:svg="http://www.w3.org/2000/svg"
   xmlns="http://www.w3.org/2000/svg"
   version="1.1"
   width="177.16534"
   height="177.16534"
   viewBox="0 0 50 50"
   id="svg2"
   xml:space="preserve"><defs
   id="defs11" />
 
<path
   d="M42.5684 24.9584c0,-2.4018 -0.4503,-4.6702 -1.351,-6.8051 -0.9007,-2.135 -2.1349,-3.9947 -3.7028,-5.5792 -1.5679,-1.5846 -3.4109,-2.8355 -5.5292,-3.7529 -2.1183,-0.9173 -4.395,-1.376 -6.8302,-1.376 -2.4685,0 -4.7786,0.4587 -6.9302,1.376 -2.1516,0.9174 -4.0197,2.1683 -5.6043,3.7529 -1.5845,1.5845 -2.8271,3.4442 -3.7278,5.5792 -0.9007,2.1349 -1.351,4.4033 -1.351,6.8051 0,2.4686 0.4503,4.762 1.351,6.8802 0.9007,2.1183 2.1433,3.9697 3.7278,5.5543 1.5846,1.5845 3.4527,2.8271 5.6043,3.7278 2.1516,0.9007 4.4617,1.351 6.9302,1.351 2.4352,0 4.7119,-0.4503 6.8302,-1.351 2.1183,-0.9007 3.9613,-2.1433 5.5292,-3.7278 1.5679,-1.5846 2.8021,-3.436 3.7028,-5.5543 0.9007,-2.1182 1.351,-4.4116 1.351,-6.8802z"
     
   id="path3603"
   style="fill:#FBFBFB;fill-opacity:1;fill-rule:nonzero;stroke:none" />
   
   
   <path
   d="M42.5684 24.9584c0,-2.4018 -0.4503,-4.6702 -1.351,-6.8051 -0.9007,-2.135 -2.1349,-3.9947 -3.7028,-5.5792 -1.5679,-1.5846 -3.4109,-2.8355 -5.5292,-3.7529 -2.1183,-0.9173 -4.395,-1.376 -6.8302,-1.376 -2.4685,0 -4.7786,0.4587 -6.9302,1.376 -2.1516,0.9174 -4.0197,2.1683 -5.6043,3.7529 -1.5845,1.5845 -2.8271,3.4442 -3.7278,5.5792 -0.9007,2.1349 -1.351,4.4033 -1.351,6.8051 0,2.4686 0.4503,4.762 1.351,6.8802 0.9007,2.1183 2.1433,3.9697 3.7278,5.5543 1.5846,1.5845 3.4527,2.8271 5.6043,3.7278 2.1516,0.9007 4.4617,1.351 6.9302,1.351 2.4352,0 4.7119,-0.4503 6.8302,-1.351 2.1183,-0.9007 3.9613,-2.1433 5.5292,-3.7278 1.5679,-1.5846 2.8021,-3.436 3.7028,-5.5543 0.9007,-2.1182 1.351,-4.4116 1.351,-6.8802zm-7.5057 0.0501c0,1.3677 -0.2585,2.6603 -0.7755,3.8779 -0.5171,1.2176 -1.2176,2.2767 -2.1016,3.1774 -0.884,0.9007 -1.9265,1.6096 -3.1274,2.1266 -1.2009,0.5171 -2.5019,0.7756 -3.903,0.7756 -1.4344,0 -2.7687,-0.2585 -4.003,-0.7756 -1.2343,-0.517 -2.3017,-1.2176 -3.2024,-2.1016 -0.9007,-0.884 -1.6096,-1.9264 -2.1266,-3.1273 -0.5171,-1.2009 -0.7756,-2.5019 -0.7756,-3.903 0,-1.3677 0.2585,-2.6687 0.7756,-3.9029 0.517,-1.2343 1.2259,-2.3101 2.1266,-3.2275 0.9007,-0.9174 1.9681,-1.6429 3.2024,-2.1766 1.2343,-0.5338 2.5686,-0.8006 4.003,-0.8006 1.4011,0 2.7021,0.2668 3.903,0.8006 1.2009,0.5337 2.2434,1.2509 3.1274,2.1516 0.884,0.9007 1.5845,1.9598 2.1016,3.1774 0.517,1.2176 0.7755,2.5269 0.7755,3.928z"
     
   id="path3604"
   style="fill:#000000;fill-opacity:1;fill-rule:nonzero;stroke:none" />
   
   
   
   
   <path
  d="M47.5472 24.9584c0,3.1691 -0.5921,6.1213 -1.7764,8.8568 -1.1842,2.7354 -2.7938,5.1122 -4.8286,7.1304 -2.0349,2.0181 -4.4284,3.611 -7.1805,4.7786 -2.7521,1.1675 -5.6793,1.7513 -8.7816,1.7513 -3.1691,0 -6.1213,-0.5754 -8.8567,-1.7263 -2.7354,-1.1509 -5.1039,-2.7438 -7.1054,-4.7786 -2.0015,-2.0349 -3.5777,-4.42 -4.7286,-7.1554 -1.1509,-2.7355 -1.7263,-5.6877 -1.7263,-8.8568 0,-3.1023 0.5754,-6.0212 1.7263,-8.7566 1.1509,-2.7354 2.7271,-5.1205 4.7286,-7.1554 2.0015,-2.0349 4.37,-3.6444 7.1054,-4.8287 2.7354,-1.1842 5.6876,-1.7763 8.8567,-1.7763 3.1023,0 6.0295,0.5921 8.7816,1.7763 2.7521,1.1843 5.1456,2.7938 7.1805,4.8287 2.0348,2.0349 3.6444,4.42 4.8286,7.1554 1.1843,2.7354 1.7764,5.6543 1.7764,8.7566zm-0.7506 0c0,-3.0022 -0.5671,-5.821 -1.7013,-8.4564 -1.1342,-2.6353 -2.6937,-4.9454 -4.6785,-6.9302 -1.9849,-1.9848 -4.3033,-3.5444 -6.9553,-4.6786 -2.652,-1.1341 -5.4791,-1.7012 -8.4814,-1.7012 -3.069,0 -5.9212,0.5671 -8.5565,1.7012 -2.6353,1.1342 -4.9287,2.6938 -6.8802,4.6786 -1.9515,1.9848 -3.4776,4.2949 -4.5785,6.9302 -1.1008,2.6354 -1.6512,5.4542 -1.6512,8.4564 0,3.069 0.5504,5.9295 1.6512,8.5815 1.1009,2.6521 2.627,4.9538 4.5785,6.9053 1.9515,1.9515 4.2449,3.4859 6.8802,4.6035 2.6353,1.1175 5.4875,1.6762 8.5565,1.6762 3.0023,0 5.8294,-0.5587 8.4814,-1.6762 2.652,-1.1176 4.9704,-2.6604 6.9553,-4.6285 1.9848,-1.9682 3.5443,-4.2699 4.6785,-6.9053 1.1342,-2.6353 1.7013,-5.4875 1.7013,-8.5565z"
     
   id="path3605"
   style="fill:#000000;fill-opacity:1;fill-rule:nonzero;stroke:none" />
   
   
   
   
   </svg>
