<?xml version="1.0" encoding="UTF-8" standalone="no"?>
<!--
  #%L
  xplan-workspaces - Modul zur Gruppierung aller Workspaces
  %%
  Copyright (C) 2008 - 2022 lat/lon GmbH, info@lat-lon.de, www.lat-lon.de
  %%
  This program is free software: you can redistribute it and/or modify
  it under the terms of the GNU Affero General Public License as published by
  the Free Software Foundation, either version 3 of the License, or
  (at your option) any later version.
  
  This program is distributed in the hope that it will be useful,
  but WITHOUT ANY WARRANTY; without even the implied warranty of
  MERCHANTABILITY or FITNESS FOR A PARTICULAR PURPOSE.  See the
  GNU General Public License for more details.
  
  You should have received a copy of the GNU Affero General Public License
  along with this program.  If not, see <http://www.gnu.org/licenses/>.
  #L%
  -->

<!-- Created with Inkscape (http://www.inkscape.org/) -->

<svg
   xmlns:svg="http://www.w3.org/2000/svg"
   xmlns="http://www.w3.org/2000/svg"
   version="1.1"
   width="177.16534"
   height="177.16534"
   viewBox="0 0 50 50"
   id="svg2"
   xml:space="preserve"><defs
   id="defs11" />
 

   
   
   <path   
   d="M35.0627 25.0086c0,-1.4011 -0.2586,-2.7104 -0.7756,-3.928 -0.5171,-1.2176 -1.226,-2.2767 -2.1266,-3.1774 -0.9007,-0.9007 -1.9599,-1.6179 -3.1774,-2.1517 -1.2176,-0.5337 -2.527,-0.8006 -3.928,-0.8006 -1.4011,0 -2.7104,0.2669 -3.928,0.8006 -1.2176,0.5338 -2.2767,1.251 -3.1774,2.1517 -0.9007,0.9007 -1.6096,1.9598 -2.1266,3.1774 -0.5171,1.2176 -0.7756,2.5269 -0.7756,3.928 0,1.401 0.2585,2.702 0.7756,3.9029 0.517,1.2009 1.2259,2.2517 2.1266,3.1524 0.9007,0.9007 1.9598,1.6096 3.1774,2.1266 1.2176,0.5171 2.5269,0.7756 3.928,0.7756 1.401,0 2.7104,-0.2585 3.928,-0.7756 1.2175,-0.517 2.2767,-1.2259 3.1774,-2.1266 0.9006,-0.9007 1.6095,-1.9515 2.1266,-3.1524 0.517,-1.2009 0.7756,-2.5019 0.7756,-3.9029z"    
   id="path3604"
   style="fill:#50BEFF;fill-opacity:1;fill-rule:nonzero;stroke:none" />
   
   
   <path   
   d="M35.0627 25.0086c0,1.401 -0.2586,2.702 -0.7756,3.9029 -0.5171,1.2009 -1.226,2.2517 -2.1266,3.1524 -0.9007,0.9007 -1.9599,1.6096 -3.1774,2.1266 -1.2176,0.5171 -2.527,0.7756 -3.928,0.7756 -1.4011,0 -2.7104,-0.2585 -3.928,-0.7756 -1.2176,-0.517 -2.2767,-1.2259 -3.1774,-2.1266 -0.9007,-0.9007 -1.6096,-1.9515 -2.1266,-3.1524 -0.5171,-1.2009 -0.7756,-2.5019 -0.7756,-3.9029 0,-1.4011 0.2585,-2.7104 0.7756,-3.928 0.517,-1.2176 1.2259,-2.2767 2.1266,-3.1774 0.9007,-0.9007 1.9598,-1.6179 3.1774,-2.1517 1.2176,-0.5337 2.5269,-0.8006 3.928,-0.8006 1.401,0 2.7104,0.2669 3.928,0.8006 1.2175,0.5338 2.2767,1.251 3.1774,2.1517 0.9006,0.9007 1.6095,1.9598 2.1266,3.1774 0.517,1.2176 0.7756,2.5269 0.7756,3.928zm-2.2517 0c0,-1.0675 -0.2002,-2.0766 -0.6005,-3.0273 -0.4003,-0.9508 -0.9507,-1.7764 -1.6513,-2.4769 -0.7005,-0.7005 -1.5178,-1.2593 -2.4518,-1.6763 -0.934,-0.417 -1.9515,-0.6255 -3.0523,-0.6255 -1.1009,0 -2.1183,0.2085 -3.0523,0.6255 -0.9341,0.417 -1.7514,0.9841 -2.4519,1.7013 -0.7005,0.7172 -1.2509,1.5512 -1.6512,2.5019 -0.4003,0.9507 -0.6005,1.9431 -0.6005,2.9773 0,1.0674 0.2002,2.0682 0.6005,3.0022 0.4003,0.9341 0.9507,1.7514 1.6512,2.4519 0.7005,0.7005 1.5178,1.2509 2.4519,1.6512 0.934,0.4003 1.9514,0.6005 3.0523,0.6005 1.1008,0 2.1183,-0.2002 3.0523,-0.6005 0.934,-0.4003 1.7513,-0.9507 2.4518,-1.6512 0.7006,-0.7005 1.251,-1.5178 1.6513,-2.4519 0.4003,-0.934 0.6005,-1.9348 0.6005,-3.0022zm-6.7051 3.0022l0 -9.5572 -2.3518 0 0 9.5072c0,0 -0.0083,-0.0083 -0.025,-0.025 -0.0167,-0.0167 -0.0417,-0.025 -0.0751,-0.025 -0.3002,-0.0668 -0.5671,-0.1668 -0.8006,-0.3003 -0.6338,-0.2668 -1.1759,-0.6671 -1.6262,-1.2009 -0.4504,-0.5337 -0.7589,-1.1342 -0.9257,-1.8013l-2.1016 0.6004c0.3336,1.0008 0.8256,1.8681 1.4761,2.602 0.6505,0.7339 1.376,1.3343 2.1767,1.8013 0.2001,0.0668 0.3919,0.1335 0.5754,0.2002 0.1835,0.0667 0.3753,0.1334 0.5754,0.2001 0.1335,0.0334 0.2669,0.0668 0.4003,0.1001 0.1335,0.0334 0.2502,0.0667 0.3503,0.1001l0 1.7513 2.3518 0 0 -1.7013c1.9681,-0.3669 3.5026,-1.2843 4.6035,-2.752 0.2001,-0.3336 0.4169,-0.7006 0.6505,-1.1009 0.2335,-0.4003 0.4169,-0.8006 0.5504,-1.2009l-0.9507 -0.2502 -1.1509 -0.3502c-0.0667,0.3002 -0.1668,0.5671 -0.3002,0.8006 -0.0668,0.1334 -0.1418,0.2585 -0.2252,0.3752 -0.0834,0.1168 -0.1752,0.2419 -0.2752,0.3753 -0.6005,0.9674 -1.5679,1.5846 -2.9022,1.8514z"   
   id="path3605"
   style="fill:#000000;fill-opacity:1;fill-rule:nonzero;stroke:none" />
   
   
   
 
   
   
   
   
   
   
   </svg>
