<?xml version="1.0" encoding="UTF-8" standalone="no"?>
<!--
  #%L
  xplan-workspaces - Modul zur Gruppierung aller Workspaces
  %%
  Copyright (C) 2008 - 2022 lat/lon GmbH, info@lat-lon.de, www.lat-lon.de
  %%
  This program is free software: you can redistribute it and/or modify
  it under the terms of the GNU Affero General Public License as published by
  the Free Software Foundation, either version 3 of the License, or
  (at your option) any later version.
  
  This program is distributed in the hope that it will be useful,
  but WITHOUT ANY WARRANTY; without even the implied warranty of
  MERCHANTABILITY or FITNESS FOR A PARTICULAR PURPOSE.  See the
  GNU General Public License for more details.
  
  You should have received a copy of the GNU Affero General Public License
  along with this program.  If not, see <http://www.gnu.org/licenses/>.
  #L%
  -->

<!-- Created with Inkscape (http://www.inkscape.org/) -->

<svg
   xmlns:svg="http://www.w3.org/2000/svg"
   xmlns="http://www.w3.org/2000/svg"
   version="1.1"
   width="177.16534"
   height="177.16534"
   viewBox="0 0 50 50"
   id="svg2"
   xml:space="preserve"><defs
   id="defs11" />
 
<path
   d="M25.0552 2.4414c-3.1024,0 -6.0213,0.5921 -8.7567,1.7763 -2.7354,1.1842 -5.1205,2.7938 -7.1554,4.8287 -2.0349,2.0348 -3.6444,4.42 -4.8287,7.1554 -1.1842,2.7354 -1.7763,5.6543 -1.7763,8.7566 0,3.1024 0.5921,6.0212 1.7763,8.7566 1.1843,2.7354 2.7938,5.1206 4.8287,7.1555 2.0349,2.0348 4.42,3.6444 7.1554,4.8286 2.7354,1.1842 5.6543,1.7764 8.7567,1.7764 3.1023,0 6.0212,-0.5922 8.7566,-1.7764 2.7354,-1.1842 5.1205,-2.7938 7.1554,-4.8286 2.0349,-2.0349 3.6444,-4.4201 4.8287,-7.1555 1.1842,-2.7354 1.7763,-5.6542 1.7763,-8.7566 0,-3.1023 -0.5921,-6.0212 -1.7763,-8.7566 -1.1843,-2.7354 -2.7938,-5.1206 -4.8287,-7.1554 -2.0349,-2.0349 -4.42,-3.6445 -7.1554,-4.8287 -2.7354,-1.1842 -5.6543,-1.7763 -8.7566,-1.7763z"
     
   id="path3603"
   style="fill:#FBFBFB;fill-opacity:1;fill-rule:nonzero;stroke:none" />
   
   <path
   d="M47.5722 25.0335c0,-3.1023 -0.5838,-6.0295 -1.7513,-8.7816 -1.1676,-2.7521 -2.7604,-5.1456 -4.7786,-7.1805 -2.0182,-2.0348 -4.3867,-3.6444 -7.1054,-4.8286 -2.7187,-1.1843 -5.646,-1.7764 -8.7817,-1.7764 -3.169,0 -6.1296,0.5921 -8.8817,1.7764 -2.7521,1.1842 -5.1456,2.7938 -7.1804,4.8286 -2.0349,2.0349 -3.6361,4.4284 -4.8037,7.1805 -1.1675,2.7521 -1.7513,5.6793 -1.7513,8.7816 0,3.1691 0.5838,6.113 1.7513,8.8317 1.1676,2.7187 2.7688,5.0872 4.8037,7.1054 2.0348,2.0182 4.4283,3.6027 7.1804,4.7536 2.7521,1.1509 5.7127,1.7263 8.8817,1.7263 3.1357,0 6.063,-0.5754 8.7817,-1.7263 2.7187,-1.1509 5.0872,-2.7354 7.1054,-4.7536 2.0182,-2.0182 3.611,-4.3867 4.7786,-7.1054 1.1675,-2.7187 1.7513,-5.6626 1.7513,-8.8317zm-10.0076 0c0,1.7013 -0.3252,3.3109 -0.9757,4.8287 -0.6505,1.5178 -1.5345,2.8438 -2.652,3.978 -1.1175,1.1342 -2.4269,2.0265 -3.928,2.677 -1.5011,0.6505 -3.119,0.9758 -4.8537,0.9758 -1.768,0 -3.4192,-0.3253 -4.9537,-0.9758 -1.5345,-0.6505 -2.8689,-1.5345 -4.0031,-2.652 -1.1341,-1.1175 -2.0265,-2.4268 -2.677,-3.928 -0.6505,-1.5011 -0.9757,-3.119 -0.9757,-4.8536 0,-1.7013 0.3252,-3.3192 0.9757,-4.8537 0.6505,-1.5345 1.5429,-2.8772 2.677,-4.0281 1.1342,-1.1508 2.4686,-2.0599 4.0031,-2.727 1.5345,-0.6672 3.1857,-1.0008 4.9537,-1.0008 1.7347,0 3.3526,0.3253 4.8537,0.9757 1.5011,0.6505 2.8105,1.5429 3.928,2.6771 1.1175,1.1342 2.0015,2.4685 2.652,4.003 0.6505,1.5345 0.9757,3.1691 0.9757,4.9037z"
     
   id="path3605"
   style="fill:#000000;fill-opacity:1;fill-rule:nonzero;stroke:none" />
   
   
   </svg>
