<?xml version="1.0" encoding="UTF-8" standalone="no"?>
<!--
  #%L
  xplan-workspaces - Modul zur Gruppierung aller Workspaces
  %%
  Copyright (C) 2008 - 2022 lat/lon GmbH, info@lat-lon.de, www.lat-lon.de
  %%
  This program is free software: you can redistribute it and/or modify
  it under the terms of the GNU Affero General Public License as published by
  the Free Software Foundation, either version 3 of the License, or
  (at your option) any later version.
  
  This program is distributed in the hope that it will be useful,
  but WITHOUT ANY WARRANTY; without even the implied warranty of
  MERCHANTABILITY or FITNESS FOR A PARTICULAR PURPOSE.  See the
  GNU General Public License for more details.
  
  You should have received a copy of the GNU Affero General Public License
  along with this program.  If not, see <http://www.gnu.org/licenses/>.
  #L%
  -->

<svg
   xmlns:dc="http://purl.org/dc/elements/1.1/"
   xmlns:cc="http://creativecommons.org/ns#"
   xmlns:rdf="http://www.w3.org/1999/02/22-rdf-syntax-ns#"
   xmlns:svg="http://www.w3.org/2000/svg"
   xmlns="http://www.w3.org/2000/svg"
   xmlns:sodipodi="http://sodipodi.sourceforge.net/DTD/sodipodi-0.dtd"
   xmlns:inkscape="http://www.inkscape.org/namespaces/inkscape"
   version="1.0"
   width="100%"
   height="100%"
   viewBox="-15 -10 100 100"
   id="svg2"
   sodipodi:docname="anpflanzbinderhastr_sym.svg"
   inkscape:version="1.0.2-2 (e86c870879, 2021-01-15)">
  <metadata
     id="metadata10">
    <rdf:RDF>
      <cc:Work
         rdf:about="">
        <dc:format>image/svg+xml</dc:format>
        <dc:type
           rdf:resource="http://purl.org/dc/dcmitype/StillImage" />
      </cc:Work>
    </rdf:RDF>
  </metadata>
  <sodipodi:namedview
     pagecolor="#ffffff"
     bordercolor="#666666"
     borderopacity="1"
     objecttolerance="10"
     gridtolerance="10"
     guidetolerance="10"
     inkscape:pageopacity="0"
     inkscape:pageshadow="2"
     inkscape:window-width="1920"
     inkscape:window-height="986"
     id="namedview8"
     showgrid="false"
     inkscape:zoom="8"
     inkscape:cx="50"
     inkscape:cy="50"
     inkscape:window-x="-11"
     inkscape:window-y="-11"
     inkscape:window-maximized="1"
     inkscape:current-layer="use11" />
  <defs
     id="defs4">
    <style
       type="text/css"
       id="style6" />
    <symbol
       id="Anpflanzung_Straeucher"
       style="overflow:visible">
      <path
         d="M -4.242,-4.242 C -1.8990009,-6.5842916 1.8990009,-6.5842916 4.242,-4.242 C 6.3372472,-5.5493209 9.0731205,-5.1310621 10.682068,-3.2574461 C 12.291015,-1.3838301 12.291015,1.3838301 10.682068,3.2574461 C 9.0731205,5.1310621 6.3372472,5.5493209 4.242,4.242 C 1.8990009,6.5842916 -1.8990009,6.5842916 -4.242,4.242 C -6.3372472,5.5493209 -9.0731205,5.1310621 -10.682068,3.2574461 C -12.291015,1.3838301 -12.291015,-1.3838301 -10.682068,-3.2574461 C -9.0731205,-5.1310621 -6.3372472,-5.5493209 -4.242,-4.242"
         id="path9"
         style="font-size:4px;fill:#008000;stroke:#000000;stroke-width:0.5" />
    </symbol>
  </defs>
  <g
     id="use11"
     transform="matrix(4.1017801,0,0,4.1017801,34.999998,39.999999)">
    <path
       d="m -4.242,-4.242 c 2.3429991,-2.3422916 6.1410009,-2.3422916 8.484,0 2.0952472,-1.3073209 4.8311205,-0.8890621 6.440068,0.9845539 1.608947,1.873616 1.608947,4.6412762 0,6.5148922 C 9.0731205,5.1310621 6.3372472,5.5493209 4.242,4.242 c -2.3429991,2.3422916 -6.1410009,2.3422916 -8.484,0 -2.0952472,1.3073209 -4.8311205,0.8890621 -6.440068,-0.9845539 -1.608947,-1.873616 -1.608947,-4.6412762 0,-6.5148922 C -9.0731205,-5.1310621 -6.3372472,-5.5493209 -4.242,-4.242"
       id="path835"
       style="font-size:4px;fill:#4dae38;stroke:#000000;stroke-width:0.48759318;fill-opacity:1;stroke-miterlimit:4;stroke-dasharray:none;stroke-linecap:square" />
  </g>
</svg>
