<?xml version="1.0" encoding="UTF-8" standalone="no"?>
<!--
  #%L
  xplan-workspaces - Modul zur Gruppierung aller Workspaces
  %%
  Copyright (C) 2008 - 2022 lat/lon GmbH, info@lat-lon.de, www.lat-lon.de
  %%
  This program is free software: you can redistribute it and/or modify
  it under the terms of the GNU Affero General Public License as published by
  the Free Software Foundation, either version 3 of the License, or
  (at your option) any later version.
  
  This program is distributed in the hope that it will be useful,
  but WITHOUT ANY WARRANTY; without even the implied warranty of
  MERCHANTABILITY or FITNESS FOR A PARTICULAR PURPOSE.  See the
  GNU General Public License for more details.
  
  You should have received a copy of the GNU Affero General Public License
  along with this program.  If not, see <http://www.gnu.org/licenses/>.
  #L%
  -->

<!-- Created with Inkscape (http://www.inkscape.org/) -->
<svg
   xmlns:svg="http://www.w3.org/2000/svg"
   xmlns="http://www.w3.org/2000/svg"
   xmlns:xlink="http://www.w3.org/1999/xlink"
   version="1.0"
   width="100%"
   height="100%"
   viewBox="-4.5 -4.5 100 100"
   id="svg2">
  <defs
     id="defs4">
    <style
       type="text/css"
       id="style6" />
    <symbol
       id="SymbolFlughafen"
       style="overflow:visible">
      <path
         d="M 0,-3.5 L 0.5,-3 L 0.5,-2 L 1.5,-2 L 1.5,-2.5 L 2,-2.5 L 2,-2 L 3,-2 L 3,-1 L 2.2,-0.68 L 2,0 L 1.8,-0.51 L 0.5,0 L 0.5,2 L 1,2 L 1,2.5 L 0.5,2.5 L 0,3.5 L -0.5,2.5 L -1,2.5 L -1,2 L -0.5,2 L -0.5,0 L -1.8,-0.51 L -2,0 L -2.2,-0.68 L -3,-1 L -3,-2 L -2,-2 L -2,-2.5 L -1.5,-2.5 L -1.5,-2 L -0.5,-2 L -0.5,-3 L 0,-3.5 z"
         id="path9"
         style="fill:none;stroke:#000000;stroke-width:0.30000001" />
      <circle
         cx="0"
         cy="0"
         r="4"
         id="circle11"
         style="fill:none;stroke:#000000;stroke-width:0.30000001" />
    </symbol>
  </defs>
  <use
     transform="matrix(11.975074,0,0,11.975074,45.546559,45.546559)"
     id="use13"
     x="0"
     y="0"
     width="9"
     height="9"
     xlink:href="#SymbolFlughafen" />
</svg>
