<?xml version="1.0" encoding="UTF-8" standalone="no"?>
<!--
  #%L
  xplan-workspaces - Modul zur Gruppierung aller Workspaces
  %%
  Copyright (C) 2008 - 2022 lat/lon GmbH, info@lat-lon.de, www.lat-lon.de
  %%
  This program is free software: you can redistribute it and/or modify
  it under the terms of the GNU Affero General Public License as published by
  the Free Software Foundation, either version 3 of the License, or
  (at your option) any later version.
  
  This program is distributed in the hope that it will be useful,
  but WITHOUT ANY WARRANTY; without even the implied warranty of
  MERCHANTABILITY or FITNESS FOR A PARTICULAR PURPOSE.  See the
  GNU General Public License for more details.
  
  You should have received a copy of the GNU Affero General Public License
  along with this program.  If not, see <http://www.gnu.org/licenses/>.
  #L%
  -->

<!-- Created with Inkscape (http://www.inkscape.org/) -->
<svg
   xmlns:svg="http://www.w3.org/2000/svg"
   xmlns="http://www.w3.org/2000/svg"
   version="1.0"
   width="100%"
   height="100%"
   viewBox="-4.5 -4.5 100 100"
   id="svg2">
  <defs
     id="defs4">
    <style
       type="text/css"
       id="style6" />
    <symbol
       id="SymbolDurchgang"
       style="overflow:visible">
      <rect
         width="9"
         height="9"
         x="-4.5"
         y="-4.5"
         id="rect9"
         style="fill:#000000;stroke:none" />
      <text
         x="0"
         y="2.5"
         id="text11"
         style="font-size:7px;font-weight:100;text-anchor:middle;fill:#ffffff;stroke:none">Du</text>
    </symbol>
  </defs>
  <path
     d="M 0.69198065,49.489222 L 0.69198065,21.324785 L 7.8276082,21.327534 C 23.375347,21.33353 29.796659,22.11408 35.465501,24.687093 C 38.922114,26.256005 42.647681,29.304295 45.087145,32.559603 C 46.542578,34.501789 48.255027,37.973522 48.9519,40.394827 C 50.460256,45.635647 50.461149,53.054528 48.954078,58.470534 C 48.321839,60.742649 46.379394,64.726424 45.054025,66.469196 C 44.502533,67.19437 43.225807,68.583487 42.216855,69.556121 C 37.401361,74.198273 31.954464,76.338331 22.756758,77.201906 C 21.476394,77.322123 15.988033,77.472941 10.560402,77.537066 L 0.69198065,77.653661 L 0.69198065,49.489222 z M 23.364045,66.067441 C 30.933398,64.075704 34.900746,58.90468 35.249653,50.575797 C 35.64872,41.049493 31.702203,35.066916 23.603266,32.920884 C 21.820849,32.448586 21.189766,32.392924 16.633276,32.306129 L 11.623155,32.21069 L 11.623155,49.462437 L 11.623155,66.714184 L 16.633276,66.61719 C 20.971005,66.533214 21.874321,66.459435 23.364045,66.067441 z"
     transform="translate(-4.5,-4.5)"
     id="path2395"
     style="opacity:1;fill:#050201;fill-opacity:0.990625" />
  <path
     d="M 71.472104,78.281965 C 66.465371,77.208022 63.151807,74.193584 61.542973,69.249167 C 60.483973,65.994536 60.40858,64.681214 60.40858,49.487064 L 60.40858,35.494825 L 67.07593,35.494825 L 73.743278,35.494825 L 73.823489,49.108186 C 73.912661,64.242431 73.929446,64.442785 75.260715,66.264056 C 77.498485,69.325489 83.136928,69.323192 86.121284,66.259631 C 87.235614,65.115726 88.271173,63.222862 88.827262,61.313467 C 89.221985,59.958123 89.245792,59.283795 89.30811,47.691182 L 89.373679,35.494825 L 93.919462,35.494825 L 98.46526,35.494825 L 98.46526,56.547457 L 98.46526,77.600088 L 93.910604,77.600088 L 89.355948,77.600088 L 89.355948,74.526364 L 89.355948,71.452631 L 87.483479,73.277995 C 84.444329,76.24069 82.044213,77.624676 78.78756,78.292348 C 76.855811,78.688392 73.343634,78.683402 71.472102,78.281961 L 71.472104,78.281965 z"
     transform="translate(-4.5,-4.5)"
     id="path2397"
     style="opacity:1;fill:#050201;fill-opacity:0.990625" />
</svg>
