<?xml version="1.0" encoding="UTF-8" standalone="no"?>
<!--
  #%L
  xplan-workspaces - Modul zur Gruppierung aller Workspaces
  %%
  Copyright (C) 2008 - 2022 lat/lon GmbH, info@lat-lon.de, www.lat-lon.de
  %%
  This program is free software: you can redistribute it and/or modify
  it under the terms of the GNU Affero General Public License as published by
  the Free Software Foundation, either version 3 of the License, or
  (at your option) any later version.
  
  This program is distributed in the hope that it will be useful,
  but WITHOUT ANY WARRANTY; without even the implied warranty of
  MERCHANTABILITY or FITNESS FOR A PARTICULAR PURPOSE.  See the
  GNU General Public License for more details.
  
  You should have received a copy of the GNU Affero General Public License
  along with this program.  If not, see <http://www.gnu.org/licenses/>.
  #L%
  -->

<!-- Created with Inkscape (http://www.inkscape.org/) -->
<svg
   xmlns:svg="http://www.w3.org/2000/svg"
   xmlns="http://www.w3.org/2000/svg"
   version="1.0"
   width="100%"
   height="100%"
   viewBox="-5 -5 100 100"
   id="svg2">
  <defs
     id="defs4">
    <style
       type="text/css"
       id="style6" />
    <symbol
       id="SymbolElektrizitaet"
       style="overflow:visible">
      <circle
         cx="0"
         cy="0"
         r="4.5"
         id="circle9"
         style="fill:#ffffff;stroke:#000000;stroke-width:0.5" />
      <path
         d="M -0.25,-4.5 L -1,0.125 L 0,-0.625 L -0.5,4.5 C -2.9852813,4.4309644 -4.9440355,2.3602813 -4.8749999,-0.125 C -4.8059643,-2.6102813 -2.7352813,-4.5690356 -0.25,-4.5"
         id="path11"
         style="fill:#000000;stroke:none" />
    </symbol>
  </defs>
  <path
     d="M 39.38934,7.1788545 L 32.303843,46.292889 L 42.723692,39.592801 L 37.722164,82.871761 C 44.948555,82.784238 52.016681,82.7678 58.14507,80.879841 C 63.354994,79.046046 68.564919,76.756548 73.774842,71.825664 C 78.262048,67.856339 81.682597,62.758666 83.986297,58.244403 C 85.609892,53.463249 86.529712,48.478247 86.487059,43.214471 C 86.19807,40.297795 85.037037,34.4515 82.52752,29.089958 C 79.015127,23.253922 76.382368,20.24177 72.52446,17.319529 C 68.561512,14.056911 63.536791,11.124542 58.353467,9.532939 C 52.03209,7.9018469 45.710715,6.8843479 39.38934,7.1788545 z"
     id="path2391"
     style="fill:none;fill-rule:evenodd;stroke:#000000;stroke-width:0.95964855;stroke-linecap:butt;stroke-linejoin:miter;stroke-miterlimit:4;stroke-dasharray:none;stroke-opacity:1" />
  <path
     d="M 8.3603239,47.024291 L 8.562753,42.165992"
     id="path2387"
     style="fill:none;fill-rule:evenodd;stroke:#000000;stroke-width:1px;stroke-linecap:butt;stroke-linejoin:miter;stroke-opacity:1" />
</svg>
