<?xml version="1.0" encoding="UTF-8" standalone="no"?>
<!--
  #%L
  xplan-workspaces - Modul zur Gruppierung aller Workspaces
  %%
  Copyright (C) 2008 - 2022 lat/lon GmbH, info@lat-lon.de, www.lat-lon.de
  %%
  This program is free software: you can redistribute it and/or modify
  it under the terms of the GNU Affero General Public License as published by
  the Free Software Foundation, either version 3 of the License, or
  (at your option) any later version.
  
  This program is distributed in the hope that it will be useful,
  but WITHOUT ANY WARRANTY; without even the implied warranty of
  MERCHANTABILITY or FITNESS FOR A PARTICULAR PURPOSE.  See the
  GNU General Public License for more details.
  
  You should have received a copy of the GNU Affero General Public License
  along with this program.  If not, see <http://www.gnu.org/licenses/>.
  #L%
  -->

<!-- Created with Inkscape (http://www.inkscape.org/) -->
<svg
   xmlns:svg="http://www.w3.org/2000/svg"
   xmlns="http://www.w3.org/2000/svg"
   version="1.0"
   width="100%"
   height="100%"
   viewBox="-4.5 -4.5 100 100"
   id="svg2">
  <defs
     id="defs4">
    <style
       type="text/css"
       id="style6" />
    <symbol
       id="SymbolAbstellenFahrraeder"
       style="overflow:visible">
      <rect
         width="9"
         height="9"
         x="-4.5"
         y="-4.5"
         id="rect9"
         style="fill:#000000;stroke:none" />
      <text
         x="0"
         y="2"
         id="text11"
         style="font-size:6px;font-weight:100;text-anchor:middle;fill:#ffffff;stroke:none">AF</text>
    </symbol>
  </defs>
  <path
     d="M 2.0165595,71.903739 C 2.0542132,71.804543 6.0914684,60.916486 10.988239,47.708061 L 19.891455,23.692743 L 27.272209,23.745798 L 34.652966,23.798851 L 41.253417,41.612616 C 44.88367,51.410187 48.908166,62.273041 50.196743,65.752292 L 52.539615,72.078203 L 46.34066,72.076739 L 40.1417,72.075282 L 38.651049,67.724513 L 37.160401,63.373749 L 27.284951,63.373749 L 17.409496,63.373749 L 16.881818,64.841361 C 16.591595,65.648547 15.909241,67.584276 15.365476,69.14298 L 14.376812,71.976988 L 8.1624555,72.030549 C 4.5854632,72.061375 1.9771543,72.007559 2.0165601,71.903741 L 2.0165595,71.903739 z M 33.922917,54.21383 C 33.87451,54.07466 32.3845,49.703102 30.611783,44.499256 C 28.839069,39.295407 27.340117,35.036806 27.280783,35.035693 C 27.172516,35.033658 20.591502,54.030211 20.6018,54.315045 C 20.604818,54.398547 23.623105,54.466867 27.309107,54.466867 C 32.582549,54.466867 33.992168,54.412936 33.922915,54.21383 L 33.922917,54.21383 z"
     transform="translate(-4.5,-4.5)"
     id="path2391"
     style="opacity:1;fill:#050201;fill-opacity:0.990625" />
  <path
     d="M 59.271255,47.887919 L 59.271255,23.697636 L 76.072874,23.697636 L 92.874494,23.697636 L 92.874494,28.353507 L 92.874494,33.009377 L 82.246964,33.009377 L 71.619433,33.009377 L 71.619433,37.665247 L 71.619433,42.321118 L 81.538462,42.321118 L 91.45749,42.321118 L 91.45749,46.976988 L 91.45749,51.632859 L 81.538462,51.632859 L 71.619433,51.632859 L 71.619433,61.855531 L 71.619433,72.078203 L 65.445344,72.078203 L 59.271255,72.078203 L 59.271255,47.887919 z"
     transform="translate(-4.5,-4.5)"
     id="path2393"
     style="opacity:1;fill:#050201;fill-opacity:0.990625" />
</svg>
