<?xml version="1.0" encoding="UTF-8" standalone="no"?>
<!--
  #%L
  xplan-workspaces - Modul zur Gruppierung aller Workspaces
  %%
  Copyright (C) 2008 - 2022 lat/lon GmbH, info@lat-lon.de, www.lat-lon.de
  %%
  This program is free software: you can redistribute it and/or modify
  it under the terms of the GNU Affero General Public License as published by
  the Free Software Foundation, either version 3 of the License, or
  (at your option) any later version.
  
  This program is distributed in the hope that it will be useful,
  but WITHOUT ANY WARRANTY; without even the implied warranty of
  MERCHANTABILITY or FITNESS FOR A PARTICULAR PURPOSE.  See the
  GNU General Public License for more details.
  
  You should have received a copy of the GNU Affero General Public License
  along with this program.  If not, see <http://www.gnu.org/licenses/>.
  #L%
  -->

<!-- Created with Inkscape (http://www.inkscape.org/) -->
<svg
   xmlns:svg="http://www.w3.org/2000/svg"
   xmlns="http://www.w3.org/2000/svg"
   version="1.0"
   width="100%"
   height="100%"
   viewBox="-4.5 -4.5 100 100"
   id="svg2">
  <defs
     id="defs4">
    <style
       type="text/css"
       id="style6" />
    <symbol
       id="SymbolFussgaengerbereich"
       style="overflow:visible">
      <rect
         width="9"
         height="9"
         x="-4.5"
         y="-4.5"
         id="rect9"
         style="fill:#000000;stroke:none" />
      <path
         d="M -1.25,-4.5 L 0.75,-4.4 L 0.75,-4 L 0.25,-3.5 L 2.5,-1 L 2.5,0.5 L 2,1 L 1.5,-0.5 L 1,-1.25 L 0.5,-1 L 0.5,0.5 L 1,1.5 L 2,4.4 L 0,4.4 L 0.75,4 L -0.5,1 L -2,3.5 L -2,4.4 L -4,4.4 L -1.25,0.25 L -1.25,-1.25 L -3.5,0.75 L -3.75,-0.25 L -0.75,-2.75 L -0.75,-4.4 L -1.25,-4.5 z"
         id="path11"
         style="font-weight:100;fill:#ffffff;stroke:none" />
    </symbol>
  </defs>
  <path
     d="M 11.973775,89.377733 C 15.456889,84.117106 22.332429,73.738622 27.252753,66.314438 L 36.198796,52.81592 L 36.145957,44.390839 L 36.093117,35.965758 L 23.657362,47.01878 C 15.273417,54.470519 11.177032,57.986106 11.084794,57.808778 C 11.009545,57.664114 10.37584,55.238818 9.6765587,52.419235 C 8.5980709,48.070646 8.4478158,47.253005 8.6863745,47.030991 C 8.8410547,46.887037 16.323381,40.646167 25.313765,33.162387 L 41.659919,19.555517 L 41.659919,10.277934 L 41.659919,1.0003508 L 40.652455,0.78428606 C 40.098348,0.66545408 39.27546,0.50913424 38.82381,0.43691359 C 38.372162,0.36469294 38.039275,0.26895813 38.084063,0.22416865 C 38.161506,0.14672533 52.429415,0.81467068 56.38664,1.0809966 L 58.259109,1.2070148 L 58.259109,3.3670492 L 58.259109,5.5270836 L 55.526316,8.2542516 C 54.023279,9.754195 52.793522,11.040733 52.793522,11.113225 C 52.793522,11.185717 58.395749,17.470266 65.242915,25.078883 L 77.692308,38.912735 L 77.692308,47.219912 L 77.692308,55.527086 L 74.984119,58.229695 L 72.275931,60.93231 L 69.518038,52.658563 L 66.76014,44.384816 L 64.0003,40.236537 C 62.482387,37.954984 61.217016,36.060015 61.188364,36.025493 C 61.159715,35.990966 59.851259,36.606456 58.280686,37.39324 L 55.425101,38.823754 L 55.425101,47.123397 L 55.425101,55.423035 L 58.225138,61.039049 L 61.02517,66.655061 L 66.551891,82.704144 C 69.591587,91.531148 72.035221,98.79663 71.982186,98.849665 C 71.929152,98.902703 67.045577,98.922513 61.129798,98.893693 L 50.373836,98.841296 L 54.367081,96.703337 C 57.06249,95.260237 58.339002,94.470746 58.294719,94.274191 C 58.186176,93.792414 44.674613,61.404677 44.510684,61.233337 C 44.427245,61.146126 40.608978,67.325225 36.025644,74.964671 L 27.692308,88.854574 L 27.692308,93.898535 L 27.692308,98.942511 L 16.666575,98.942511 L 5.6408401,98.942511 L 11.973775,89.377733 z"
     transform="translate(-4.5,-4.5)"
     id="path2391"
     style="opacity:1;fill:#050201;fill-opacity:0.990625" />
</svg>
