<?xml version="1.0" encoding="UTF-8" standalone="no"?>
<!--
  #%L
  xplan-workspaces - Modul zur Gruppierung aller Workspaces
  %%
  Copyright (C) 2008 - 2022 lat/lon GmbH, info@lat-lon.de, www.lat-lon.de
  %%
  This program is free software: you can redistribute it and/or modify
  it under the terms of the GNU Affero General Public License as published by
  the Free Software Foundation, either version 3 of the License, or
  (at your option) any later version.
  
  This program is distributed in the hope that it will be useful,
  but WITHOUT ANY WARRANTY; without even the implied warranty of
  MERCHANTABILITY or FITNESS FOR A PARTICULAR PURPOSE.  See the
  GNU General Public License for more details.
  
  You should have received a copy of the GNU Affero General Public License
  along with this program.  If not, see <http://www.gnu.org/licenses/>.
  #L%
  -->

<!-- Created with Inkscape (http://www.inkscape.org/) -->
<svg
   xmlns:svg="http://www.w3.org/2000/svg"
   xmlns="http://www.w3.org/2000/svg"
   version="1.0"
   width="100%"
   height="100%"
   viewBox="-4.5 -4.5 100 100"
   id="svg2">
  <defs
     id="defs4">
    <style
       type="text/css"
       id="style6" />
    <symbol
       id="SymbolBruecke"
       style="overflow:visible">
      <rect
         width="9"
         height="9"
         x="-4.5"
         y="-4.5"
         id="rect9"
         style="fill:#000000;stroke:none" />
      <text
         x="0"
         y="2.5"
         id="text11"
         style="font-size:7px;font-weight:100;text-anchor:middle;fill:#ffffff;stroke:none">Br</text>
    </symbol>
  </defs>
  <path
     d="M 8.4615385,49.439687 L 8.4615385,21.187853 L 20.375462,21.187853 C 26.928119,21.187853 33.464051,21.280509 34.899753,21.393754 C 45.192733,22.205646 50.20396,25.200729 52.009915,31.620061 C 52.556802,33.563981 52.662117,37.600325 52.213081,39.406476 C 51.442543,42.505796 49.212605,45.330895 46.417004,46.749503 C 45.252704,47.340321 45.0722,47.494142 45.404858,47.612047 C 45.62753,47.69097 46.584008,48.120527 47.530364,48.566618 C 49.820182,49.645987 52.137897,51.926179 53.239986,54.183804 C 54.48498,56.734177 54.712047,57.887588 54.714466,61.673683 C 54.71634,64.612847 54.659696,65.195999 54.242538,66.531983 C 53.483006,68.964444 52.455561,70.722997 50.87183,72.301213 C 48.463393,74.701266 45.250383,76.172553 40.414553,77.089762 C 38.224083,77.505221 37.428822,77.529317 23.289474,77.608489 L 8.4615385,77.691519 L 8.4615385,49.439687 z M 33.924415,67.739416 C 36.04636,67.39507 37.38654,66.783181 38.535676,65.634047 C 39.952949,64.216772 40.34413,63.05264 40.34413,60.252183 C 40.34413,58.253493 40.303136,58.038924 39.67917,56.771693 C 38.731008,54.846041 37.383291,53.852076 34.939186,53.275857 C 33.979953,53.049709 32.322194,52.974472 28.248988,52.972221 L 22.834008,52.969229 L 22.834008,60.459108 L 22.834008,67.948987 L 27.742915,67.94746 C 30.442814,67.946616 33.22449,67.852997 33.924415,67.739414 L 33.924415,67.739416 z M 34.902482,42.480066 C 37.040174,41.512568 38.090621,39.730956 38.087247,37.078541 C 38.083638,34.242039 36.925472,32.466448 34.449561,31.501584 C 33.345482,31.071325 32.880911,31.031232 28.046559,30.948993 L 22.834008,30.860325 L 22.834008,36.967159 L 22.834008,43.073997 L 28.350202,43.011493 C 33.614128,42.951845 33.913779,42.927541 34.902482,42.480066 z"
     transform="translate(-4.5,-4.5)"
     id="path2391"
     style="opacity:1;fill:#050201;fill-opacity:0.990625" />
  <path
     d="M 66.963563,56.51174 L 66.963563,35.357893 L 73.643725,35.357893 L 80.323887,35.357893 L 80.323887,38.799189 C 80.323887,40.691902 80.402874,42.240485 80.499415,42.240485 C 80.59596,42.240485 80.929352,41.853339 81.240296,41.380161 C 84.564964,36.320829 89.594711,33.991051 96.217988,34.442495 L 98.340081,34.587138 L 98.340081,40.602136 L 98.340081,46.617132 L 96.67004,46.061817 C 92.436986,44.65427 88.19263,44.892029 85.384486,46.694009 C 82.534822,48.522636 80.963854,51.588557 80.529484,56.169104 C 80.416589,57.35958 80.32415,62.683298 80.324057,67.999594 L 80.323887,77.665586 L 73.643725,77.665586 L 66.963563,77.665586 L 66.963563,56.51174 z"
     transform="translate(-4.5,-4.5)"
     id="path2393"
     style="opacity:1;fill:#050201;fill-opacity:0.990625" />
</svg>
