<?xml version="1.0" encoding="UTF-8" standalone="no"?>
<!--
  #%L
  xplan-workspaces - Modul zur Gruppierung aller Workspaces
  %%
  Copyright (C) 2008 - 2022 lat/lon GmbH, info@lat-lon.de, www.lat-lon.de
  %%
  This program is free software: you can redistribute it and/or modify
  it under the terms of the GNU Affero General Public License as published by
  the Free Software Foundation, either version 3 of the License, or
  (at your option) any later version.
  
  This program is distributed in the hope that it will be useful,
  but WITHOUT ANY WARRANTY; without even the implied warranty of
  MERCHANTABILITY or FITNESS FOR A PARTICULAR PURPOSE.  See the
  GNU General Public License for more details.
  
  You should have received a copy of the GNU Affero General Public License
  along with this program.  If not, see <http://www.gnu.org/licenses/>.
  #L%
  -->

<!-- Created with Inkscape (http://www.inkscape.org/) -->
<svg
   xmlns:svg="http://www.w3.org/2000/svg"
   xmlns="http://www.w3.org/2000/svg"
   version="1.0"
   width="100%"
   height="100%"
   viewBox="-4.5 -4.5 100 100"
   id="svg2">
  <defs
     id="defs4">
    <style
       type="text/css"
       id="style6" />
    <symbol
       id="SymbolFussweg"
       style="overflow:visible">
      <rect
         width="9"
         height="9"
         x="-4.5"
         y="-4.5"
         id="rect9"
         style="fill:#000000;stroke:none" />
      <text
         x="0"
         y="2"
         id="text11"
         style="font-size:5.5px;font-weight:100;text-anchor:middle;fill:#ffffff;stroke:none">FW</text>
    </symbol>
  </defs>
  <path
     d="M 48.154739,71.343768 C 48.044217,70.926258 45.714441,61.158877 42.977462,49.638476 C 40.240478,38.118077 37.948721,28.483472 37.884664,28.228243 L 37.768196,27.764197 L 43.191575,27.818152 L 48.614955,27.872108 L 51.912152,41.738505 C 53.725609,49.365023 55.450168,56.634792 55.744504,57.893545 C 56.03884,59.152298 56.322202,60.139648 56.374198,60.087654 C 56.426192,60.035656 58.173328,52.765891 60.256721,43.932612 L 64.044711,27.872108 L 69.505221,27.81833 L 74.965735,27.764561 L 78.588389,43.101731 C 80.580842,51.537181 82.300289,58.848828 82.409379,59.349841 C 82.573765,60.104824 82.636488,60.191462 82.775751,59.855913 C 82.868168,59.633241 84.590832,52.482432 86.603897,43.965225 C 88.61696,35.448019 90.310949,28.319982 90.36832,28.125144 C 90.495802,27.692181 90.850202,27.65496 90.850202,28.074537 C 90.850202,28.336009 91.524966,28.378181 95.708502,28.378181 C 98.380567,28.378181 100.5668,28.457104 100.5668,28.553563 C 100.5668,28.729792 90.808198,69.920567 90.428595,71.34664 L 90.225765,72.108622 L 83.912563,72.055142 L 77.599364,72.001662 L 74.312209,58.23648 C 72.504275,50.66563 70.691443,43.069138 70.283692,41.355387 C 69.857905,39.565812 69.480508,38.359472 69.397093,38.521379 C 69.317213,38.676428 67.488121,46.295691 65.332447,55.453079 L 61.413038,72.102877 L 54.88436,72.102877 L 48.355686,72.102877 L 48.154739,71.343768 z"
     transform="translate(-4.5,-4.5)"
     id="path2401"
     style="opacity:1;fill:#050201;fill-opacity:0.990625" />
  <path
     d="M -0.24291498,49.936885 L -0.24291498,27.770893 L 15.1417,27.770893 L 30.526316,27.770893 L 30.526316,32.021905 L 30.526316,36.272917 L 20.809717,36.272917 L 11.093117,36.272917 L 11.093117,40.52393 L 11.093117,44.774942 L 20.303644,44.774942 L 29.51417,44.774942 L 29.51417,49.025954 L 29.51417,53.276966 L 20.303644,53.276966 L 11.093117,53.276966 L 11.093117,62.689922 L 11.093117,72.102877 L 5.4251012,72.102877 L -0.24291498,72.102877 L -0.24291498,49.936885 z"
     transform="translate(-4.5,-4.5)"
     id="path2403"
     style="opacity:1;fill:#050201;fill-opacity:0.990625" />
</svg>
