<?xml version="1.0" encoding="UTF-8" standalone="no"?>
<!--
  #%L
  xplan-workspaces - Modul zur Gruppierung aller Workspaces
  %%
  Copyright (C) 2008 - 2022 lat/lon GmbH, info@lat-lon.de, www.lat-lon.de
  %%
  This program is free software: you can redistribute it and/or modify
  it under the terms of the GNU Affero General Public License as published by
  the Free Software Foundation, either version 3 of the License, or
  (at your option) any later version.
  
  This program is distributed in the hope that it will be useful,
  but WITHOUT ANY WARRANTY; without even the implied warranty of
  MERCHANTABILITY or FITNESS FOR A PARTICULAR PURPOSE.  See the
  GNU General Public License for more details.
  
  You should have received a copy of the GNU Affero General Public License
  along with this program.  If not, see <http://www.gnu.org/licenses/>.
  #L%
  -->

<!-- Created with Inkscape (http://www.inkscape.org/) -->

<svg
   xmlns:svg="http://www.w3.org/2000/svg"
   xmlns="http://www.w3.org/2000/svg"
   version="1.1"
   width="177.16534"
   height="177.16534"
   viewBox="0 0 50 50"
   id="svg2"
   xml:space="preserve"><defs
   id="defs11" />
 
   
       
   
   <path   
   d="M40.7443 25.0481c0,2.1573 -0.4106,4.1857 -1.2315,6.0854 -0.8211,1.8996 -1.9399,3.5577 -3.3567,4.9744 -1.4166,1.4166 -3.0828,2.5355 -4.9985,3.3565 -1.9158,0.8211 -3.9682,1.2315 -6.1577,1.2315 -2.1894,0 -4.2339,-0.4024 -6.1336,-1.2074 -1.8996,-0.8049 -3.5658,-1.9076 -4.9985,-3.3082 -1.4328,-1.4005 -2.5596,-3.0427 -3.3807,-4.9261 -0.8211,-1.8835 -1.2315,-3.9201 -1.2315,-6.1094 0,-2.1894 0.4104,-4.25 1.2315,-6.1819 0.8211,-1.9317 1.9479,-3.6141 3.3807,-5.0468 1.4327,-1.4328 3.0989,-2.5597 4.9985,-3.3807 1.8997,-0.8211 3.9442,-1.2316 6.1336,-1.2316 2.1895,0 4.2419,0.4105 6.1577,1.2316 1.9157,0.821 3.5819,1.9399 4.9985,3.3565 1.4168,1.4167 2.5356,3.0829 3.3567,4.9986 0.8209,1.9157 1.2315,3.9683 1.2315,6.1576z"  
   id="path3605"
   style="fill:#00A0FF;fill-opacity:1;fill-rule:nonzero;stroke:none" />
   
   
   <path   
   d="M40.903 25.0415c0,2.2126 -0.408,4.28 -1.2239,6.2022 -0.8159,1.9223 -1.9429,3.5886 -3.3811,4.9992 -1.4383,1.4105 -3.1185,2.5237 -5.0407,3.3396 -1.9222,0.8159 -3.9758,1.2239 -6.1607,1.2239 -2.2403,0 -4.3216,-0.408 -6.2438,-1.2239 -1.9222,-0.8159 -3.6024,-1.9291 -5.0406,-3.3396 -1.4382,-1.4106 -2.5652,-3.0769 -3.3811,-4.9992 -0.8159,-1.9222 -1.2239,-3.9896 -1.2239,-6.2022 0,-2.185 0.408,-4.2455 1.2239,-6.1815 0.8159,-1.9361 1.9429,-3.6301 3.3811,-5.0821 1.4382,-1.4521 3.1184,-2.5929 5.0406,-3.4227 1.9222,-0.8297 4.0035,-1.2446 6.2438,-1.2446 2.1849,0 4.2385,0.4149 6.1607,1.2446 1.9222,0.8298 3.6024,1.9706 5.0407,3.4227 1.4382,1.452 2.5652,3.146 3.3811,5.0821 0.8159,1.936 1.2239,3.9965 1.2239,6.1815zm-26.8834 -0.7468c-0.5255,0.4702 -0.9472,1.051 -1.2653,1.7425 -0.3181,0.6914 -0.4909,1.4935 -0.5186,2.4062 0.3596,1.4105 0.9404,2.7174 1.7425,3.9205 0.802,1.2031 1.7631,2.2403 2.8833,3.1115 1.1201,0.8712 2.3785,1.5488 3.7753,2.0328 1.3967,0.484 2.8694,0.726 4.4183,0.726 1.6594,0 3.2359,-0.2973 4.7295,-0.8919 1.4935,-0.5947 2.821,-1.4106 3.9827,-2.4477 1.1616,-1.0372 2.1158,-2.2541 2.8625,-3.6509 0.7468,-1.3967 1.217,-2.9109 1.4106,-4.5427 -0.0553,0.0553 -0.1245,0.1175 -0.2074,0.1866 -0.083,0.0692 -0.1522,0.1314 -0.2075,0.1867 -0.5531,0.5532 -1.1685,1.0095 -1.8461,1.3691 -0.6776,0.3595 -1.376,0.6499 -2.0951,0.8712 -0.8021,0.166 -1.5903,0.2558 -2.3647,0.2697 -0.7745,0.0138 -1.5489,-0.0761 -2.3233,-0.2697 -1.0233,-0.3042 -1.9637,-0.7675 -2.8211,-1.3898 -0.8574,-0.6223 -1.6041,-1.4313 -2.2403,-2.427 -0.4701,-0.7744 -1.0164,-1.3828 -1.6387,-1.8254 -0.6223,-0.4425 -1.293,-0.7606 -2.0121,-0.9542 -1.051,-0.2765 -2.1711,-0.2765 -3.3604,0 -0.5531,0.1107 -1.0717,0.3043 -1.5557,0.5809 -0.4841,0.2765 -0.9335,0.6084 -1.3484,0.9956zm23.6889 -2.7796c-0.3872,-1.4105 -0.9749,-2.7104 -1.7632,-3.8997 -0.7882,-1.1893 -1.7355,-2.2195 -2.8418,-3.0908 -1.1063,-0.8712 -2.344,-1.5488 -3.7131,-2.0328 -1.369,-0.484 -2.8141,-0.726 -4.3353,-0.726 -1.6595,0 -3.2291,0.2904 -4.7087,0.8712 -1.4797,0.5808 -2.8004,1.3829 -3.962,2.4062 -1.1616,1.0234 -2.1297,2.2196 -2.9041,3.5886 -0.7744,1.3691 -1.2861,2.8418 -1.535,4.4183 0.0553,-0.0553 0.1176,-0.1106 0.1867,-0.1659 0.0691,-0.0553 0.1314,-0.1106 0.1867,-0.166 0.5808,-0.5808 1.21,-1.051 1.8876,-1.4105 0.6776,-0.3596 1.376,-0.6223 2.0951,-0.7882 0.6638,-0.1937 1.4659,-0.2905 2.4062,-0.2905 0.6638,0 1.4382,0.1107 2.3233,0.3319 0.968,0.249 1.8876,0.6846 2.7588,1.3069 0.8713,0.6223 1.6111,1.4589 2.2196,2.5099 0.4702,0.7191 1.0164,1.2999 1.6387,1.7424 0.6223,0.4426 1.2792,0.7606 1.9706,0.9542 1.2446,0.3043 2.3786,0.3181 3.4019,0.0415 1.1063,-0.2489 2.0882,-0.7606 2.9456,-1.535 0.4701,-0.4702 0.8643,-1.0441 1.1823,-1.7217 0.3181,-0.6776 0.5048,-1.4589 0.5601,-2.344z"   
   id="path3605"
   style="fill:#000000;fill-opacity:1;fill-rule:nonzero;stroke:none" />
    
  
   
   </svg>
