<?xml version="1.0" encoding="UTF-8" standalone="no"?>
<!--
  #%L
  xplan-workspaces - Modul zur Gruppierung aller Workspaces
  %%
  Copyright (C) 2008 - 2022 lat/lon GmbH, info@lat-lon.de, www.lat-lon.de
  %%
  This program is free software: you can redistribute it and/or modify
  it under the terms of the GNU Affero General Public License as published by
  the Free Software Foundation, either version 3 of the License, or
  (at your option) any later version.
  
  This program is distributed in the hope that it will be useful,
  but WITHOUT ANY WARRANTY; without even the implied warranty of
  MERCHANTABILITY or FITNESS FOR A PARTICULAR PURPOSE.  See the
  GNU General Public License for more details.
  
  You should have received a copy of the GNU Affero General Public License
  along with this program.  If not, see <http://www.gnu.org/licenses/>.
  #L%
  -->

<!-- Created with Inkscape (http://www.inkscape.org/) -->

<svg
   xmlns:svg="http://www.w3.org/2000/svg"
   xmlns="http://www.w3.org/2000/svg"
   version="1.1"
   width="177.16534"
   height="177.16534"
   viewBox="0 0 50 50"
   id="svg2"
   xml:space="preserve"><defs
   id="defs11" />
 
   
   <path   
   d="M33.6629 24.9619c0,1.1781 -0.2242,2.2859 -0.6726,3.3233 -0.4484,1.0375 -1.0594,1.943 -1.8331,2.7167 -0.7737,0.7737 -1.6836,1.3847 -2.7298,1.8331 -1.0463,0.4484 -2.1672,0.6726 -3.3629,0.6726 -1.1957,0 -2.3123,-0.2198 -3.3497,-0.6594 -1.0374,-0.4396 -1.9474,-1.0419 -2.7298,-1.8067 -0.7825,-0.7649 -1.3979,-1.6617 -1.8463,-2.6903 -0.4484,-1.0287 -0.6726,-2.1409 -0.6726,-3.3365 0,-1.1957 0.2242,-2.3211 0.6726,-3.3761 0.4484,-1.055 1.0638,-1.9738 1.8463,-2.7562 0.7824,-0.7825 1.6924,-1.3979 2.7298,-1.8463 1.0374,-0.4484 2.154,-0.6726 3.3497,-0.6726 1.1957,0 2.3166,0.2242 3.3629,0.6726 1.0462,0.4484 1.9561,1.0594 2.7298,1.8331 0.7737,0.7737 1.3847,1.6836 1.8331,2.7298 0.4484,1.0462 0.6726,2.1672 0.6726,3.3629z"  
   id="path3604"
   style="fill:#FBFBFB;fill-opacity:1;fill-rule:nonzero;stroke:none" />
     
   
   <path   
   d="M33.7258 24.9792c0,-1.1893 -0.2213,-2.3094 -0.6638,-3.3604 -0.4425,-1.051 -1.051,-1.9706 -1.8254,-2.7589 -0.7744,-0.7882 -1.6871,-1.4105 -2.7381,-1.8669 -1.051,-0.4563 -2.1711,-0.6845 -3.3604,-0.6845 -1.1893,0 -2.3164,0.2282 -3.3812,0.6845 -1.0648,0.4564 -1.9913,1.0787 -2.7796,1.8669 -0.7882,0.7883 -1.4174,1.7079 -1.8876,2.7589 -0.4702,1.051 -0.7053,2.1711 -0.7053,3.3604 0,1.2446 0.2351,2.3924 0.7053,3.4434 0.4702,1.051 1.0994,1.9637 1.8876,2.7381 0.7883,0.7744 1.7148,1.376 2.7796,1.8047 1.0648,0.4287 2.1919,0.643 3.3812,0.643 1.1893,0 2.3094,-0.2143 3.3604,-0.643 1.051,-0.4287 1.9637,-1.0303 2.7381,-1.8047 0.7744,-0.7744 1.3829,-1.6871 1.8254,-2.7381 0.4425,-1.051 0.6638,-2.1988 0.6638,-3.4434zm-0.8297 -0.0415c0,1.1063 -0.2006,2.1366 -0.6016,3.0908 -0.401,0.9541 -0.9542,1.7908 -1.6595,2.5099 -0.7052,0.7191 -1.528,1.2861 -2.4684,1.7009 -0.9404,0.4149 -1.9499,0.6223 -3.0285,0.6223 -1.1063,0 -2.1366,-0.2074 -3.0908,-0.6223 -0.9542,-0.4148 -1.7908,-0.9818 -2.5099,-1.7009 -0.7191,-0.7191 -1.2861,-1.5558 -1.701,-2.5099 -0.4148,-0.9542 -0.6223,-1.9845 -0.6223,-3.0908 0,-1.0787 0.2075,-2.0951 0.6223,-3.0493 0.4149,-0.9542 0.9819,-1.7839 1.701,-2.4892 0.7191,-0.7052 1.5557,-1.2653 2.5099,-1.6802 0.9542,-0.4148 1.9845,-0.6223 3.0908,-0.6223 1.0786,0 2.0881,0.2075 3.0285,0.6223 0.9404,0.4149 1.7632,0.975 2.4684,1.6802 0.7053,0.7053 1.2585,1.535 1.6595,2.4892 0.401,0.9542 0.6016,1.9706 0.6016,3.0493z"  
   id="path3605"
   style="fill:#FF5A14;fill-opacity:1;fill-rule:nonzero;stroke:none" />
   
   
   <path   
   d="M22.977 28.2665l0 -6.5331 2.0109 0c0.4061,0 0.7286,0.0639 0.9659,0.1901 0.2388,0.1263 0.432,0.3225 0.5841,0.5902 0.1521,0.2678 0.2281,0.5628 0.2281,0.8868 0,0.2997 -0.0654,0.5704 -0.1962,0.8108 -0.1308,0.2403 -0.3149,0.4335 -0.5537,0.5795 0.3119,0.1126 0.5583,0.3058 0.7378,0.5765 0.1795,0.2723 0.2692,0.6069 0.2692,1.0055 0,0.3955 -0.0806,0.7423 -0.2419,1.0404 -0.1627,0.2981 -0.3787,0.5157 -0.6479,0.651 -0.2708,0.1354 -0.6419,0.2023 -1.115,0.2023l-2.0413 0zm0.7088 -3.7875l1.1591 0c0.3027,0 0.5187,-0.0213 0.6465,-0.0624 0.184,-0.0623 0.3255,-0.1673 0.4243,-0.3148 0.1004,-0.1461 0.1506,-0.3468 0.1506,-0.5994 0,-0.2342 -0.0456,-0.4304 -0.1369,-0.5856 -0.0897,-0.1566 -0.2099,-0.2631 -0.3605,-0.324 -0.1506,-0.0593 -0.4198,-0.0882 -0.8092,-0.0882l-1.0739 0 0 1.9744zm0 3.0164l1.3325 0c0.2936,0 0.5111,-0.0259 0.651,-0.0807 0.2023,-0.076 0.356,-0.2038 0.4609,-0.3802 0.105,-0.1765 0.1582,-0.3986 0.1582,-0.6663 0,-0.2464 -0.0502,-0.4548 -0.1521,-0.6267 -0.1004,-0.1704 -0.2358,-0.2951 -0.4077,-0.3742 -0.1703,-0.0791 -0.438,-0.1171 -0.8031,-0.1171l-1.2397 0 0 2.2452z"
   id="path3605"
   style="fill:#FF5A14;fill-opacity:1;fill-rule:nonzero;stroke:none" />
    
    

   
 
   
   </svg>
   
