<?xml version="1.0" encoding="UTF-8" standalone="no"?>
<!--
  #%L
  xplan-workspaces - Modul zur Gruppierung aller Workspaces
  %%
  Copyright (C) 2008 - 2022 lat/lon GmbH, info@lat-lon.de, www.lat-lon.de
  %%
  This program is free software: you can redistribute it and/or modify
  it under the terms of the GNU Affero General Public License as published by
  the Free Software Foundation, either version 3 of the License, or
  (at your option) any later version.
  
  This program is distributed in the hope that it will be useful,
  but WITHOUT ANY WARRANTY; without even the implied warranty of
  MERCHANTABILITY or FITNESS FOR A PARTICULAR PURPOSE.  See the
  GNU General Public License for more details.
  
  You should have received a copy of the GNU Affero General Public License
  along with this program.  If not, see <http://www.gnu.org/licenses/>.
  #L%
  -->

<!-- Created with Inkscape (http://www.inkscape.org/) -->

<svg
   xmlns:svg="http://www.w3.org/2000/svg"
   xmlns="http://www.w3.org/2000/svg"
   version="1.1"
   width="177.16534"
   height="177.16534"
   viewBox="0 0 50 50"
   id="svg2"
   xml:space="preserve"><defs
   id="defs11" />
 

   
     
   
   <path   
   d="M31.9004 25.083c0,0.968 -0.1798,1.8599 -0.5393,2.6758 -0.3596,0.8159 -0.8505,1.5212 -1.4728,2.1159 -0.6223,0.5946 -1.3553,1.0579 -2.1988,1.3898 -0.8436,0.3319 -1.7355,0.4978 -2.6759,0.4978 -0.968,0 -1.8669,-0.1659 -2.6966,-0.4978 -0.8298,-0.3319 -1.5489,-0.7952 -2.1573,-1.3898 -0.6085,-0.5947 -1.0856,-1.3 -1.4313,-2.1159 -0.3457,-0.8159 -0.5186,-1.7078 -0.5186,-2.6758 0,-0.9404 0.1659,-1.8255 0.4978,-2.6552 0.3319,-0.8297 0.8021,-1.5626 1.4106,-2.1988 0.6085,-0.6361 1.3276,-1.1409 2.1573,-1.5142 0.8297,-0.3734 1.7424,-0.5601 2.7381,-0.5601 0.9404,0 1.8323,0.1867 2.6759,0.5601 0.8435,0.3733 1.5765,0.8781 2.1988,1.5142 0.6223,0.6362 1.1132,1.3691 1.4728,2.1988 0.3595,0.8297 0.5393,1.7148 0.5393,2.6552z" 
   id="path3605"
   style="fill:#FBFBFB;fill-opacity:1;fill-rule:nonzero;stroke:none" />
   
   
     <path   
   d="M31.9004 25.083c0,-0.9404 -0.1798,-1.8255 -0.5393,-2.6552 -0.3596,-0.8297 -0.8505,-1.5626 -1.4728,-2.1988 -0.6223,-0.6361 -1.3553,-1.1409 -2.1988,-1.5142 -0.8436,-0.3734 -1.7355,-0.5601 -2.6759,-0.5601 -0.9957,0 -1.9084,0.1867 -2.7381,0.5601 -0.8297,0.3733 -1.5488,0.8781 -2.1573,1.5142 -0.6085,0.6362 -1.0787,1.3691 -1.4106,2.1988 -0.3319,0.8297 -0.4978,1.7148 -0.4978,2.6552 0,0.968 0.1729,1.8599 0.5186,2.6758 0.3457,0.8159 0.8228,1.5212 1.4313,2.1159 0.6084,0.5946 1.3275,1.0579 2.1573,1.3898 0.8297,0.3319 1.7286,0.4978 2.6966,0.4978 0.9404,0 1.8323,-0.1659 2.6759,-0.4978 0.8435,-0.3319 1.5765,-0.7952 2.1988,-1.3898 0.6223,-0.5947 1.1132,-1.3 1.4728,-2.1159 0.3595,-0.8159 0.5393,-1.7078 0.5393,-2.6758zm-0.6223 0c0,0.8297 -0.1452,1.6041 -0.4356,2.3232 -0.2904,0.7191 -0.6984,1.3483 -1.2239,1.8876 -0.5255,0.5394 -1.134,0.9681 -1.8254,1.2861 -0.6914,0.3181 -1.4382,0.5048 -2.2403,0.5601l0 -12.4045c0.8021,0.0553 1.5489,0.2628 2.2403,0.6223 0.6914,0.3596 1.2999,0.8297 1.8254,1.4106 0.5255,0.5808 0.9335,1.2376 1.2239,1.9706 0.2904,0.7329 0.4356,1.5004 0.4356,2.3025l0 0.0415z"
   id="path3605"
   style="fill:#823CB4;fill-opacity:1;fill-rule:nonzero;stroke:none" />
   
   
   
   
   
   
   </svg>
