<?xml version="1.0" encoding="UTF-8" standalone="no"?>
<!--
  #%L
  xplan-workspaces - Modul zur Gruppierung aller Workspaces
  %%
  Copyright (C) 2008 - 2022 lat/lon GmbH, info@lat-lon.de, www.lat-lon.de
  %%
  This program is free software: you can redistribute it and/or modify
  it under the terms of the GNU Affero General Public License as published by
  the Free Software Foundation, either version 3 of the License, or
  (at your option) any later version.
  
  This program is distributed in the hope that it will be useful,
  but WITHOUT ANY WARRANTY; without even the implied warranty of
  MERCHANTABILITY or FITNESS FOR A PARTICULAR PURPOSE.  See the
  GNU General Public License for more details.
  
  You should have received a copy of the GNU Affero General Public License
  along with this program.  If not, see <http://www.gnu.org/licenses/>.
  #L%
  -->

<!-- Created with Inkscape (http://www.inkscape.org/) -->

<svg
   xmlns:svg="http://www.w3.org/2000/svg"
   xmlns="http://www.w3.org/2000/svg"
   version="1.1"
   width="177.16534"
   height="177.16534"
   viewBox="0 0 50 50"
   id="svg2"
   xml:space="preserve"><defs
   id="defs11" />
 
   
   <polygon   
   points="41.2349,43.4746 8.8754,43.4746 8.8754,11.3318 41.2349,11.3318 "   
   id="path3604"
   style="fill:#FBFBFB;fill-opacity:1;fill-rule:nonzero;stroke:none" />
     
   
   <path   
   d="M22.9808 43.6274l0 -3.3189 -10.7865 0 0 -10.828 -3.3189 0 0 14.1469 14.1054 0zm14.9352 -3.3189l-10.7865 0 0 3.3189 14.1054 0 0 -14.1054 -3.3189 0 0 10.7865zm3.3189 -29.0406l-14.1054 0 0 3.3189 10.7865 0 0 10.7865 3.3189 0 0 -14.1054zm-29.0406 3.3189l10.7865 0 0 -3.3189 -14.1054 0 0 14.0639 3.3189 0 0 -10.745zm29.0406 -7.4676l0 -0.8297 -32.3595 0 0 0.8297 32.3595 0z"   
   id="path3605"
   style="fill:#000000;fill-opacity:1;fill-rule:nonzero;stroke:none" />
   
   
   <path   
   d="M35.2365 27.6464c0,1.4026 -0.267,2.7213 -0.8007,3.9565 -0.5338,1.235 -1.2613,2.313 -2.1824,3.2341 -0.921,0.9211 -2.0043,1.6485 -3.2498,2.1823 -1.2456,0.5338 -2.58,0.8007 -4.0036,0.8007 -1.4234,0 -2.7527,-0.2616 -3.9877,-0.785 -1.2351,-0.5233 -2.3184,-1.2403 -3.2499,-2.1509 -0.9315,-0.9106 -1.6642,-1.9782 -2.198,-3.2027 -0.5338,-1.2247 -0.8007,-2.5487 -0.8007,-3.9722 0,-1.4234 0.2669,-2.7631 0.8007,-4.0192 0.5338,-1.2559 1.2665,-2.3497 2.198,-3.2812 0.9315,-0.9316 2.0148,-1.6642 3.2499,-2.198 1.235,-0.5339 2.5643,-0.8007 3.9877,-0.8007 1.4236,0 2.758,0.2668 4.0036,0.8007 1.2455,0.5338 2.3288,1.2612 3.2498,2.1822 0.9211,0.9211 1.6486,2.0045 2.1824,3.25 0.5337,1.2455 0.8007,2.58 0.8007,4.0034z"   
   id="path3605"
   style="fill:#FF0000;fill-opacity:1;fill-rule:nonzero;stroke:none" />
    
    
	<path   
   d="M35.258 27.6515c0,-1.4143 -0.2641,-2.748 -0.7922,-4.0012 -0.5281,-1.2531 -1.2576,-2.3496 -2.1885,-3.2895 -0.931,-0.9399 -2.0185,-1.6783 -3.2627,-2.2154 -1.2442,-0.537 -2.5735,-0.8056 -3.9877,-0.8056 -1.4501,0 -2.7973,0.2686 -4.0414,0.8056 -1.2442,0.5371 -2.3318,1.2755 -3.2627,2.2154 -0.9309,0.9399 -1.6604,2.0364 -2.1885,3.2895 -0.5281,1.2532 -0.7922,2.5869 -0.7922,4.0012 0,1.4321 0.2641,2.7703 0.7922,4.0145 0.5281,1.2443 1.2576,2.3228 2.1885,3.2359 0.9309,0.9129 2.0185,1.6335 3.2627,2.1616 1.2441,0.5281 2.5913,0.7922 4.0414,0.7922 1.4142,0 2.7435,-0.2641 3.9877,-0.7922 1.2442,-0.5281 2.3317,-1.2487 3.2627,-2.1616 0.9309,-0.9131 1.6604,-1.9916 2.1885,-3.2359 0.5281,-1.2442 0.7922,-2.5824 0.7922,-4.0145zm-1.7724 -0.0269c0,1.1815 -0.2193,2.296 -0.6579,3.3433 -0.4386,1.0472 -1.0427,1.9558 -1.8125,2.7256 -0.7698,0.7698 -1.6694,1.3784 -2.6988,1.826 -1.0293,0.4475 -2.1348,0.6713 -3.3163,0.6713 -0.1612,0 -0.3178,-0.0045 -0.47,-0.0134 -0.1521,-0.009 -0.2999,-0.0224 -0.4431,-0.0403l-0.5639 -0.0537 -0.6176 -0.1342 -0.4565 -0.1344c-0.8772,-0.2684 -1.6828,-0.6623 -2.4168,-1.1815 -0.734,-0.5192 -1.3696,-1.1323 -1.9066,-1.8394 -0.537,-0.7072 -0.9533,-1.4948 -1.2487,-2.3631 -0.2954,-0.8682 -0.443,-1.7858 -0.443,-2.7525 0,-1.1815 0.2237,-2.2914 0.6713,-3.3298 0.4476,-1.0383 1.0562,-1.9513 1.826,-2.739 0.7698,-0.7877 1.6783,-1.4098 2.7256,-1.8663 1.0473,-0.4565 2.1617,-0.6848 3.3433,-0.6848 0.3759,0 0.7429,0.0269 1.1009,0.0806l0.4297 0.0537 0.6445 0.1342 0.537 0.1612c0.8414,0.2864 1.6157,0.6937 2.3228,1.2218 0.7072,0.5281 1.3159,1.1457 1.826,1.8529 0.5103,0.7071 0.9086,1.4903 1.195,2.3497 0.2865,0.8592 0.4296,1.7633 0.4296,2.7121zm-3.1149 -1.3158l-6.2837 9.8283c-0.555,-0.0537 -1.1009,-0.1612 -1.638,-0.3223l6.0688 -8.4587 -9.3986 1.5038 6.9818 -9.7209c0.3043,0.0358 0.5908,0.085 0.8593,0.1477 0.2686,0.0626 0.5192,0.1298 0.7519,0.2014l-6.6328 8.2976 9.2913 -1.4769z"  
   id="path3604"
   style="fill:#000000;fill-opacity:1;fill-rule:nonzero;stroke:none" />
   

   
   </svg>
