<?xml version="1.0" encoding="UTF-8" standalone="no"?>
<!--
  #%L
  xplan-workspaces - Modul zur Gruppierung aller Workspaces
  %%
  Copyright (C) 2008 - 2022 lat/lon GmbH, info@lat-lon.de, www.lat-lon.de
  %%
  This program is free software: you can redistribute it and/or modify
  it under the terms of the GNU Affero General Public License as published by
  the Free Software Foundation, either version 3 of the License, or
  (at your option) any later version.
  
  This program is distributed in the hope that it will be useful,
  but WITHOUT ANY WARRANTY; without even the implied warranty of
  MERCHANTABILITY or FITNESS FOR A PARTICULAR PURPOSE.  See the
  GNU General Public License for more details.
  
  You should have received a copy of the GNU Affero General Public License
  along with this program.  If not, see <http://www.gnu.org/licenses/>.
  #L%
  -->

<!-- Created with Inkscape (http://www.inkscape.org/) -->

<svg
   xmlns:svg="http://www.w3.org/2000/svg"
   xmlns="http://www.w3.org/2000/svg"
   version="1.1"
   width="177.16534"
   height="177.16534"
   viewBox="0 0 50 50"
   id="svg2"
   xml:space="preserve"><defs
   id="defs11" />
 
   
   <polygon   
   points="38.196,38.1209 11.8575,38.1209 11.8575,11.7824 38.196,11.7824 " 
   id="path3604"
   style="fill:#FBFBFB;fill-opacity:1;fill-rule:nonzero;stroke:none" />
     
   
   
   
   
    
    
	<path   
   d="M38.3308 38.2342l0 -26.5514 -26.5514 0 0 26.5514 26.5514 0zm-2.0743 -2.0743l-22.4028 0 0 -22.4028 22.4028 0 0 22.4028zm-11.4503 -7.2187l0.8712 0 2.4892 -7.7165 -0.7468 0 -1.8254 5.6007c-0.0553,0.2212 -0.1106,0.4356 -0.1659,0.643 -0.0553,0.2075 -0.1106,0.4218 -0.166,0.6431 -0.0553,-0.2213 -0.1106,-0.4356 -0.1659,-0.6431 -0.0553,-0.2074 -0.1245,-0.4218 -0.2074,-0.643l-1.618 -5.6007 -0.9127 0 2.4477 7.7165zm-5.6837 -3.153l0 -0.8712 2.7796 0 0 2.8626c-0.4425,0.3872 -0.9058,0.6983 -1.3898,0.9334 -0.484,0.2351 -0.9472,0.3527 -1.3898,0.3527 -0.9403,0 -1.694,-0.3596 -2.261,-1.0787 -0.567,-0.7191 -0.8505,-1.7009 -0.8505,-2.9455 0,-0.8574 0.1383,-1.5973 0.4149,-2.2196 0.2766,-0.6223 0.65,-1.0855 1.1201,-1.3898 0.249,-0.1383 0.491,-0.2489 0.7261,-0.3319 0.235,-0.0829 0.5185,-0.1244 0.8504,-0.1244 0.7191,0.0553 1.2999,0.2489 1.7425,0.5808 0.4425,0.3319 0.7467,0.8989 0.9127,1.7009l-0.7468 0.2904c-0.1106,-0.4425 -0.242,-0.7675 -0.3941,-0.9749 -0.1521,-0.2074 -0.3665,-0.3803 -0.6431,-0.5186 -0.1382,-0.0829 -0.2834,-0.1313 -0.4356,-0.1452 -0.1521,-0.0138 -0.2973,-0.0207 -0.4356,-0.0207 -0.6638,0 -1.2031,0.2489 -1.6179,0.7467 -0.4149,0.4979 -0.6223,1.2723 -0.6223,2.3233 0,2.0743 0.7467,3.1115 2.2402,3.1115 0.3043,0 0.6431,-0.083 1.0165,-0.2489 0.3733,-0.166 0.6707,-0.3596 0.8919,-0.5808l0 -1.4521 -1.9084 0zm9.5834 3.153l4.9784 0 0 -0.9957 -3.8997 0 0.2489 -0.5393 3.5679 -5.3933 0 -0.9127 -4.5636 0 0 0.9127 3.5264 0c-0.2213,0.2213 -0.4287,0.5394 -0.6223,0.9542l-3.236 4.9369 0 1.0372z"
   id="path3604"
   style="fill:#000000;fill-opacity:1;fill-rule:nonzero;stroke:none" />
   
   
  
   
   </svg>
