<?xml version="1.0" encoding="UTF-8" standalone="no"?>
<!--
  #%L
  xplan-workspaces - Modul zur Gruppierung aller Workspaces
  %%
  Copyright (C) 2008 - 2022 lat/lon GmbH, info@lat-lon.de, www.lat-lon.de
  %%
  This program is free software: you can redistribute it and/or modify
  it under the terms of the GNU Affero General Public License as published by
  the Free Software Foundation, either version 3 of the License, or
  (at your option) any later version.
  
  This program is distributed in the hope that it will be useful,
  but WITHOUT ANY WARRANTY; without even the implied warranty of
  MERCHANTABILITY or FITNESS FOR A PARTICULAR PURPOSE.  See the
  GNU General Public License for more details.
  
  You should have received a copy of the GNU Affero General Public License
  along with this program.  If not, see <http://www.gnu.org/licenses/>.
  #L%
  -->

<!-- Created with Inkscape (http://www.inkscape.org/) -->

<svg
   xmlns:svg="http://www.w3.org/2000/svg"
   xmlns="http://www.w3.org/2000/svg"
   version="1.1"
   width="177.16534"
   height="177.16534"
   viewBox="0 0 50 50"
   id="svg2"
   xml:space="preserve"><defs
   id="defs11" />
 
   
       
   
   <path   
   d="M40.7443 25.0481c0,2.1573 -0.4106,4.1857 -1.2315,6.0854 -0.8211,1.8996 -1.9399,3.5577 -3.3567,4.9744 -1.4166,1.4166 -3.0828,2.5355 -4.9985,3.3565 -1.9158,0.8211 -3.9682,1.2315 -6.1577,1.2315 -2.1894,0 -4.2339,-0.4024 -6.1336,-1.2074 -1.8996,-0.8049 -3.5658,-1.9076 -4.9985,-3.3082 -1.4328,-1.4005 -2.5596,-3.0427 -3.3807,-4.9261 -0.8211,-1.8835 -1.2315,-3.9201 -1.2315,-6.1094 0,-2.1894 0.4104,-4.25 1.2315,-6.1819 0.8211,-1.9317 1.9479,-3.6141 3.3807,-5.0468 1.4327,-1.4328 3.0989,-2.5597 4.9985,-3.3807 1.8997,-0.8211 3.9442,-1.2316 6.1336,-1.2316 2.1895,0 4.2419,0.4105 6.1577,1.2316 1.9157,0.821 3.5819,1.9399 4.9985,3.3565 1.4168,1.4167 2.5356,3.0829 3.3567,4.9986 0.8209,1.9157 1.2315,3.9683 1.2315,6.1576z"  
   id="path3605"
   style="fill:#00A0FF;fill-opacity:1;fill-rule:nonzero;stroke:none" />
   
   
   <path   
   d="M25.1174 9.1728c-2.9318,0 -5.5731,0.6776 -7.924,2.0328 -2.3509,1.3553 -4.2316,3.2083 -5.6422,5.5592l2.2818 1.2861c1.1616,-1.8254 2.7174,-3.3189 4.6673,-4.4805 1.9498,-1.1616 4.1417,-1.7425 6.5756,-1.7425 2.4339,0 4.6257,0.5809 6.5756,1.7425 1.9499,1.1616 3.478,2.7104 4.5843,4.6465l2.4892 -1.2031c-0.6915,-1.1617 -1.5143,-2.2265 -2.4685,-3.1945 -0.9542,-0.968 -2.0121,-1.7908 -3.1737,-2.4685 -1.1616,-0.6776 -2.4131,-1.21 -3.7545,-1.5972 -1.3414,-0.3872 -2.7451,-0.5808 -4.2109,-0.5808zm15.7649 15.8479c0,-1.051 -0.0899,-2.0398 -0.2697,-2.9663 -0.1798,-0.9265 -0.4494,-1.8323 -0.809,-2.7174l-2.4477 1.2031c0.5255,1.3829 0.7883,2.8626 0.7883,4.4391 0,1.7424 -0.3043,3.3742 -0.9127,4.8954 -0.6085,1.5212 -1.4382,2.8626 -2.4892,4.0242 -1.051,1.1616 -2.2956,2.1158 -3.7338,2.8626 -1.4382,0.7467 -2.9871,1.2031 -4.6465,1.369l0 2.6137c2.019,-0.1659 3.9135,-0.6845 5.6836,-1.5557 1.7701,-0.8713 3.312,-2.0121 4.6258,-3.4227 1.3137,-1.4105 2.344,-3.0354 3.0907,-4.8747 0.7468,-1.8392 1.1202,-3.796 1.1202,-5.8703zm-31.6543 0c0,2.0743 0.3665,4.0242 1.0994,5.8496 0.7329,1.8254 1.7493,3.4434 3.0493,4.8539 1.2999,1.4106 2.8349,2.5514 4.605,3.4227 1.7701,0.8712 3.6785,1.3898 5.7251,1.5557l0 -2.5722c-1.6871,-0.1659 -3.2498,-0.6153 -4.688,-1.3483 -1.4382,-0.7329 -2.6897,-1.6802 -3.7545,-2.8418 -1.0648,-1.1616 -1.8946,-2.4961 -2.4892,-4.0035 -0.5946,-1.5073 -0.892,-3.1322 -0.892,-4.8746 0,-1.6318 0.2904,-3.1807 0.8713,-4.6465l-2.3648 -1.3691c-0.7744,1.7978 -1.1616,3.7891 -1.1616,5.9741zm10.6621 -6.389l2.6136 0 0 6.9698c0,0.5531 0.0069,1.0164 0.0208,1.3898 0.0138,0.3734 0.0345,0.6292 0.0622,0.7675 0.1106,0.4978 0.3734,0.9265 0.7882,1.2861 0.3872,0.3042 0.9681,0.4563 1.7425,0.4563 0.7191,0 1.2722,-0.1521 1.6594,-0.4563 0.4149,-0.3043 0.6362,-0.6638 0.6638,-1.0787 0.083,-0.4978 0.1245,-1.2446 0.1245,-2.2402l0 -7.0943 2.6136 0 0 6.7624c0,0.802 -0.0138,1.4796 -0.0415,2.0328 -0.0276,0.5532 -0.0691,0.968 -0.1244,1.2446 -0.0553,0.3319 -0.1521,0.6292 -0.2904,0.892 -0.1383,0.2627 -0.3043,0.5047 -0.4979,0.726 -0.4148,0.4702 -0.9265,0.8159 -1.535,1.0371 -0.3042,0.1383 -0.6707,0.242 -1.0994,0.3112 -0.4287,0.0691 -0.8919,0.1037 -1.3898,0.1037 -1.1892,0 -2.1296,-0.1521 -2.821,-0.4563 -0.3043,-0.1107 -0.5809,-0.2628 -0.8298,-0.4564 -0.2489,-0.1936 -0.4702,-0.401 -0.6638,-0.6223 -0.3872,-0.4702 -0.6223,-0.9542 -0.7052,-1.452 -0.1107,-0.3319 -0.1867,-0.7744 -0.2282,-1.3276 -0.0415,-0.5532 -0.0622,-1.2031 -0.0622,-1.9499l0 -6.8453z"   
   id="path3605"
   style="fill:#000000;fill-opacity:1;fill-rule:nonzero;stroke:none" />
    
  
   
   </svg>
