<?xml version="1.0" encoding="UTF-8" standalone="no"?>
<!--
  #%L
  xplan-workspaces - Modul zur Gruppierung aller Workspaces
  %%
  Copyright (C) 2008 - 2022 lat/lon GmbH, info@lat-lon.de, www.lat-lon.de
  %%
  This program is free software: you can redistribute it and/or modify
  it under the terms of the GNU Affero General Public License as published by
  the Free Software Foundation, either version 3 of the License, or
  (at your option) any later version.
  
  This program is distributed in the hope that it will be useful,
  but WITHOUT ANY WARRANTY; without even the implied warranty of
  MERCHANTABILITY or FITNESS FOR A PARTICULAR PURPOSE.  See the
  GNU General Public License for more details.
  
  You should have received a copy of the GNU Affero General Public License
  along with this program.  If not, see <http://www.gnu.org/licenses/>.
  #L%
  -->

<!-- Created with Inkscape (http://www.inkscape.org/) -->

<svg
   xmlns:svg="http://www.w3.org/2000/svg"
   xmlns="http://www.w3.org/2000/svg"
   version="1.1"
   width="177.16534"
   height="177.16534"
   viewBox="0 0 50 50"
   id="svg2"
   xml:space="preserve"><defs
   id="defs11" />
 
 
     
   
 
   
   <path   
   d="M35.1108 25.0539c0,-1.402 -0.2629,-2.7187 -0.7887,-3.9499 -0.5257,-1.2313 -1.2447,-2.3075 -2.1569,-3.2287 -0.9122,-0.9212 -1.9795,-1.6492 -3.2018,-2.184 -1.2222,-0.5347 -2.5344,-0.8021 -3.9364,-0.8021 -0.9527,0 -1.8627,0.1213 -2.7299,0.364 -0.8673,0.2426 -1.6762,0.5842 -2.4266,1.0245 -0.7505,0.4404 -1.4313,0.9707 -2.0424,1.5908 -0.6112,0.6201 -1.1347,1.3077 -1.5706,2.0626 -0.4359,0.7549 -0.7729,1.5638 -1.0111,2.4266 -0.2381,0.8628 -0.3572,1.7615 -0.3572,2.6962 0,0.9347 0.1191,1.8335 0.3572,2.6962 0.2382,0.8628 0.5752,1.6672 1.0111,2.4131 0.4359,0.746 0.9594,1.4223 1.5706,2.029 0.6111,0.6066 1.2919,1.1256 2.0424,1.557 0.7504,0.4314 1.5593,0.7662 2.4266,1.0044 0.8672,0.2381 1.7772,0.3572 2.7299,0.3572 0.9346,0 1.8311,-0.1191 2.6894,-0.3572 0.8583,-0.2382 1.6605,-0.573 2.4064,-1.0044 0.746,-0.4314 1.4267,-0.9504 2.0424,-1.557 0.6156,-0.6067 1.1414,-1.283 1.5773,-2.029 0.4359,-0.7459 0.7729,-1.5503 1.0111,-2.4131 0.2381,-0.8627 0.3572,-1.7615 0.3572,-2.6962zm-1.6851 -0.0539c0,1.1594 -0.218,2.2491 -0.6539,3.2692 -0.4358,1.02 -1.0313,1.912 -1.7862,2.6759 -0.7549,0.764 -1.6424,1.3684 -2.6625,1.8133 -1.0201,0.4448 -2.1098,0.6673 -3.2692,0.6673 -0.7819,0 -1.5346,-0.0989 -2.2581,-0.2966 -0.7235,-0.1977 -1.3997,-0.4786 -2.0288,-0.8426 -0.6292,-0.364 -1.2021,-0.7999 -1.7189,-1.3076 -0.5168,-0.5078 -0.9571,-1.074 -1.3211,-1.6987 -0.364,-0.6246 -0.6471,-1.2942 -0.8493,-2.0087 -0.2023,-0.7144 -0.3034,-1.4581 -0.3034,-2.2311 0,-1.1503 0.2202,-2.2401 0.6606,-3.2691 0.4404,-1.0291 1.0448,-1.9278 1.8132,-2.6962 0.7684,-0.7684 1.6672,-1.3774 2.6962,-1.8267 1.0291,-0.4494 2.1323,-0.6741 3.3096,-0.6741 1.1594,0 2.2469,0.2225 3.2625,0.6673 1.0155,0.4449 1.903,1.0493 2.6625,1.8133 0.7594,0.7639 1.3571,1.6559 1.7929,2.6759 0.4359,1.0201 0.6539,2.1098 0.6539,3.2692z" 
   id="path3605"
   style="fill:#666666;fill-opacity:1;fill-rule:nonzero;stroke:none" />
    
    

   
   </svg>
