<?xml version="1.0" encoding="UTF-8" standalone="no"?>
<!--
  #%L
  xplan-workspaces - Modul zur Gruppierung aller Workspaces
  %%
  Copyright (C) 2008 - 2022 lat/lon GmbH, info@lat-lon.de, www.lat-lon.de
  %%
  This program is free software: you can redistribute it and/or modify
  it under the terms of the GNU Affero General Public License as published by
  the Free Software Foundation, either version 3 of the License, or
  (at your option) any later version.
  
  This program is distributed in the hope that it will be useful,
  but WITHOUT ANY WARRANTY; without even the implied warranty of
  MERCHANTABILITY or FITNESS FOR A PARTICULAR PURPOSE.  See the
  GNU General Public License for more details.
  
  You should have received a copy of the GNU Affero General Public License
  along with this program.  If not, see <http://www.gnu.org/licenses/>.
  #L%
  -->

<!-- Created with Inkscape (http://www.inkscape.org/) -->

<svg
   xmlns:svg="http://www.w3.org/2000/svg"
   xmlns="http://www.w3.org/2000/svg"
   version="1.1"
   width="177.16534"
   height="177.16534"
   viewBox="0 0 50 50"
   id="svg2"
   xml:space="preserve"><defs
   id="defs11" />
 
   
   <polygon   
   points="36.2014,34.1271 36.2014,15.873 13.7986,15.873 13.7986,34.1271 " 
   id="path3604"
   style="fill:#FBFBFB;fill-opacity:1;fill-rule:nonzero;stroke:none" />
     
   
   <path   
   d="M36.2014 34.1271l-22.4028 0 0 -18.2541 22.4028 0 0 18.2541zm-1.6595 -1.6595l0 -14.9351 -19.0838 0 0 14.9351 19.0838 0z" 
   id="path3605"
   style="fill:#FF0000;fill-opacity:1;fill-rule:nonzero;stroke:none" />
   
   
   <path   
   d="M25.1488 28.9105l-0.772 0 0 -5.9905c-0.1783,0.2086 -0.4172,0.4207 -0.7167,0.64 -0.2995,0.2175 -0.5741,0.3816 -0.8255,0.4921l0 -0.9075c0.4261,-0.2443 0.8005,-0.542 1.1268,-0.8932 0.3245,-0.353 0.5545,-0.6953 0.6864,-1.0305l0.501 0 0 7.6896z"   
   id="path3605"
   style="fill:#FF0000;fill-opacity:1;fill-rule:nonzero;stroke:none" />
    
    
	<path   
   d="M27.2761 25.0033c0,-1.2854 0.173,-2.2589 0.5206,-2.9203 0.3459,-0.6615 0.8576,-0.9931 1.5333,-0.9931 0.5991,0 1.0698,0.2692 1.4156,0.8059 0.4172,0.6471 0.6258,1.683 0.6258,3.1075 0,1.2784 -0.1729,2.2482 -0.517,2.9115 -0.3441,0.6632 -0.8558,0.9948 -1.5351,0.9948 -0.599,0 -1.0893,-0.2924 -1.4708,-0.8771 -0.3816,-0.5848 -0.5724,-1.594 -0.5724,-3.0292zm0.7899 0c0,1.2427 0.1194,2.0753 0.3565,2.4996 0.2389,0.4226 0.5456,0.6347 0.9182,0.6347 0.3513,0 0.6454,-0.2139 0.8826,-0.6436 0.2353,-0.4279 0.3548,-1.2587 0.3548,-2.4907 0,-1.2462 -0.1195,-2.0806 -0.3584,-2.5014 -0.2389,-0.4225 -0.5474,-0.6329 -0.9271,-0.6329 -0.3477,0 -0.6401,0.214 -0.8754,0.6419 -0.2336,0.4296 -0.3512,1.2587 -0.3512,2.4924z"  
   id="path3604"
   style="fill:#FF0000;fill-opacity:1;fill-rule:nonzero;stroke:none" />
   
   
   <path   
   d="M20.9432 28.9102l-0.772 0 0 -5.9905c-0.1783,0.2086 -0.4172,0.4207 -0.7167,0.64 -0.2995,0.2175 -0.5741,0.3816 -0.8255,0.4921l0 -0.9075c0.4261,-0.2443 0.8005,-0.542 1.1268,-0.8932 0.3245,-0.353 0.5545,-0.6953 0.6864,-1.0305l0.501 0 0 7.6896z" 
   id="path3604"
   style="fill:#FF1900;fill-opacity:1;fill-rule:nonzero;stroke:none" />
   
   </svg>
