<?xml version="1.0" encoding="UTF-8" standalone="no"?>
<!--
  #%L
  xplan-workspaces - Modul zur Gruppierung aller Workspaces
  %%
  Copyright (C) 2008 - 2022 lat/lon GmbH, info@lat-lon.de, www.lat-lon.de
  %%
  This program is free software: you can redistribute it and/or modify
  it under the terms of the GNU Affero General Public License as published by
  the Free Software Foundation, either version 3 of the License, or
  (at your option) any later version.
  
  This program is distributed in the hope that it will be useful,
  but WITHOUT ANY WARRANTY; without even the implied warranty of
  MERCHANTABILITY or FITNESS FOR A PARTICULAR PURPOSE.  See the
  GNU General Public License for more details.
  
  You should have received a copy of the GNU Affero General Public License
  along with this program.  If not, see <http://www.gnu.org/licenses/>.
  #L%
  -->

<!-- Created with Inkscape (http://www.inkscape.org/) -->

<svg
   xmlns:svg="http://www.w3.org/2000/svg"
   xmlns="http://www.w3.org/2000/svg"
   version="1.1"
   width="177.16534"
   height="177.16534"
   viewBox="0 0 50 50"
   id="svg2"
   xml:space="preserve"><defs
   id="defs11" />
 
   
     
   <path   
  d="M33.6013 24.9886c0,1.1715 -0.223,2.2731 -0.6688,3.3047 -0.4459,1.0316 -1.0535,1.9321 -1.8229,2.7014 -0.7693,0.7693 -1.6741,1.3769 -2.7145,1.8228 -1.0404,0.4459 -2.155,0.6688 -3.344,0.6688 -1.1889,0 -2.2992,-0.2185 -3.3308,-0.6557 -1.0316,-0.4371 -1.9365,-1.036 -2.7145,-1.7965 -0.7781,-0.7606 -1.3901,-1.6524 -1.836,-2.6752 -0.4458,-1.0229 -0.6687,-2.1288 -0.6687,-3.3178 0,-1.1889 0.2229,-2.308 0.6687,-3.3571 0.4459,-1.049 1.0579,-1.9627 1.836,-2.7407 0.778,-0.7781 1.6829,-1.3901 2.7145,-1.8359 1.0316,-0.4459 2.1419,-0.6688 3.3308,-0.6688 1.189,0 2.3036,0.2229 3.344,0.6688 1.0404,0.4458 1.9452,1.0534 2.7145,1.8227 0.7694,0.7694 1.377,1.6743 1.8229,2.7146 0.4458,1.0403 0.6688,2.155 0.6688,3.3439z"  
   id="path3605"
   style="fill:#FBFBFB;fill-opacity:1;fill-rule:nonzero;stroke:none" />
   
   
   <path   
   d="M33.7466 24.9377c0,1.2446 -0.2213,2.3924 -0.6638,3.4434 -0.4425,1.051 -1.0579,1.9637 -1.8462,2.7381 -0.7882,0.7744 -1.7147,1.3829 -2.7796,1.8254 -1.0648,0.4425 -2.2057,0.6638 -3.4226,0.6638 -1.2446,0 -2.3924,-0.2213 -3.4434,-0.6638 -1.051,-0.4425 -1.9637,-1.051 -2.7381,-1.8254 -0.7744,-0.7744 -1.3829,-1.6871 -1.8254,-2.7381 -0.4425,-1.051 -0.6638,-2.1988 -0.6638,-3.4434 0,-1.1893 0.2074,-2.3025 0.6223,-3.3397 0.4149,-1.0371 1.0095,-1.9498 1.7839,-2.7381 0.7744,-0.7882 1.6871,-1.4105 2.7381,-1.8669 1.051,-0.4563 2.2265,-0.6845 3.5264,-0.6845 1.2169,0 2.3578,0.2282 3.4226,0.6845 1.0649,0.4564 1.9914,1.0787 2.7796,1.8669 0.7883,0.7883 1.4037,1.701 1.8462,2.7381 0.4425,1.0372 0.6638,2.1504 0.6638,3.3397zm-0.8297 0c0,-1.0787 -0.2075,-2.0882 -0.6223,-3.0285 -0.4149,-0.9404 -0.975,-1.7632 -1.6803,-2.4685 -0.7052,-0.7052 -1.535,-1.2653 -2.4891,-1.6802 -0.9542,-0.4148 -1.9707,-0.6223 -3.0493,-0.6223 -1.0787,0 -2.102,0.1867 -3.07,0.5601 -0.968,0.3734 -1.8116,0.8989 -2.5307,1.5765 -0.7191,0.6776 -1.2861,1.5004 -1.701,2.4684 -0.4148,0.9681 -0.6223,2.0329 -0.6223,3.1945 0,1.1063 0.2075,2.1435 0.6223,3.1115 0.4149,0.968 0.9819,1.8116 1.701,2.5307 0.7191,0.7191 1.5557,1.2861 2.5099,1.7009 0.9542,0.4149 1.9845,0.6223 3.0908,0.6223 1.0786,0 2.0951,-0.2074 3.0493,-0.6223 0.9541,-0.4148 1.7839,-0.9818 2.4891,-1.7009 0.7053,-0.7191 1.2654,-1.5627 1.6803,-2.5307 0.4148,-0.968 0.6223,-2.0052 0.6223,-3.1115zm-8.7537 5.8496l0 -11.4503 1.7424 0 0 11.4503 -1.7424 0z"  
   id="path3605"
   style="fill:#823CB4;fill-opacity:1;fill-rule:nonzero;stroke:none" />
    
    
	
   
   </svg>
