<?xml version="1.0" encoding="UTF-8" standalone="no"?>
<!--
  #%L
  xplan-workspaces - Modul zur Gruppierung aller Workspaces
  %%
  Copyright (C) 2008 - 2022 lat/lon GmbH, info@lat-lon.de, www.lat-lon.de
  %%
  This program is free software: you can redistribute it and/or modify
  it under the terms of the GNU Affero General Public License as published by
  the Free Software Foundation, either version 3 of the License, or
  (at your option) any later version.
  
  This program is distributed in the hope that it will be useful,
  but WITHOUT ANY WARRANTY; without even the implied warranty of
  MERCHANTABILITY or FITNESS FOR A PARTICULAR PURPOSE.  See the
  GNU General Public License for more details.
  
  You should have received a copy of the GNU Affero General Public License
  along with this program.  If not, see <http://www.gnu.org/licenses/>.
  #L%
  -->

<!-- Created with Inkscape (http://www.inkscape.org/) -->

<svg
   xmlns:svg="http://www.w3.org/2000/svg"
   xmlns="http://www.w3.org/2000/svg"
   version="1.1"
   width="177.16534"
   height="177.16534"
   viewBox="0 0 50 50"
   id="svg2"
   xml:space="preserve"><defs
   id="defs11" />
 

     
   
   <path   
   d="M38.5798 24.9999c0,1.8531 -0.3527,3.5955 -1.0579,5.2274 -0.7053,1.6318 -1.6664,3.0561 -2.8834,4.2731 -1.2169,1.2169 -2.6482,2.178 -4.2938,2.8833 -1.6457,0.7053 -3.4088,1.0579 -5.2896,1.0579 -1.8807,0 -3.637,-0.3457 -5.2688,-1.0372 -1.6318,-0.6914 -3.0631,-1.6387 -4.2938,-2.8418 -1.2308,-1.2031 -2.1988,-2.6137 -2.9041,-4.2316 -0.7053,-1.618 -1.0579,-3.3674 -1.0579,-5.2481 0,-1.8807 0.3526,-3.6508 1.0579,-5.3103 0.7053,-1.6594 1.6733,-3.1046 2.9041,-4.3353 1.2307,-1.2308 2.662,-2.1988 4.2938,-2.9041 1.6318,-0.7053 3.3881,-1.0579 5.2688,-1.0579 1.8808,0 3.6439,0.3526 5.2896,1.0579 1.6456,0.7053 3.0769,1.6664 4.2938,2.8833 1.217,1.217 2.1781,2.6483 2.8834,4.2939 0.7052,1.6456 1.0579,3.4088 1.0579,5.2895z" 
   id="path3605"
   style="fill:#FBFBFB;fill-opacity:1;fill-rule:nonzero;stroke:none" />
   
   
   <path   
   d="M39.1191 24.9999c0,-1.936 -0.3664,-3.7683 -1.0994,-5.4969 -0.7329,-1.7286 -1.7355,-3.2291 -3.0078,-4.5013 -1.2722,-1.2723 -2.7588,-2.2818 -4.4598,-3.0286 -1.7009,-0.7467 -3.5194,-1.1201 -5.4555,-1.1201 -2.0466,0 -3.9343,0.3734 -5.6629,1.1201 -1.7286,0.7468 -3.2152,1.7563 -4.4598,3.0286 -1.2446,1.2722 -2.2195,2.7727 -2.9248,4.5013 -0.7053,1.7286 -1.0579,3.5609 -1.0579,5.4969 0,1.9914 0.3665,3.8376 1.0994,5.5385 0.7329,1.701 1.7286,3.1876 2.987,4.4598 1.2585,1.2723 2.7451,2.2679 4.4598,2.987 1.7148,0.7191 3.5679,1.0787 5.5592,1.0787 1.9361,0 3.7546,-0.3596 5.4555,-1.0787 1.701,-0.7191 3.1876,-1.7147 4.4598,-2.987 1.2723,-1.2722 2.2749,-2.7588 3.0078,-4.4598 0.733,-1.7009 1.0994,-3.5471 1.0994,-5.5385zm-1.2031 -0.0829c0,1.7701 -0.3319,3.4364 -0.9957,4.9991 -0.6638,1.5627 -1.5765,2.9317 -2.7381,4.1072 -1.1616,1.1754 -2.5168,2.102 -4.0657,2.7796 -1.5488,0.6776 -3.2083,1.0164 -4.9784,1.0164 -1.7701,0 -3.4364,-0.3388 -4.9991,-1.0164 -1.5627,-0.6776 -2.9317,-1.6042 -4.1072,-2.7796 -1.1754,-1.1755 -2.102,-2.5445 -2.7796,-4.1072 -0.6776,-1.5627 -1.0164,-3.229 -1.0164,-4.9991 0,-1.9361 0.3457,-3.6854 1.0372,-5.2481 0.6914,-1.5626 1.6249,-2.904 2.8003,-4.0242 1.1755,-1.1201 2.5445,-1.9844 4.1072,-2.5929 1.5626,-0.6085 3.2152,-0.9127 4.9576,-0.9127 1.7701,0 3.4296,0.3388 4.9784,1.0164 1.5489,0.6776 2.9041,1.5973 4.0657,2.7589 1.1616,1.1616 2.0743,2.5168 2.7381,4.0657 0.6638,1.5488 0.9957,3.1944 0.9957,4.9369z" 
   id="path3605"
   style="fill:#000000;fill-opacity:1;fill-rule:nonzero;stroke:none" />
    
    

   
   </svg>
