<?xml version="1.0" encoding="UTF-8" standalone="no"?>
<!--
  #%L
  xplan-workspaces - Modul zur Gruppierung aller Workspaces
  %%
  Copyright (C) 2008 - 2022 lat/lon GmbH, info@lat-lon.de, www.lat-lon.de
  %%
  This program is free software: you can redistribute it and/or modify
  it under the terms of the GNU Affero General Public License as published by
  the Free Software Foundation, either version 3 of the License, or
  (at your option) any later version.
  
  This program is distributed in the hope that it will be useful,
  but WITHOUT ANY WARRANTY; without even the implied warranty of
  MERCHANTABILITY or FITNESS FOR A PARTICULAR PURPOSE.  See the
  GNU General Public License for more details.
  
  You should have received a copy of the GNU Affero General Public License
  along with this program.  If not, see <http://www.gnu.org/licenses/>.
  #L%
  -->

<!-- Created with Inkscape (http://www.inkscape.org/) -->

<svg
   xmlns:svg="http://www.w3.org/2000/svg"
   xmlns="http://www.w3.org/2000/svg"
   version="1.1"
   width="177.16534"
   height="177.16534"
   viewBox="0 0 50 50"
   id="svg2"
   xml:space="preserve"><defs
   id="defs11" />
 
   
   <polygon   
   points="38.7457,32.4261 11.3645,32.4261 11.3645,17.4909 38.7457,17.4909 " 
   id="path3604"
   style="fill:#FBFBFB;fill-opacity:1;fill-rule:nonzero;stroke:none" />
     
   
   <path   
   d="M38.7457 17.4909l-12.4875 0 0 2.4892 9.9983 0 0 3.7753 2.4892 0 0 -6.2645zm0 14.9352l0 -6.1815 -2.4892 0 0 3.6923 -9.9983 0 0 2.4892 12.4875 0zm-24.892 -6.223l-2.4892 0 0 6.223 12.4045 0 0 -2.4892 -9.9153 0 0 -3.7338zm-2.4892 -2.4892l2.4892 0 0 -3.7338 9.9153 0 0 -2.4892 -12.4045 0 0 6.223zm15.7649 -2.4892l0 4.3561c0,0.968 -0.1521,1.6042 -0.4563,1.9084 -0.3319,0.3319 -0.8298,0.4978 -1.4936,0.4978 -0.4148,0 -0.7605,-0.0829 -1.0371,-0.2489 -0.2766,-0.1936 -0.4564,-0.4149 -0.5394,-0.6638 -0.1382,-0.3595 -0.2074,-0.8574 -0.2074,-1.4935l0 -4.3561 -0.9542 0 0 4.3561c0,1.2999 0.2489,2.1573 0.7468,2.5722 0.4702,0.4702 1.1478,0.7053 2.0328,0.7053 0.6915,0 1.2723,-0.1245 1.7425,-0.3734 0.4148,-0.3043 0.7121,-0.6776 0.8919,-1.1202 0.1798,-0.4425 0.2697,-1.0371 0.2697,-1.7839l0 -4.3561 -0.9957 0z"  
   id="path3605"
   style="fill:#FF0000;fill-opacity:1;fill-rule:nonzero;stroke:none" />
   
   
  
   
   </svg>
