<?xml version="1.0" encoding="UTF-8" standalone="no"?>
<!--
  #%L
  xplan-workspaces - Modul zur Gruppierung aller Workspaces
  %%
  Copyright (C) 2008 - 2022 lat/lon GmbH, info@lat-lon.de, www.lat-lon.de
  %%
  This program is free software: you can redistribute it and/or modify
  it under the terms of the GNU Affero General Public License as published by
  the Free Software Foundation, either version 3 of the License, or
  (at your option) any later version.
  
  This program is distributed in the hope that it will be useful,
  but WITHOUT ANY WARRANTY; without even the implied warranty of
  MERCHANTABILITY or FITNESS FOR A PARTICULAR PURPOSE.  See the
  GNU General Public License for more details.
  
  You should have received a copy of the GNU Affero General Public License
  along with this program.  If not, see <http://www.gnu.org/licenses/>.
  #L%
  -->

<!-- Created with Inkscape (http://www.inkscape.org/) -->

<svg
   xmlns:svg="http://www.w3.org/2000/svg"
   xmlns="http://www.w3.org/2000/svg"
   version="1.1"
   width="177.16534"
   height="177.16534"
   viewBox="0 0 50 50"
   id="svg2"
   xml:space="preserve"><defs
   id="defs11" />
 

     
   
   <path   
   d="M39.1188 24.9587c0,1.9211 -0.3656,3.7274 -1.0967,5.4192 -0.7312,1.6916 -1.7275,3.1682 -2.9892,4.4298 -1.2615,1.2616 -2.7453,2.2579 -4.4513,2.9891 -1.7061,0.7312 -3.5338,1.0967 -5.4836,1.0967 -1.9497,0 -3.7705,-0.3584 -5.4621,-1.0753 -1.6917,-0.7167 -3.1755,-1.6988 -4.4513,-2.946 -1.276,-1.2472 -2.2795,-2.7096 -3.0107,-4.3868 -0.7312,-1.6774 -1.0967,-3.491 -1.0967,-5.4407 0,-1.9497 0.3655,-3.7847 1.0967,-5.5051 0.7312,-1.7202 1.7347,-3.2185 3.0107,-4.4943 1.2758,-1.276 2.7596,-2.2795 4.4513,-3.0106 1.6916,-0.7312 3.5124,-1.0967 5.4621,-1.0967 1.9498,0 3.7775,0.3655 5.4836,1.0967 1.706,0.7311 3.1898,1.7275 4.4513,2.989 1.2617,1.2617 2.258,2.7455 2.9892,4.4515 0.7311,1.7059 1.0967,3.5338 1.0967,5.4835z"  
   id="path3605"
   style="fill:#00A0FF;fill-opacity:1;fill-rule:nonzero;stroke:none" />
   
   
   <path   
   d="M39.1191 25c0,1.9913 -0.3595,3.8444 -1.0786,5.5592 -0.7191,1.7147 -1.7148,3.2083 -2.9871,4.4805 -1.2722,1.2723 -2.7588,2.2679 -4.4598,2.987 -1.7009,0.7191 -3.5194,1.0787 -5.4555,1.0787 -1.9913,0 -3.8513,-0.3596 -5.5799,-1.0787 -1.7286,-0.7191 -3.2291,-1.7147 -4.5013,-2.987 -1.2723,-1.2722 -2.2679,-2.7658 -2.987,-4.4805 -0.7191,-1.7148 -1.0787,-3.5679 -1.0787,-5.5592 0,-1.9361 0.3596,-3.7684 1.0787,-5.497 0.7191,-1.7286 1.7147,-3.236 2.987,-4.5221 1.2722,-1.286 2.7727,-2.3025 4.5013,-3.0492 1.7286,-0.7468 3.5886,-1.1202 5.5799,-1.1202 1.9361,0 3.7546,0.3734 5.4555,1.1202 1.701,0.7467 3.1876,1.7632 4.4598,3.0492 1.2723,1.2861 2.268,2.7935 2.9871,4.5221 0.7191,1.7286 1.0786,3.5609 1.0786,5.497zm-1.1616 0c0,-1.7701 -0.3319,-3.4365 -0.9957,-4.9992 -0.6638,-1.5626 -1.5765,-2.9248 -2.7381,-4.0864 -1.1616,-1.1616 -2.5238,-2.0813 -4.0864,-2.7589 -1.5627,-0.6776 -3.2291,-1.0164 -4.9992,-1.0164 -1.7701,0 -3.4364,0.3457 -4.9991,1.0372 -1.5627,0.6914 -2.9248,1.6249 -4.0864,2.8003 -1.1617,1.1755 -2.0813,2.5445 -2.7589,4.1072 -0.6776,1.5627 -1.0164,3.229 -1.0164,4.9991 0,1.7701 0.3388,3.4296 1.0164,4.9784 0.6776,1.5489 1.5972,2.8903 2.7589,4.0242 1.1616,1.134 2.5237,2.0329 4.0864,2.6967 1.5627,0.6637 3.229,0.9956 4.9991,0.9956 1.7701,0 3.4365,-0.3319 4.9992,-0.9956 1.5626,-0.6638 2.9248,-1.5765 4.0864,-2.7382 1.1616,-1.1616 2.0743,-2.5168 2.7381,-4.0657 0.6638,-1.5488 0.9957,-3.2082 0.9957,-4.9783zm-15.8894 -9.7494l7.924 1.9084 1.9083 11.2014 -11.8651 0 2.0328 -13.1098zm0.8712 1.701l-1.6594 10.3716 9.21 0 -1.4935 -9.127 -6.0571 -1.2446zm-5.8496 14.3543l16.1383 0 -7.7995 4.6465 -8.3388 -4.6465z"  
   id="path3605"
   style="fill:#000000;fill-opacity:1;fill-rule:nonzero;stroke:none" />
    
   
   
   </svg>
