<?xml version="1.0" encoding="UTF-8" standalone="no"?>
<!--
  #%L
  xplan-workspaces - Modul zur Gruppierung aller Workspaces
  %%
  Copyright (C) 2008 - 2022 lat/lon GmbH, info@lat-lon.de, www.lat-lon.de
  %%
  This program is free software: you can redistribute it and/or modify
  it under the terms of the GNU Affero General Public License as published by
  the Free Software Foundation, either version 3 of the License, or
  (at your option) any later version.
  
  This program is distributed in the hope that it will be useful,
  but WITHOUT ANY WARRANTY; without even the implied warranty of
  MERCHANTABILITY or FITNESS FOR A PARTICULAR PURPOSE.  See the
  GNU General Public License for more details.
  
  You should have received a copy of the GNU Affero General Public License
  along with this program.  If not, see <http://www.gnu.org/licenses/>.
  #L%
  -->

<!-- Created with Inkscape (http://www.inkscape.org/) -->

<svg
   xmlns:svg="http://www.w3.org/2000/svg"
   xmlns="http://www.w3.org/2000/svg"
   version="1.1"
   width="177.16534"
   height="177.16534"
   viewBox="0 0 50 50"
   id="svg2"
   xml:space="preserve"><defs
   id="defs11" />
 
   
   <path   
   d="M39.5694 24.9608c0,1.9829 -0.3774,3.8473 -1.132,5.5936 -0.7547,1.7461 -1.7831,3.2702 -3.0854,4.5724 -1.3021,1.3022 -2.8337,2.3306 -4.5946,3.0853 -1.761,0.7547 -3.6476,1.132 -5.6601,1.132 -2.0125,0 -3.8918,-0.3699 -5.6379,-1.1099 -1.7461,-0.7398 -3.2777,-1.7535 -4.5946,-3.0408 -1.317,-1.2874 -2.3529,-2.7968 -3.1076,-4.5281 -0.7547,-1.7313 -1.132,-3.6033 -1.132,-5.6157 0,-2.0125 0.3773,-3.9066 1.132,-5.6823 0.7547,-1.7757 1.7906,-3.3221 3.1076,-4.639 1.3169,-1.317 2.8485,-2.3528 4.5946,-3.1076 1.7461,-0.7547 3.6254,-1.132 5.6379,-1.132 2.0125,0 3.8991,0.3773 5.6601,1.132 1.7609,0.7548 3.2925,1.7832 4.5946,3.0853 1.3023,1.3023 2.3307,2.8338 3.0854,4.5947 0.7546,1.7609 1.132,3.6476 1.132,5.6601z"   
   id="path3604"
   style="fill:#FBFBFB;fill-opacity:1;fill-rule:nonzero;stroke:none" />
     
   
   <path   
   d="M39.5754 25.0207c0,-2.019 -0.3734,-3.9274 -1.1201,-5.7251 -0.7468,-1.7978 -1.7632,-3.3604 -3.0493,-4.688 -1.2861,-1.3276 -2.8142,-2.3786 -4.5843,-3.153 -1.77,-0.7744 -3.6646,-1.1616 -5.6836,-1.1616 -2.1297,0 -4.0864,0.3872 -5.8704,1.1616 -1.7839,0.7744 -3.3189,1.8254 -4.605,3.153 -1.2861,1.3276 -2.2956,2.8902 -3.0285,4.688 -0.7329,1.7977 -1.0994,3.7061 -1.0994,5.7251 0,2.0467 0.3734,3.962 1.1201,5.7459 0.7468,1.7839 1.777,3.3328 3.0908,4.6465 1.3137,1.3138 2.8626,2.344 4.6465,3.0908 1.7839,0.7467 3.6992,1.1201 5.7459,1.1201 2.019,0 3.9136,-0.3734 5.6836,-1.1201 1.7701,-0.7468 3.2982,-1.777 4.5843,-3.0908 1.2861,-1.3137 2.3025,-2.8626 3.0493,-4.6465 0.7467,-1.7839 1.1201,-3.6992 1.1201,-5.7459zm-2.2817 0c0,1.7148 -0.3181,3.3189 -0.9542,4.8125 -0.6362,1.4935 -1.5005,2.8003 -2.5929,3.9204 -1.0925,1.1202 -2.3786,2.0052 -3.8583,2.6552 -1.4797,0.6499 -3.0631,0.9749 -4.7502,0.9749 -1.6871,0 -3.2775,-0.325 -4.771,-0.9749 -1.4935,-0.65 -2.7934,-1.535 -3.8997,-2.6552 -1.1063,-1.1201 -1.9845,-2.4269 -2.6344,-3.9204 -0.65,-1.4936 -0.975,-3.0977 -0.975,-4.8125 0,-1.8531 0.325,-3.5333 0.975,-5.0406 0.6499,-1.5074 1.535,-2.8004 2.6551,-3.879 1.1202,-1.0787 2.427,-1.9084 3.9205,-2.4892 1.4935,-0.5808 3.07,-0.8712 4.7295,-0.8712 1.6871,0 3.2705,0.325 4.7502,0.9749 1.4797,0.65 2.7658,1.5281 3.8583,2.6344 1.0924,1.1063 1.9567,2.4062 2.5929,3.8998 0.6361,1.4935 0.9542,3.0838 0.9542,4.7709z"  
   id="path3605"
   style="fill:#FF0000;fill-opacity:1;fill-rule:nonzero;stroke:none" />
   
   
   <path   
   d="M19.4414 31.3868l-4.0626 -12.7735 1.499 0 2.7271 9.279c0.2112,0.7197 0.3926,1.4186 0.5502,2.0907 0.1636,-0.7018 0.348,-1.3978 0.5562,-2.0907l2.8343 -9.279 1.4096 0 -4.0952 12.7735 -1.4186 0z"  
   id="path3605"
   style="fill:#FF0000;fill-opacity:1;fill-rule:nonzero;stroke:none" />
    
    
	<polygon   
   points="29.7674,31.3868 29.7674,20.1212 26.3176,20.1212 26.3176,18.6134 34.6211,18.6134 34.6211,20.1212 31.1533,20.1212 31.1533,31.3868 "  
   id="path3604"
   style="fill:#FF0000;fill-opacity:1;fill-rule:nonzero;stroke:none" />
   
   
  
   
   </svg>
