<?xml version="1.0" encoding="UTF-8" standalone="no"?>
<!--
  #%L
  xplan-workspaces - Modul zur Gruppierung aller Workspaces
  %%
  Copyright (C) 2008 - 2022 lat/lon GmbH, info@lat-lon.de, www.lat-lon.de
  %%
  This program is free software: you can redistribute it and/or modify
  it under the terms of the GNU Affero General Public License as published by
  the Free Software Foundation, either version 3 of the License, or
  (at your option) any later version.
  
  This program is distributed in the hope that it will be useful,
  but WITHOUT ANY WARRANTY; without even the implied warranty of
  MERCHANTABILITY or FITNESS FOR A PARTICULAR PURPOSE.  See the
  GNU General Public License for more details.
  
  You should have received a copy of the GNU Affero General Public License
  along with this program.  If not, see <http://www.gnu.org/licenses/>.
  #L%
  -->

<!-- Created with Inkscape (http://www.inkscape.org/) -->

<svg
   xmlns:svg="http://www.w3.org/2000/svg"
   xmlns="http://www.w3.org/2000/svg"
   version="1.1"
   width="177.16534"
   height="177.16534"
   viewBox="0 0 50 50"
   id="svg2"
   xml:space="preserve"><defs
   id="defs11" />
 

     
   
   <path   
   d="M40.9212 25.0488c0,2.1814 -0.4152,4.2326 -1.2454,6.1537 -0.8302,1.9209 -1.9616,3.5976 -3.3943,5.0303 -1.4325,1.4325 -3.1175,2.5639 -5.0547,3.3942 -1.9373,0.8303 -4.0128,1.2454 -6.2269,1.2454 -2.2139,0 -4.2815,-0.407 -6.2024,-1.221 -1.921,-0.814 -3.6059,-1.9291 -5.0547,-3.3454 -1.4489,-1.4163 -2.5884,-3.0769 -3.4187,-4.9814 -0.8303,-1.9048 -1.2453,-3.9642 -1.2453,-6.1781 0,-2.214 0.415,-4.2977 1.2453,-6.2513 0.8303,-1.9535 1.9698,-3.6547 3.4187,-5.1035 1.4488,-1.4489 3.1337,-2.5885 5.0547,-3.4187 1.9209,-0.8303 3.9885,-1.2454 6.2024,-1.2454 2.2141,0 4.2896,0.4151 6.2269,1.2454 1.9372,0.8302 3.6222,1.9617 5.0547,3.3942 1.4327,1.4326 2.5641,3.1176 3.3943,5.0548 0.8302,1.9372 1.2454,4.0128 1.2454,6.2268z"  
   id="path3605"
   style="fill:#823CB4;fill-opacity:1;fill-rule:nonzero;stroke:none" />
   
   
   <path   
   d="M40.903 25.0415c0,2.2126 -0.408,4.28 -1.2239,6.2022 -0.8159,1.9223 -1.9429,3.5886 -3.3811,4.9992 -1.4383,1.4105 -3.1185,2.5237 -5.0407,3.3396 -1.9222,0.8159 -3.9758,1.2239 -6.1607,1.2239 -2.2403,0 -4.3216,-0.408 -6.2438,-1.2239 -1.9222,-0.8159 -3.6024,-1.9291 -5.0406,-3.3396 -1.4382,-1.4106 -2.5652,-3.0769 -3.3811,-4.9992 -0.8159,-1.9222 -1.2239,-3.9896 -1.2239,-6.2022 0,-2.185 0.408,-4.2455 1.2239,-6.1815 0.8159,-1.9361 1.9429,-3.6301 3.3811,-5.0821 1.4382,-1.4521 3.1184,-2.5929 5.0406,-3.4227 1.9222,-0.8297 4.0035,-1.2446 6.2438,-1.2446 2.1849,0 4.2385,0.4149 6.1607,1.2446 1.9222,0.8298 3.6024,1.9706 5.0407,3.4227 1.4382,1.452 2.5652,3.146 3.3811,5.0821 0.8159,1.936 1.2239,3.9965 1.2239,6.1815zm-2.7382 -0.0415c0,-1.8254 -0.3388,-3.5471 -1.0164,-5.1651 -0.6776,-1.618 -1.611,-3.0216 -2.8003,-4.2109 -1.1893,-1.1892 -2.5791,-2.1296 -4.1694,-2.8211 -1.5903,-0.6914 -3.2982,-1.0371 -5.1236,-1.0371 -1.8254,0 -3.5471,0.3526 -5.1651,1.0579 -1.618,0.7053 -3.0216,1.6664 -4.2109,2.8833 -1.1893,1.2169 -2.1296,2.6275 -2.8211,4.2316 -0.6914,1.6042 -1.0371,3.319 -1.0371,5.1444 0,1.8254 0.3457,3.5402 1.0371,5.1443 0.6915,1.6042 1.6318,3.0009 2.8211,4.1902 1.1893,1.1892 2.5929,2.1227 4.2109,2.8003 1.618,0.6776 3.3397,1.0164 5.1651,1.0164 1.8254,0 3.5333,-0.3457 5.1236,-1.0371 1.5903,-0.6915 2.9801,-1.6318 4.1694,-2.8211 1.1893,-1.1893 2.1227,-2.5929 2.8003,-4.2109 0.6776,-1.618 1.0164,-3.3397 1.0164,-5.1651zm-13.4831 11.3258l-0.4978 -0.3733 -0.2075 -0.083 -0.0415 -0.1245 -0.2904 -2.4892 -3.4019 0 -0.3733 0 0 -0.3319 0.2074 -1.5764 0 -0.3734 0.3734 0 3.153 0 -0.3734 -7.8825 -7.0528 0 -0.2489 0 -0.1244 -0.3319 -0.9542 -3.6093 -0.1245 -0.4149 0.4979 -0.0415 8.0484 -0.0414 0.3319 -3.153 0.0414 -0.166 0.083 -0.0829 1.0372 -0.7883 0.1659 -0.2074 0.2904 0.2074 0.9957 0.7883 0.1245 0.0829 0 0.166 0.3319 3.153 8.2558 0 0.4978 0 -0.1244 0.4978 -1.0787 3.6508 -0.0415 0.2904 -0.2904 0 -7.2186 0 -0.3319 7.8825 3.1115 0 0.3733 0 0.0415 0.3319 0.2075 1.6179 0.0414 0.3319 -0.3733 0 -3.4849 0 -0.5393 2.5307 0 0.166 -0.1245 0.0829 -0.4978 0.2904 -0.2075 0.083 -0.2074 -0.083z" 
   id="path3605"
   style="fill:#000000;fill-opacity:1;fill-rule:nonzero;stroke:none" />
    
 
   
   </svg>
