<?xml version="1.0" encoding="UTF-8" standalone="no"?>
<!--
  #%L
  xplan-workspaces - Modul zur Gruppierung aller Workspaces
  %%
  Copyright (C) 2008 - 2022 lat/lon GmbH, info@lat-lon.de, www.lat-lon.de
  %%
  This program is free software: you can redistribute it and/or modify
  it under the terms of the GNU Affero General Public License as published by
  the Free Software Foundation, either version 3 of the License, or
  (at your option) any later version.
  
  This program is distributed in the hope that it will be useful,
  but WITHOUT ANY WARRANTY; without even the implied warranty of
  MERCHANTABILITY or FITNESS FOR A PARTICULAR PURPOSE.  See the
  GNU General Public License for more details.
  
  You should have received a copy of the GNU Affero General Public License
  along with this program.  If not, see <http://www.gnu.org/licenses/>.
  #L%
  -->

<!-- Created with Inkscape (http://www.inkscape.org/) -->

<svg
   xmlns:svg="http://www.w3.org/2000/svg"
   xmlns="http://www.w3.org/2000/svg"
   version="1.1"
   width="177.16534"
   height="177.16534"
   viewBox="0 0 50 50"
   id="svg2"
   xml:space="preserve"><defs
   id="defs11" />
 
   
       
   
   <path   
   d="M49.852 25.0761c0,3.4052 -0.6481,6.6069 -1.9439,9.6056 -1.2961,2.9984 -3.0621,5.6156 -5.2984,7.8519 -2.2361,2.2361 -4.8661,4.0022 -7.89,5.2982 -3.024,1.296 -6.2638,1.9439 -9.7198,1.9439 -3.4558,0 -6.6831,-0.6352 -9.6816,-1.9059 -2.9985,-1.2705 -5.6285,-3.0112 -7.89,-5.2219 -2.2616,-2.2107 -4.0403,-4.8027 -5.3363,-7.7757 -1.296,-2.9731 -1.944,-6.1877 -1.944,-9.6435 0,-3.4559 0.648,-6.7085 1.944,-9.7579 1.296,-3.0492 3.0747,-5.7048 5.3363,-7.9662 2.2615,-2.2617 4.8915,-4.0404 7.89,-5.3364 2.9985,-1.296 6.2258,-1.9439 9.6816,-1.9439 3.456,0 6.6958,0.6479 9.7198,1.9439 3.0239,1.296 5.6539,3.0621 7.89,5.2981 2.2363,2.2363 4.0023,4.8664 5.2984,7.8902 1.2958,3.0239 1.9439,6.2638 1.9439,9.7196z"   
   id="path3605"
   style="fill:#00A0FF;fill-opacity:1;fill-rule:nonzero;stroke:none" />
   
   
   <path   
   d="M25.1796 0.1495c2.3233,0 4.5359,0.2973 6.6379,0.892 2.102,0.5946 4.0657,1.4313 5.8911,2.5099 1.8254,1.0787 3.4849,2.3786 4.9784,3.8998 1.4935,1.5211 2.7796,3.1944 3.8582,5.0198l-3.8167 1.9084c-0.8851,-1.5211 -1.9499,-2.8971 -3.1945,-4.1279 -1.2446,-1.2308 -2.6206,-2.2887 -4.1279,-3.1737 -1.5074,-0.8851 -3.1323,-1.5696 -4.8747,-2.0536 -1.7424,-0.484 -3.554,-0.726 -5.4347,-0.726 -1.8808,0 -3.6785,0.2351 -5.3933,0.7053 -1.7148,0.4701 -3.3328,1.1408 -4.8539,2.0121 -1.5212,0.8712 -2.9041,1.9153 -4.1487,3.1322 -1.2446,1.2169 -2.3232,2.5583 -3.2359,4.0242l-3.6094 -2.1573c1.0787,-1.7701 2.3717,-3.3881 3.879,-4.8539 1.5074,-1.4659 3.1668,-2.7174 4.9784,-3.7546 1.8116,-1.0371 3.7684,-1.8392 5.8704,-2.4062 2.102,-0.567 4.3007,-0.8505 6.5963,-0.8505zm24.726 24.892c0,3.2913 -0.5877,6.3889 -1.7631,9.293 -1.1755,2.904 -2.7865,5.4555 -4.8332,7.6543 -2.0467,2.1988 -4.4598,3.9827 -7.2394,5.3517 -2.7796,1.3691 -5.7598,2.1781 -8.9404,2.427l0 -4.1072c2.5998,-0.2489 5.0268,-0.9611 7.2809,-2.1365 2.2541,-1.1755 4.2109,-2.6828 5.8704,-4.5221 1.6594,-1.8392 2.9662,-3.955 3.9204,-6.3474 0.9542,-2.3924 1.4313,-4.9438 1.4313,-7.6543 0,-2.3509 -0.401,-4.688 -1.2031,-7.0112l3.8168 -1.8669c1.1063,2.7381 1.6594,5.7113 1.6594,8.9196zm-49.7009 0c0,-1.6595 0.159,-3.2636 0.4771,-4.8125 0.3181,-1.5488 0.7675,-3.07 1.3483,-4.5635l3.6508 2.1988c-0.885,2.4339 -1.3275,4.8678 -1.3275,7.3016 0,2.7105 0.4771,5.2481 1.4312,7.6128 0.9542,2.3648 2.2611,4.4529 3.9205,6.2645 1.6595,1.8116 3.6232,3.2982 5.8911,4.4598 2.268,1.1616 4.7157,1.8807 7.3432,2.1573l0 4.0657c-3.236,-0.2766 -6.2438,-1.0994 -9.0234,-2.4684 -2.7796,-1.3691 -5.1858,-3.153 -7.2186,-5.3518 -2.0329,-2.1988 -3.6232,-4.7364 -4.771,-7.6128 -1.1478,-2.8764 -1.7217,-5.9602 -1.7217,-9.2515zm41.4866 7.4261c0,1.3552 -0.4771,2.5929 -1.4313,3.713 -0.9542,1.1202 -2.261,2.0813 -3.9205,2.8834 -1.3552,0.6637 -2.9248,1.1892 -4.7087,1.5764 -1.7839,0.3873 -3.6854,0.6085 -5.7044,0.6638l0 1.3276 -1.9499 0 0 -1.3276c-1.9913,-0.0553 -3.8513,-0.2765 -5.5799,-0.6638 -1.7286,-0.3872 -3.2567,-0.9127 -4.5843,-1.5764 -1.6595,-0.8021 -2.9663,-1.7632 -3.9205,-2.8834 -0.9542,-1.1201 -1.4313,-2.3578 -1.4313,-3.713l3.5264 0c0,0.6361 0.2904,1.2515 0.8712,1.8461 0.5808,0.5947 1.3967,1.1548 2.4477,1.6802 1.1063,0.4979 2.3578,0.9128 3.7546,1.2446 1.3967,0.3319 2.9248,0.5532 4.5842,0.6638l0 -19.7476 -4.8539 0 0 -1.8669 4.8539 0 0 -0.7053 -3.153 0 0 -1.9083 3.153 0 0 -1.3276c-0.2212,-0.083 -0.3457,-0.2074 -0.3733,-0.3734 -0.4979,-0.4425 -0.7468,-1.0233 -0.7468,-1.7424 0,-0.7191 0.2489,-1.3553 0.7468,-1.9084 0.4701,-0.4702 1.0648,-0.7053 1.7839,-0.7053 0.6914,0 1.3137,0.2351 1.8669,0.7053 0.2212,0.2766 0.401,0.567 0.5393,0.8712 0.1383,0.3042 0.2074,0.65 0.2074,1.0372 0,0.6638 -0.2489,1.2446 -0.7467,1.7424 -0.083,0.1383 -0.1798,0.2351 -0.2904,0.2904 -0.1107,0.0553 -0.2075,0.1106 -0.2904,0.166l0 1.2446 2.987 0 0 1.9083 -2.987 0 0 0.7053 4.3561 0 0 1.8669 -4.3561 0 0 19.7476c1.6594,-0.1106 3.2152,-0.3249 4.6672,-0.643 1.452,-0.3181 2.7174,-0.7399 3.796,-1.2654 1.051,-0.5254 1.8877,-1.0855 2.51,-1.6802 0.6223,-0.5946 0.9334,-1.21 0.9334,-1.8461l3.4434 0z" 
   id="path3605"
   style="fill:#000000;fill-opacity:1;fill-rule:nonzero;stroke:none" />
    
    

   
   </svg>
