<?xml version="1.0" encoding="UTF-8" standalone="no"?>
<!--
  #%L
  xplan-workspaces - Modul zur Gruppierung aller Workspaces
  %%
  Copyright (C) 2008 - 2022 lat/lon GmbH, info@lat-lon.de, www.lat-lon.de
  %%
  This program is free software: you can redistribute it and/or modify
  it under the terms of the GNU Affero General Public License as published by
  the Free Software Foundation, either version 3 of the License, or
  (at your option) any later version.
  
  This program is distributed in the hope that it will be useful,
  but WITHOUT ANY WARRANTY; without even the implied warranty of
  MERCHANTABILITY or FITNESS FOR A PARTICULAR PURPOSE.  See the
  GNU General Public License for more details.
  
  You should have received a copy of the GNU Affero General Public License
  along with this program.  If not, see <http://www.gnu.org/licenses/>.
  #L%
  -->

<!-- Created with Inkscape (http://www.inkscape.org/) -->

<svg
   xmlns:svg="http://www.w3.org/2000/svg"
   xmlns="http://www.w3.org/2000/svg"
   version="1.1"
   width="177.16534"
   height="177.16534"
   viewBox="0 0 50 50"
   id="svg2"
   xml:space="preserve"><defs
   id="defs11" />
 
   
       
   
   <path   
   d="M49.852 25.0761c0,3.4052 -0.6481,6.6069 -1.9439,9.6056 -1.2961,2.9984 -3.0621,5.6156 -5.2984,7.8519 -2.2361,2.2361 -4.8661,4.0022 -7.89,5.2982 -3.024,1.296 -6.2638,1.9439 -9.7198,1.9439 -3.4558,0 -6.6831,-0.6352 -9.6816,-1.9059 -2.9985,-1.2705 -5.6285,-3.0112 -7.89,-5.2219 -2.2616,-2.2107 -4.0403,-4.8027 -5.3363,-7.7757 -1.296,-2.9731 -1.944,-6.1877 -1.944,-9.6435 0,-3.4559 0.648,-6.7085 1.944,-9.7579 1.296,-3.0492 3.0747,-5.7048 5.3363,-7.9662 2.2615,-2.2617 4.8915,-4.0404 7.89,-5.3364 2.9985,-1.296 6.2258,-1.9439 9.6816,-1.9439 3.456,0 6.6958,0.6479 9.7198,1.9439 3.0239,1.296 5.6539,3.0621 7.89,5.2981 2.2363,2.2363 4.0023,4.8664 5.2984,7.8902 1.2958,3.0239 1.9439,6.2638 1.9439,9.7196z"   
   id="path3605"
   style="fill:#823CB4;fill-opacity:1;fill-rule:nonzero;stroke:none" />
   
   
   <path   
   d="M25.1796 0.1495c-2.2956,0 -4.4943,0.2835 -6.5963,0.8505 -2.102,0.567 -4.0588,1.3691 -5.8704,2.4062 -1.8116,1.0372 -3.471,2.2887 -4.9784,3.7546 -1.5073,1.4658 -2.8003,3.0838 -3.879,4.8539l3.6094 2.1573c0.9127,-1.4659 1.9913,-2.8073 3.2359,-4.0242 1.2446,-1.2169 2.6275,-2.261 4.1487,-3.1322 1.5211,-0.8713 3.1391,-1.542 4.8539,-2.0121 1.7148,-0.4702 3.5125,-0.7053 5.3933,-0.7053 1.8807,0 3.6923,0.242 5.4347,0.726 1.7424,0.484 3.3673,1.1685 4.8747,2.0536 1.5073,0.885 2.8833,1.9429 4.1279,3.1737 1.2446,1.2308 2.3094,2.6068 3.1945,4.1279l3.8167 -1.9084c-1.0786,-1.8254 -2.3647,-3.4987 -3.8582,-5.0198 -1.4935,-1.5212 -3.153,-2.8211 -4.9784,-3.8998 -1.8254,-1.0786 -3.7891,-1.9153 -5.8911,-2.5099 -2.102,-0.5947 -4.3146,-0.892 -6.6379,-0.892zm24.726 24.892c0,-3.236 -0.5531,-6.2092 -1.6594,-8.9196l-3.8168 1.8669c0.8021,2.3509 1.2031,4.6879 1.2031,7.0112 0,2.7105 -0.4771,5.2619 -1.4313,7.6543 -0.9542,2.3924 -2.261,4.5082 -3.9204,6.3474 -1.6595,1.8393 -3.6163,3.3466 -5.8704,4.5221 -2.2541,1.1754 -4.6811,1.8876 -7.2809,2.1365l0 4.1072c3.1806,-0.2489 6.1608,-1.0579 8.9404,-2.427 2.7796,-1.369 5.1927,-3.1529 7.2394,-5.3517 2.0467,-2.1988 3.6577,-4.7503 4.8332,-7.6543 1.1754,-2.9041 1.7631,-6.0017 1.7631,-9.293zm-49.7009 0c0,3.2913 0.5739,6.3751 1.7217,9.2515 1.1478,2.8764 2.7381,5.414 4.771,7.6128 2.0328,2.1988 4.439,3.9827 7.2186,5.3518 2.7796,1.369 5.7874,2.1918 9.0234,2.4684l0 -4.0657c-2.6275,-0.2766 -5.0752,-0.9957 -7.3432,-2.1573 -2.2679,-1.1616 -4.2316,-2.6482 -5.8911,-4.4598 -1.6594,-1.8116 -2.9663,-3.8997 -3.9205,-6.2645 -0.9541,-2.3647 -1.4312,-4.9023 -1.4312,-7.6128 0,-2.3785 0.4425,-4.8124 1.3275,-7.3016l-3.6508 -2.1988c-0.5808,1.4935 -1.0302,3.0147 -1.3483,4.5635 -0.3181,1.5489 -0.4771,3.153 -0.4771,4.8125zm23.2325 0.4149l-15.5575 4.356c-0.2766,0.0277 -0.4563,-0.0691 -0.5393,-0.2904 0,-0.1659 0.0138,-0.2627 0.0415,-0.2904l3.5678 -5.3932c0.0553,-0.0553 0.0968,-0.1245 0.1245,-0.2075l9.9568 -4.4805 0.0415 0 2.3647 -0.8297 0.4149 -10.2057c0,-0.083 0.0276,-0.1522 0.0829,-0.2075l1.1202 -1.4105c0.1383,-0.2489 0.318,-0.2628 0.5393,-0.0415 0,0 0.0069,0.0069 0.0207,0.0207 0.0139,0.0139 0.0346,0.0484 0.0623,0.1037l0.9127 1.3276c0.0276,0.0277 0.0415,0.0968 0.0415,0.2075l0.3319 10.1642 2.2402 0.7467c0.0277,0 0.0484,0.0069 0.0623,0.0208 0.0138,0.0138 0.0484,0.0207 0.1037,0.0207l10.0812 4.7295c0.083,0.0276 0.1383,0.083 0.166,0.1659l3.6923 5.3933c0.1659,0.2213 0.1244,0.3872 -0.1245,0.4978 -0.1383,0.083 -0.2489,0.1107 -0.3319,0.083l-15.8479 -4.4805 -0.2904 10.828 5.1859 2.3647c0.1383,0.0553 0.2074,0.1798 0.2074,0.3734l0.4149 2.0328c0.0276,0.166 -0.083,0.2904 -0.3319,0.3734l-0.1245 0 -5.4762 -0.8297 -0.3734 1.452c-0.0277,0.0276 -0.0415,0.0691 -0.0415,0.1245l-0.5393 1.0786c-0.0553,0.083 -0.1383,0.1452 -0.2489,0.1867 -0.1107,0.0415 -0.2075,0.0346 -0.2904,-0.0207 -0.0277,-0.083 -0.083,-0.1383 -0.166,-0.166l-0.7467 -1.0372c0,-0.0553 -0.007,-0.0968 -0.0208,-0.1244 -0.0138,-0.0277 -0.0207,-0.0553 -0.0207,-0.083l-0.249 -1.4105 -5.6836 0.9127c-0.083,0.0553 -0.1729,0.0484 -0.2697,-0.0208 -0.0968,-0.0691 -0.1728,-0.159 -0.2282,-0.2696l0 -0.1245 0.4979 -2.3232c0,-0.0554 0.0207,-0.0969 0.0622,-0.1245 0.0415,-0.0277 0.0761,-0.0553 0.1037,-0.083l5.4763 -2.2817 -0.4149 -10.828z"  
   id="path3605"
   style="fill:#000000;fill-opacity:1;fill-rule:nonzero;stroke:none" />
    
    

   
   </svg>
