<?xml version="1.0" encoding="UTF-8" standalone="no"?>
<!--
  #%L
  xplan-workspaces - Modul zur Gruppierung aller Workspaces
  %%
  Copyright (C) 2008 - 2022 lat/lon GmbH, info@lat-lon.de, www.lat-lon.de
  %%
  This program is free software: you can redistribute it and/or modify
  it under the terms of the GNU Affero General Public License as published by
  the Free Software Foundation, either version 3 of the License, or
  (at your option) any later version.
  
  This program is distributed in the hope that it will be useful,
  but WITHOUT ANY WARRANTY; without even the implied warranty of
  MERCHANTABILITY or FITNESS FOR A PARTICULAR PURPOSE.  See the
  GNU General Public License for more details.
  
  You should have received a copy of the GNU Affero General Public License
  along with this program.  If not, see <http://www.gnu.org/licenses/>.
  #L%
  -->

<!-- Created with Inkscape (http://www.inkscape.org/) -->

<svg
   xmlns:svg="http://www.w3.org/2000/svg"
   xmlns="http://www.w3.org/2000/svg"
   version="1.1"
   width="177.16534"
   height="177.16534"
   viewBox="0 0 50 50"
   id="svg2"
   xml:space="preserve"><defs
   id="defs11" />
 
   
   <polygon   
   points="41.0714,43.4746 9.0037,43.4746 9.0037,11.3321 41.0714,11.3321 "  
   id="path3604"
   style="fill:#AA50AA;fill-opacity:1;fill-rule:nonzero;stroke:none" />
     
   
   <path   
   d="M41.2349 43.6274l0 -32.3595 -32.3595 0 0 32.3595 32.3595 0zm-3.3189 -3.3189l-25.7217 0 0 -25.7217 25.7217 0 0 25.7217zm3.3189 -33.1893l-32.3595 0 0 -0.8297 32.3595 0 0 0.8297z"  
   id="path3605"
   style="fill:#000000;fill-opacity:1;fill-rule:nonzero;stroke:none" />
   
   
   <path   
   d="M25.5486 28.6328l0 -1.6465 5.9543 -0.0098 0 5.2145c-0.9133,0.73 -1.856,1.2767 -2.8282,1.6465 -0.9722,0.3666 -1.9706,0.55 -2.9919,0.55 -1.3814,0 -2.6383,-0.2946 -3.7644,-0.8871 -1.1293,-0.5892 -1.9804,-1.4468 -2.5565,-2.5631 -0.5761,-1.1195 -0.8642,-2.3699 -0.8642,-3.7513 0,-1.3683 0.2881,-2.6449 0.8609,-3.8299 0.5696,-1.1882 1.3945,-2.0688 2.4682,-2.6449 1.0736,-0.5729 2.311,-0.8609 3.712,-0.8609 1.0147,0 1.9346,0.1637 2.7562,0.4943 0.8216,0.3273 1.4665,0.7856 1.9313,1.3748 0.4681,0.5892 0.8216,1.3552 1.0671,2.3012l-1.6792 0.4616c-0.2128,-0.7169 -0.4747,-1.28 -0.7856,-1.6891 -0.3143,-0.4092 -0.7627,-0.7365 -1.3454,-0.982 -0.5794,-0.2455 -1.2275,-0.3699 -1.9346,-0.3699 -0.8511,0 -1.5876,0.1309 -2.2062,0.3895 -0.622,0.2586 -1.1196,0.599 -1.5026,1.0213 -0.3797,0.4223 -0.6743,0.8838 -0.8871,1.3912 -0.3567,0.8674 -0.5368,1.8102 -0.5368,2.8282 0,1.2537 0.2161,2.3012 0.6481,3.1458 0.4321,0.8445 1.0606,1.4697 1.8855,1.8789 0.8249,0.4092 1.6989,0.6154 2.6253,0.6154 0.8085,0 1.5941,-0.1571 2.3601,-0.4681 0.7693,-0.3077 1.3487,-0.6383 1.7447,-0.9919l0 -2.6187 -4.131 0z"  
   id="path3605"
   style="fill:#000000;fill-opacity:1;fill-rule:nonzero;stroke:none" />
    
    

   
   </svg>
