<?xml version="1.0" encoding="UTF-8" standalone="no"?>
<!--
  #%L
  xplan-workspaces - Modul zur Gruppierung aller Workspaces
  %%
  Copyright (C) 2008 - 2022 lat/lon GmbH, info@lat-lon.de, www.lat-lon.de
  %%
  This program is free software: you can redistribute it and/or modify
  it under the terms of the GNU Affero General Public License as published by
  the Free Software Foundation, either version 3 of the License, or
  (at your option) any later version.
  
  This program is distributed in the hope that it will be useful,
  but WITHOUT ANY WARRANTY; without even the implied warranty of
  MERCHANTABILITY or FITNESS FOR A PARTICULAR PURPOSE.  See the
  GNU General Public License for more details.
  
  You should have received a copy of the GNU Affero General Public License
  along with this program.  If not, see <http://www.gnu.org/licenses/>.
  #L%
  -->

<!-- Created with Inkscape (http://www.inkscape.org/) -->

<svg
   xmlns:svg="http://www.w3.org/2000/svg"
   xmlns="http://www.w3.org/2000/svg"
   version="1.1"
   width="177.16534"
   height="177.16534"
   viewBox="0 0 50 50"
   id="svg2"
   xml:space="preserve"><defs
   id="defs11" />
 
   
       
   
   <path   
   d="M40.7443 25.0481c0,2.1573 -0.4106,4.1857 -1.2315,6.0854 -0.8211,1.8996 -1.9399,3.5577 -3.3567,4.9744 -1.4166,1.4166 -3.0828,2.5355 -4.9985,3.3565 -1.9158,0.8211 -3.9682,1.2315 -6.1577,1.2315 -2.1894,0 -4.2339,-0.4024 -6.1336,-1.2074 -1.8996,-0.8049 -3.5658,-1.9076 -4.9985,-3.3082 -1.4328,-1.4005 -2.5596,-3.0427 -3.3807,-4.9261 -0.8211,-1.8835 -1.2315,-3.9201 -1.2315,-6.1094 0,-2.1894 0.4104,-4.25 1.2315,-6.1819 0.8211,-1.9317 1.9479,-3.6141 3.3807,-5.0468 1.4327,-1.4328 3.0989,-2.5597 4.9985,-3.3807 1.8997,-0.8211 3.9442,-1.2316 6.1336,-1.2316 2.1895,0 4.2419,0.4105 6.1577,1.2316 1.9157,0.821 3.5819,1.9399 4.9985,3.3565 1.4168,1.4167 2.5356,3.0829 3.3567,4.9986 0.8209,1.9157 1.2315,3.9683 1.2315,6.1576z"  
   id="path3605"
   style="fill:#00A0FF;fill-opacity:1;fill-rule:nonzero;stroke:none" />
   
   
   <path   
   d="M40.903 25.0415c0,2.2126 -0.408,4.28 -1.2239,6.2022 -0.8159,1.9223 -1.9429,3.5886 -3.3811,4.9992 -1.4383,1.4105 -3.1185,2.5237 -5.0407,3.3396 -1.9222,0.8159 -3.9758,1.2239 -6.1607,1.2239 -2.2403,0 -4.3216,-0.408 -6.2438,-1.2239 -1.9222,-0.8159 -3.6024,-1.9291 -5.0406,-3.3396 -1.4382,-1.4106 -2.5652,-3.0769 -3.3811,-4.9992 -0.8159,-1.9222 -1.2239,-3.9896 -1.2239,-6.2022 0,-2.185 0.408,-4.2455 1.2239,-6.1815 0.8159,-1.9361 1.9429,-3.6301 3.3811,-5.0821 1.4382,-1.4521 3.1184,-2.5929 5.0406,-3.4227 1.9222,-0.8297 4.0035,-1.2446 6.2438,-1.2446 2.1849,0 4.2385,0.4149 6.1607,1.2446 1.9222,0.8298 3.6024,1.9706 5.0407,3.4227 1.4382,1.452 2.5652,3.146 3.3811,5.0821 0.8159,1.936 1.2239,3.9965 1.2239,6.1815zm-2.7382 -0.0415c0,-1.8254 -0.3388,-3.5471 -1.0164,-5.1651 -0.6776,-1.618 -1.611,-3.0216 -2.8003,-4.2109 -1.1893,-1.1892 -2.5791,-2.1296 -4.1694,-2.8211 -1.5903,-0.6914 -3.2982,-1.0371 -5.1236,-1.0371 -1.8254,0 -3.5471,0.3526 -5.1651,1.0579 -1.618,0.7053 -3.0216,1.6664 -4.2109,2.8833 -1.1893,1.2169 -2.1296,2.6275 -2.8211,4.2316 -0.6914,1.6042 -1.0371,3.319 -1.0371,5.1444 0,1.8254 0.3457,3.5402 1.0371,5.1443 0.6915,1.6042 1.6318,3.0009 2.8211,4.1902 1.1893,1.1892 2.5929,2.1227 4.2109,2.8003 1.618,0.6776 3.3397,1.0164 5.1651,1.0164 1.8254,0 3.5333,-0.3457 5.1236,-1.0371 1.5903,-0.6915 2.9801,-1.6318 4.1694,-2.8211 1.1893,-1.1893 2.1227,-2.5929 2.8003,-4.2109 0.6776,-1.618 1.0164,-3.3397 1.0164,-5.1651zm-18.1711 -6.4719l2.6137 0 0 6.9697c0,0.5532 0.0069,1.0165 0.0207,1.3898 0.0138,0.3734 0.0346,0.6293 0.0622,0.7675 0.1107,0.4979 0.3734,0.9266 0.7883,1.2861 0.3872,0.3043 0.968,0.4564 1.7424,0.4564 0.7191,0 1.2723,-0.1521 1.6595,-0.4564 0.4149,-0.3042 0.6361,-0.6638 0.6638,-1.0786 0.083,-0.4979 0.1244,-1.2446 0.1244,-2.2403l0 -7.0942 2.6137 0 0 6.7623c0,0.8021 -0.0138,1.4797 -0.0415,2.0329 -0.0277,0.5531 -0.0691,0.968 -0.1245,1.2446 -0.0553,0.3318 -0.1521,0.6292 -0.2904,0.8919 -0.1382,0.2628 -0.3042,0.5048 -0.4978,0.726 -0.4149,0.4702 -0.9265,0.8159 -1.535,1.0372 -0.3042,0.1383 -0.6707,0.242 -1.0994,0.3111 -0.4287,0.0692 -0.892,0.1038 -1.3898,0.1038 -1.1893,0 -2.1296,-0.1522 -2.8211,-0.4564 -0.3042,-0.1106 -0.5808,-0.2627 -0.8297,-0.4563 -0.2489,-0.1936 -0.4702,-0.4011 -0.6638,-0.6223 -0.3872,-0.4702 -0.6223,-0.9542 -0.7053,-1.4521 -0.1106,-0.3319 -0.1867,-0.7744 -0.2282,-1.3275 -0.0414,-0.5532 -0.0622,-1.2032 -0.0622,-1.9499l0 -6.8453z"   
   id="path3605"
   style="fill:#000000;fill-opacity:1;fill-rule:nonzero;stroke:none" />
    
  
   
   </svg>
