<?xml version="1.0" encoding="UTF-8" standalone="no"?>
<!--
  #%L
  xplan-workspaces - Modul zur Gruppierung aller Workspaces
  %%
  Copyright (C) 2008 - 2022 lat/lon GmbH, info@lat-lon.de, www.lat-lon.de
  %%
  This program is free software: you can redistribute it and/or modify
  it under the terms of the GNU Affero General Public License as published by
  the Free Software Foundation, either version 3 of the License, or
  (at your option) any later version.
  
  This program is distributed in the hope that it will be useful,
  but WITHOUT ANY WARRANTY; without even the implied warranty of
  MERCHANTABILITY or FITNESS FOR A PARTICULAR PURPOSE.  See the
  GNU General Public License for more details.
  
  You should have received a copy of the GNU Affero General Public License
  along with this program.  If not, see <http://www.gnu.org/licenses/>.
  #L%
  -->

<!-- Created with Inkscape (http://www.inkscape.org/) -->

<svg
   xmlns:svg="http://www.w3.org/2000/svg"
   xmlns="http://www.w3.org/2000/svg"
   version="1.1"
   width="177.16534"
   height="177.16534"
   viewBox="0 0 50 50"
   id="svg2"
   xml:space="preserve"><defs
   id="defs11" />
 
   
   <polygon   
   points="36.2014,34.1271 36.2014,15.873 13.7986,15.873 13.7986,34.1271 " 
   id="path3604"
   style="fill:#FBFBFB;fill-opacity:1;fill-rule:nonzero;stroke:none" />
     
   
   <path   
   d="M36.2014 34.1271l-22.4028 0 0 -18.2541 22.4028 0 0 18.2541zm-1.6595 -1.6595l0 -14.9351 -19.0838 0 0 14.9351 19.0838 0z" 
   id="path3605"
   style="fill:#FF0000;fill-opacity:1;fill-rule:nonzero;stroke:none" />
   
   
   <path   
   d="M17.8131 26.7555l0.7738 -0.1248c0.1604,1.002 0.5652,1.5048 1.2159,1.5048 0.353,0 0.6579,-0.1498 0.9146,-0.4475 0.2586,-0.2978 0.3869,-0.6829 0.3869,-1.1571 0,-0.4458 -0.1176,-0.8041 -0.3548,-1.0751 -0.2371,-0.2728 -0.5277,-0.4083 -0.8736,-0.4083 -0.1462,0 -0.3263,0.0357 -0.542,0.1052l0.0892 -0.8255 0.1194 0.0107c0.3798,0 0.6882,-0.1177 0.9253,-0.3512 0.2354,-0.2318 0.3548,-0.5438 0.3548,-0.9342 0,-0.3584 -0.0998,-0.6472 -0.2977,-0.8647 -0.1997,-0.2176 -0.4404,-0.3263 -0.7256,-0.3263 -0.2978,0 -0.5474,0.1141 -0.7506,0.3423 -0.2033,0.2282 -0.3334,0.5741 -0.3887,1.0376l-0.7684 -0.1676c0.098,-0.6543 0.3173,-1.1499 0.6578,-1.4833 0.3424,-0.3352 0.7542,-0.5028 1.2392,-0.5028 0.5081,0 0.9395,0.189 1.2943,0.5652 0.3548,0.3762 0.5331,0.8486 0.5331,1.4209 0,0.3477 -0.0749,0.6561 -0.2264,0.9236 -0.1516,0.2692 -0.3637,0.4796 -0.6347,0.6329 0.2496,0.0695 0.4564,0.1836 0.6204,0.3441 0.164,0.1605 0.296,0.3744 0.3976,0.6436 0.1016,0.2675 0.1516,0.567 0.1516,0.8968 0,0.7043 -0.2069,1.2801 -0.6223,1.7276 -0.4136,0.4475 -0.9092,0.6704 -1.4887,0.6704 -0.5349,0 -0.9895,-0.1943 -1.3621,-0.5848 -0.3726,-0.3904 -0.5848,-0.9146 -0.6383,-1.5725z"   
   id="path3605"
   style="fill:#FF0000;fill-opacity:1;fill-rule:nonzero;stroke:none" />
    
    
	<path   
   d="M24.1726 24.6297c-0.3084,-0.139 -0.5438,-0.3387 -0.7025,-0.599 -0.1586,-0.2585 -0.2371,-0.5812 -0.2371,-0.9681 0,-0.5812 0.1712,-1.0555 0.5153,-1.421 0.3423,-0.3655 0.7738,-0.5491 1.2926,-0.5491 0.5224,0 0.9556,0.1872 1.3033,0.5598 0.3458,0.3726 0.5188,0.8522 0.5188,1.4424 0,0.369 -0.0767,0.681 -0.23,0.936 -0.1533,0.2567 -0.3851,0.4564 -0.6936,0.599 0.378,0.1498 0.6704,0.3923 0.8737,0.7257 0.205,0.3352 0.3066,0.7488 0.3066,1.2426 0,0.6829 -0.1979,1.2392 -0.5937,1.6688 -0.3958,0.4315 -0.8843,0.6454 -1.4709,0.6454 -0.5919,0 -1.084,-0.2139 -1.4798,-0.6454 -0.3958,-0.4296 -0.5937,-0.9948 -0.5937,-1.6937 0,-0.5117 0.1052,-0.9342 0.3174,-1.2676 0.2104,-0.3317 0.501,-0.5581 0.8736,-0.6758zm-0.1462 -1.5939c0,0.3762 0.0999,0.6758 0.2978,0.8986 0.1996,0.2229 0.4421,0.3352 0.7309,0.3352 0.2835,0 0.5224,-0.1105 0.7221,-0.3298 0.1979,-0.2193 0.2977,-0.5028 0.2977,-0.8505 0,-0.3601 -0.1016,-0.6525 -0.3066,-0.8807 -0.2033,-0.2282 -0.4439,-0.3423 -0.7221,-0.3423 -0.2799,0 -0.5188,0.1123 -0.7185,0.3351 -0.2014,0.2229 -0.3013,0.501 -0.3013,0.8344zm-0.2549 3.5373c0,0.4689 0.1265,0.8486 0.3779,1.1357 0.2532,0.287 0.5545,0.4314 0.9057,0.4314 0.3566,0 0.6579,-0.139 0.904,-0.4189 0.2478,-0.2782 0.3708,-0.6508 0.3708,-1.1179 0,-0.4689 -0.1266,-0.8487 -0.3815,-1.1357 -0.2532,-0.2871 -0.5581,-0.4315 -0.9129,-0.4315 -0.353,0 -0.6507,0.1427 -0.8968,0.4297 -0.2442,0.2853 -0.3672,0.6543 -0.3672,1.1072z" 
   id="path3604"
   style="fill:#FF0000;fill-opacity:1;fill-rule:nonzero;stroke:none" />
   
   
   <path   
   d="M28.0915 25.0059c0,-1.2854 0.173,-2.2589 0.5206,-2.9203 0.3459,-0.6615 0.8576,-0.9931 1.5333,-0.9931 0.5991,0 1.0698,0.2692 1.4156,0.8059 0.4172,0.6471 0.6258,1.683 0.6258,3.1075 0,1.2784 -0.1729,2.2482 -0.517,2.9115 -0.3441,0.6632 -0.8558,0.9948 -1.5351,0.9948 -0.599,0 -1.0893,-0.2924 -1.4708,-0.8771 -0.3816,-0.5848 -0.5724,-1.594 -0.5724,-3.0292zm0.7899 0c0,1.2427 0.1194,2.0753 0.3565,2.4996 0.2389,0.4226 0.5456,0.6347 0.9182,0.6347 0.3513,0 0.6454,-0.2139 0.8826,-0.6436 0.2353,-0.4279 0.3548,-1.2587 0.3548,-2.4907 0,-1.2462 -0.1195,-2.0806 -0.3584,-2.5014 -0.2389,-0.4225 -0.5474,-0.6329 -0.9271,-0.6329 -0.3477,0 -0.6401,0.214 -0.8754,0.6419 -0.2336,0.4296 -0.3512,1.2587 -0.3512,2.4924z"
   id="path3604"
   style="fill:#FF1900;fill-opacity:1;fill-rule:nonzero;stroke:none" />
   
   </svg>
