<?xml version="1.0" encoding="UTF-8" standalone="no"?>
<!--
  #%L
  xplan-workspaces - Modul zur Gruppierung aller Workspaces
  %%
  Copyright (C) 2008 - 2022 lat/lon GmbH, info@lat-lon.de, www.lat-lon.de
  %%
  This program is free software: you can redistribute it and/or modify
  it under the terms of the GNU Affero General Public License as published by
  the Free Software Foundation, either version 3 of the License, or
  (at your option) any later version.
  
  This program is distributed in the hope that it will be useful,
  but WITHOUT ANY WARRANTY; without even the implied warranty of
  MERCHANTABILITY or FITNESS FOR A PARTICULAR PURPOSE.  See the
  GNU General Public License for more details.
  
  You should have received a copy of the GNU Affero General Public License
  along with this program.  If not, see <http://www.gnu.org/licenses/>.
  #L%
  -->

<!-- Created with Inkscape (http://www.inkscape.org/) -->

<svg
   xmlns:svg="http://www.w3.org/2000/svg"
   xmlns="http://www.w3.org/2000/svg"
   version="1.1"
   width="177.16534"
   height="177.16534"
   viewBox="0 0 50 50"
   id="svg2"
   xml:space="preserve"><defs
   id="defs11" />
 

     
   
   <path   
   d="M38.5798 24.9999c0,1.8531 -0.3527,3.5955 -1.0579,5.2274 -0.7053,1.6318 -1.6664,3.0561 -2.8834,4.2731 -1.2169,1.2169 -2.6482,2.178 -4.2938,2.8833 -1.6457,0.7053 -3.4088,1.0579 -5.2896,1.0579 -1.8807,0 -3.637,-0.3457 -5.2688,-1.0372 -1.6318,-0.6914 -3.0631,-1.6387 -4.2938,-2.8418 -1.2308,-1.2031 -2.1988,-2.6137 -2.9041,-4.2316 -0.7053,-1.618 -1.0579,-3.3674 -1.0579,-5.2481 0,-1.8807 0.3526,-3.6508 1.0579,-5.3103 0.7053,-1.6594 1.6733,-3.1046 2.9041,-4.3353 1.2307,-1.2308 2.662,-2.1988 4.2938,-2.9041 1.6318,-0.7053 3.3881,-1.0579 5.2688,-1.0579 1.8808,0 3.6439,0.3526 5.2896,1.0579 1.6456,0.7053 3.0769,1.6664 4.2938,2.8833 1.217,1.217 2.1781,2.6483 2.8834,4.2939 0.7052,1.6456 1.0579,3.4088 1.0579,5.2895z" 
   id="path3605"
   style="fill:#FBFBFB;fill-opacity:1;fill-rule:nonzero;stroke:none" />
   
   
   <path   
   d="M39.5754 25.0207c0,-2.019 -0.3734,-3.9274 -1.1201,-5.7251 -0.7468,-1.7978 -1.7632,-3.3604 -3.0493,-4.688 -1.2861,-1.3276 -2.8142,-2.3786 -4.5843,-3.153 -1.77,-0.7744 -3.6646,-1.1616 -5.6836,-1.1616 -2.1297,0 -4.0864,0.3872 -5.8704,1.1616 -1.7839,0.7744 -3.3189,1.8254 -4.605,3.153 -1.2861,1.3276 -2.2956,2.8902 -3.0285,4.688 -0.7329,1.7977 -1.0994,3.7061 -1.0994,5.7251 0,2.0467 0.3734,3.962 1.1201,5.7459 0.7468,1.7839 1.777,3.3328 3.0908,4.6465 1.3137,1.3138 2.8626,2.344 4.6465,3.0908 1.7839,0.7467 3.6992,1.1201 5.7459,1.1201 2.019,0 3.9136,-0.3734 5.6836,-1.1201 1.7701,-0.7468 3.2982,-1.777 4.5843,-3.0908 1.2861,-1.3137 2.3025,-2.8626 3.0493,-4.6465 0.7467,-1.7839 1.1201,-3.6992 1.1201,-5.7459zm-2.2817 0c0,1.7148 -0.3181,3.3189 -0.9542,4.8125 -0.6362,1.4935 -1.5005,2.8003 -2.5929,3.9204 -1.0925,1.1202 -2.3786,2.0052 -3.8583,2.6552 -1.4797,0.6499 -3.0631,0.9749 -4.7502,0.9749 -1.6871,0 -3.2775,-0.325 -4.771,-0.9749 -1.4935,-0.65 -2.7934,-1.535 -3.8997,-2.6552 -1.1063,-1.1201 -1.9845,-2.4269 -2.6344,-3.9204 -0.65,-1.4936 -0.975,-3.0977 -0.975,-4.8125 0,-1.8531 0.325,-3.5333 0.975,-5.0406 0.6499,-1.5074 1.535,-2.8004 2.6551,-3.879 1.1202,-1.0787 2.427,-1.9084 3.9205,-2.4892 1.4935,-0.5808 3.07,-0.8712 4.7295,-0.8712 1.6871,0 3.2705,0.325 4.7502,0.9749 1.4797,0.65 2.7658,1.5281 3.8583,2.6344 1.0924,1.1063 1.9567,2.4062 2.5929,3.8998 0.6361,1.4935 0.9542,3.0838 0.9542,4.7709z"  
   id="path3605"
   style="fill:#000000;fill-opacity:1;fill-rule:nonzero;stroke:none" />
    
    

   
   </svg>
