<?xml version="1.0" encoding="UTF-8" standalone="no"?>
<!--
  #%L
  xplan-workspaces - Modul zur Gruppierung aller Workspaces
  %%
  Copyright (C) 2008 - 2022 lat/lon GmbH, info@lat-lon.de, www.lat-lon.de
  %%
  This program is free software: you can redistribute it and/or modify
  it under the terms of the GNU Affero General Public License as published by
  the Free Software Foundation, either version 3 of the License, or
  (at your option) any later version.
  
  This program is distributed in the hope that it will be useful,
  but WITHOUT ANY WARRANTY; without even the implied warranty of
  MERCHANTABILITY or FITNESS FOR A PARTICULAR PURPOSE.  See the
  GNU General Public License for more details.
  
  You should have received a copy of the GNU Affero General Public License
  along with this program.  If not, see <http://www.gnu.org/licenses/>.
  #L%
  -->

<!-- Created with Inkscape (http://www.inkscape.org/) -->

<svg
   xmlns:svg="http://www.w3.org/2000/svg"
   xmlns="http://www.w3.org/2000/svg"
   version="1.1"
   width="177.16534"
   height="177.16534"
   viewBox="0 0 50 50"
   id="svg2"
   xml:space="preserve"><defs
   id="defs11" />
 
   
   <polygon   
   points="12.6091,17.7621 12.6091,32.0186 19.8278,25.52 19.8278,36.0397 30.2409,36.0397 30.2409,25.4387 37.5011,32.0186 37.5011,17.8028 30.2409,24.3827 30.2409,13.6599 19.8278,13.6599 19.8278,24.2609 "  
   id="path3604"
   style="fill:#FBFBFB;fill-opacity:1;fill-rule:nonzero;stroke:none" />
     
   
   <path   
   d="M37.5426 32.0734l0 -14.5618 -7.3431 6.7208 0 -10.7035 -10.4131 0 0 10.828 -7.2187 -6.6794 0 14.5204 7.2187 -6.6379 0 10.828 10.4131 0 0 -11.0354 7.3431 6.7208zm-15.6819 2.1988l0 -18.6275 6.2645 0 0 18.6275 -6.2645 0zm14.4373 -5.2273l-4.8124 -4.2731 4.8124 -4.4806 0 8.7537zm-22.4857 -8.3803l4.8124 4.2731 -4.8124 4.4806 0 -8.7537z"  
   id="path3605"
   style="fill:#000000;fill-opacity:1;fill-rule:nonzero;stroke:none" />
   
   
  
   
   </svg>
