<?xml version="1.0" encoding="UTF-8" standalone="no"?>
<!--
  #%L
  xplan-workspaces - Modul zur Gruppierung aller Workspaces
  %%
  Copyright (C) 2008 - 2022 lat/lon GmbH, info@lat-lon.de, www.lat-lon.de
  %%
  This program is free software: you can redistribute it and/or modify
  it under the terms of the GNU Affero General Public License as published by
  the Free Software Foundation, either version 3 of the License, or
  (at your option) any later version.
  
  This program is distributed in the hope that it will be useful,
  but WITHOUT ANY WARRANTY; without even the implied warranty of
  MERCHANTABILITY or FITNESS FOR A PARTICULAR PURPOSE.  See the
  GNU General Public License for more details.
  
  You should have received a copy of the GNU Affero General Public License
  along with this program.  If not, see <http://www.gnu.org/licenses/>.
  #L%
  -->

<!-- Created with Inkscape (http://www.inkscape.org/) -->

<svg
   xmlns:svg="http://www.w3.org/2000/svg"
   xmlns="http://www.w3.org/2000/svg"
   version="1.1"
   width="177.16534"
   height="177.16534"
   viewBox="0 0 50 50"
   id="svg2"
   xml:space="preserve"><defs
   id="defs11" />
 

   
   
   <path   
   d="M39.5694 24.9697c0,1.9962 -0.3799,3.8732 -1.1396,5.6312 -0.7598,1.7579 -1.7952,3.2922 -3.1062,4.6032 -1.3109,1.3109 -2.8527,2.3463 -4.6255,3.1061 -1.7728,0.7597 -3.6721,1.1396 -5.6982,1.1396 -2.026,0 -3.918,-0.3724 -5.6758,-1.1173 -1.7579,-0.7449 -3.2998,-1.7653 -4.6255,-3.0614 -1.3259,-1.296 -2.3687,-2.8156 -3.1285,-4.5585 -0.7598,-1.743 -1.1396,-3.6275 -1.1396,-5.6535 0,-2.026 0.3798,-3.9328 1.1396,-5.7205 0.7598,-1.7876 1.8026,-3.3445 3.1285,-4.6702 1.3257,-1.3259 2.8676,-2.3687 4.6255,-3.1285 1.7578,-0.7598 3.6498,-1.1396 5.6758,-1.1396 2.0261,0 3.9254,0.3798 5.6982,1.1396 1.7728,0.7598 3.3146,1.7951 4.6255,3.106 1.311,1.3111 2.3464,2.8529 3.1062,4.6257 0.7597,1.7727 1.1396,3.6721 1.1396,5.6981z"   
   id="path3604"
   style="fill:#FBFBFB;fill-opacity:1;fill-rule:nonzero;stroke:none" />
   
   
   <path   
   d="M39.6584 24.9999c0,2.0467 -0.3803,3.962 -1.1409,5.7459 -0.7606,1.7839 -1.7909,3.3328 -3.0908,4.6465 -1.2999,1.3138 -2.8418,2.3509 -4.6257,3.1115 -1.7839,0.7606 -3.6854,1.1409 -5.7044,1.1409 -2.0467,0 -3.962,-0.3803 -5.7459,-1.1409 -1.7839,-0.7606 -3.3328,-1.7977 -4.6465,-3.1115 -1.3138,-1.3137 -2.3509,-2.8626 -3.1115,-4.6465 -0.7606,-1.7839 -1.1409,-3.6992 -1.1409,-5.7459 0,-2.019 0.3803,-3.9274 1.1409,-5.7251 0.7606,-1.7978 1.7977,-3.3604 3.1115,-4.688 1.3137,-1.3276 2.8626,-2.3786 4.6465,-3.153 1.7839,-0.7744 3.6992,-1.1616 5.7459,-1.1616 2.019,0 3.9205,0.3872 5.7044,1.1616 1.7839,0.7744 3.3258,1.8254 4.6257,3.153 1.2999,1.3276 2.3302,2.8902 3.0908,4.688 0.7606,1.7977 1.1409,3.7061 1.1409,5.7251zm-2.4063 0c0,-1.6871 -0.318,-3.2774 -0.9541,-4.7709 -0.6362,-1.4935 -1.5005,-2.7935 -2.593,-3.8998 -1.0924,-1.1063 -2.3785,-1.9844 -3.8582,-2.6344 -1.4797,-0.6499 -3.0631,-0.9749 -4.7502,-0.9749 -1.6872,0 -3.2775,0.325 -4.771,0.9749 -1.4935,0.65 -2.7934,1.5281 -3.8997,2.6344 -1.1063,1.1063 -1.9845,2.4063 -2.6344,3.8998 -0.65,1.4935 -0.975,3.0838 -0.975,4.7709 0,1.7148 0.325,3.312 0.975,4.7917 0.6499,1.4797 1.5281,2.7796 2.6344,3.8998 1.1063,1.1201 2.4062,1.9982 3.8997,2.6344 1.4935,0.6361 3.0838,0.9542 4.771,0.9542 1.6871,0 3.2705,-0.3181 4.7502,-0.9542 1.4797,-0.6362 2.7658,-1.5143 3.8582,-2.6344 1.0925,-1.1202 1.9568,-2.4201 2.593,-3.8998 0.6361,-1.4797 0.9541,-3.0769 0.9541,-4.7917zm-13.3172 8.8782l0 -17.8808 2.4892 0 0 17.8808 -2.4892 0z"   
   id="path3605"
   style="fill:#64C800;fill-opacity:1;fill-rule:nonzero;stroke:none" />
   
   
   
 
   
   
   
   
   
   
   </svg>
