<?xml version="1.0" encoding="UTF-8" standalone="no"?>
<!--
  #%L
  xplan-workspaces - Modul zur Gruppierung aller Workspaces
  %%
  Copyright (C) 2008 - 2022 lat/lon GmbH, info@lat-lon.de, www.lat-lon.de
  %%
  This program is free software: you can redistribute it and/or modify
  it under the terms of the GNU Affero General Public License as published by
  the Free Software Foundation, either version 3 of the License, or
  (at your option) any later version.
  
  This program is distributed in the hope that it will be useful,
  but WITHOUT ANY WARRANTY; without even the implied warranty of
  MERCHANTABILITY or FITNESS FOR A PARTICULAR PURPOSE.  See the
  GNU General Public License for more details.
  
  You should have received a copy of the GNU Affero General Public License
  along with this program.  If not, see <http://www.gnu.org/licenses/>.
  #L%
  -->

<!-- Created with Inkscape (http://www.inkscape.org/) -->

<svg
   xmlns:svg="http://www.w3.org/2000/svg"
   xmlns="http://www.w3.org/2000/svg"
   version="1.1"
   width="177.16534"
   height="177.16534"
   viewBox="0 0 50 50"
   id="svg2"
   xml:space="preserve"><defs
   id="defs11" />
 

     
   
   <path   
   d="M38.5798 24.9999c0,1.8531 -0.3527,3.5955 -1.0579,5.2274 -0.7053,1.6318 -1.6664,3.0561 -2.8834,4.2731 -1.2169,1.2169 -2.6482,2.178 -4.2938,2.8833 -1.6457,0.7053 -3.4088,1.0579 -5.2896,1.0579 -1.8807,0 -3.637,-0.3457 -5.2688,-1.0372 -1.6318,-0.6914 -3.0631,-1.6387 -4.2938,-2.8418 -1.2308,-1.2031 -2.1988,-2.6137 -2.9041,-4.2316 -0.7053,-1.618 -1.0579,-3.3674 -1.0579,-5.2481 0,-1.8807 0.3526,-3.6508 1.0579,-5.3103 0.7053,-1.6594 1.6733,-3.1046 2.9041,-4.3353 1.2307,-1.2308 2.662,-2.1988 4.2938,-2.9041 1.6318,-0.7053 3.3881,-1.0579 5.2688,-1.0579 1.8808,0 3.6439,0.3526 5.2896,1.0579 1.6456,0.7053 3.0769,1.6664 4.2938,2.8833 1.217,1.217 2.1781,2.6483 2.8834,4.2939 0.7052,1.6456 1.0579,3.4088 1.0579,5.2895z"  
   id="path3605"
   style="fill:#FBFBFB;fill-opacity:1;fill-rule:nonzero;stroke:none" />
   
   
   <path   
   d="M38.7457 25.0622c0,1.9084 -0.3527,3.6854 -1.058,5.331 -0.7052,1.6456 -1.6732,3.0769 -2.904,4.2939 -1.2308,1.2169 -2.6828,2.1711 -4.3561,2.8625 -1.6733,0.6915 -3.4641,1.0372 -5.3725,1.0372 -1.9084,0 -3.6992,-0.3457 -5.3725,-1.0372 -1.6733,-0.6914 -3.1254,-1.6456 -4.3561,-2.8625 -1.2308,-1.217 -2.1988,-2.6483 -2.9041,-4.2939 -0.7053,-1.6456 -1.0579,-3.4226 -1.0579,-5.331 0,-1.8808 0.3526,-3.6578 1.0579,-5.3311 0.7053,-1.6733 1.6733,-3.1322 2.9041,-4.3768 1.2307,-1.2446 2.6828,-2.2264 4.3561,-2.9455 1.6733,-0.7191 3.4641,-1.0787 5.3725,-1.0787 1.9084,0 3.6992,0.3596 5.3725,1.0787 1.6733,0.7191 3.1253,1.7009 4.3561,2.9455 1.2308,1.2446 2.1988,2.7035 2.904,4.3768 0.7053,1.6733 1.058,3.4503 1.058,5.3311zm-2.5722 -0.0415c0,-1.5489 -0.2904,-3.0009 -0.8712,-4.3561 -0.5808,-1.3552 -1.376,-2.5445 -2.3855,-3.5679 -1.0095,-1.0233 -2.1988,-1.8254 -3.5679,-2.4062 -1.369,-0.5808 -2.828,-0.8712 -4.3768,-0.8712 -1.5765,0 -3.0423,0.2904 -4.3976,0.8712 -1.3552,0.5808 -2.5307,1.3829 -3.5263,2.4062 -0.9957,1.0234 -1.784,2.2127 -2.3648,3.5679 -0.5808,1.3552 -0.8712,2.8072 -0.8712,4.3561 0,1.5488 0.2904,3.0008 0.8712,4.3561 0.5808,1.3552 1.3691,2.5445 2.3648,3.5678 0.9956,1.0234 2.1711,1.8254 3.5263,2.4062 1.3553,0.5809 2.8211,0.8713 4.3976,0.8713 1.5488,0 3.0078,-0.2904 4.3768,-0.8713 1.3691,-0.5808 2.5584,-1.3828 3.5679,-2.4062 1.0095,-1.0233 1.8047,-2.2126 2.3855,-3.5678 0.5808,-1.3553 0.8712,-2.8073 0.8712,-4.3561zm-15.0596 5.0613l0 -10.3301 1.286 0 0 4.2316 4.9369 0 0 -4.2316 1.2446 0 0 10.3301 -1.2446 0 0 -4.8539 -4.9369 0 0 4.8539 -1.286 0z"  
   id="path3605"
   style="fill:#00A0FF;fill-opacity:1;fill-rule:nonzero;stroke:none" />
    
    

   
   </svg>
