<?xml version="1.0" encoding="UTF-8" standalone="no"?>
<!--
  #%L
  xplan-workspaces - Modul zur Gruppierung aller Workspaces
  %%
  Copyright (C) 2008 - 2022 lat/lon GmbH, info@lat-lon.de, www.lat-lon.de
  %%
  This program is free software: you can redistribute it and/or modify
  it under the terms of the GNU Affero General Public License as published by
  the Free Software Foundation, either version 3 of the License, or
  (at your option) any later version.
  
  This program is distributed in the hope that it will be useful,
  but WITHOUT ANY WARRANTY; without even the implied warranty of
  MERCHANTABILITY or FITNESS FOR A PARTICULAR PURPOSE.  See the
  GNU General Public License for more details.
  
  You should have received a copy of the GNU Affero General Public License
  along with this program.  If not, see <http://www.gnu.org/licenses/>.
  #L%
  -->

<!-- Created with Inkscape (http://www.inkscape.org/) -->

<svg
   xmlns:svg="http://www.w3.org/2000/svg"
   xmlns="http://www.w3.org/2000/svg"
   version="1.1"
   width="177.16534"
   height="177.16534"
   viewBox="0 0 50 50"
   id="svg2"
   xml:space="preserve"><defs
   id="defs11" />
 

     
   
   <path   
   d="M39.1188 24.9587c0,1.9211 -0.3656,3.7274 -1.0967,5.4192 -0.7312,1.6916 -1.7275,3.1682 -2.9892,4.4298 -1.2615,1.2616 -2.7453,2.2579 -4.4513,2.9891 -1.7061,0.7312 -3.5338,1.0967 -5.4836,1.0967 -1.9497,0 -3.7705,-0.3584 -5.4621,-1.0753 -1.6917,-0.7167 -3.1755,-1.6988 -4.4513,-2.946 -1.276,-1.2472 -2.2795,-2.7096 -3.0107,-4.3868 -0.7312,-1.6774 -1.0967,-3.491 -1.0967,-5.4407 0,-1.9497 0.3655,-3.7847 1.0967,-5.5051 0.7312,-1.7202 1.7347,-3.2185 3.0107,-4.4943 1.2758,-1.276 2.7596,-2.2795 4.4513,-3.0106 1.6916,-0.7312 3.5124,-1.0967 5.4621,-1.0967 1.9498,0 3.7775,0.3655 5.4836,1.0967 1.706,0.7311 3.1898,1.7275 4.4513,2.989 1.2617,1.2617 2.258,2.7455 2.9892,4.4515 0.7311,1.7059 1.0967,3.5338 1.0967,5.4835z"  
   id="path3605"
   style="fill:#00A0FF;fill-opacity:1;fill-rule:nonzero;stroke:none" />
   
   
   <path   
   d="M17.0897 31.3474l8.3388 4.6465 7.7995 -4.6465 -16.1383 0zm8.0484 -20.4944c-2.5168,0 -4.7848,0.5601 -6.8038,1.6802 -2.019,1.1202 -3.6508,2.6068 -4.8954,4.4598l1.1201 0.8298c1.1617,-1.7425 2.6552,-3.1184 4.4806,-4.128 1.8254,-1.0095 3.8583,-1.5142 6.0985,-1.5142 2.2403,0 4.287,0.5186 6.14,1.5557 1.8531,1.0372 3.3605,2.427 4.5221,4.1694l1.0786 -0.6223c-1.2446,-1.936 -2.8833,-3.4918 -4.9161,-4.6672 -2.0329,-1.1755 -4.3077,-1.7632 -6.8246,-1.7632zm-14.1469 14.1884c0,1.8531 0.3111,3.5886 0.9334,5.2066 0.6223,1.618 1.4936,3.0493 2.6137,4.2939 1.1201,1.2446 2.4477,2.261 3.9827,3.0492 1.535,0.7883 3.2014,1.2792 4.9992,1.4728l0 -1.3276c-1.5765,-0.1936 -3.0493,-0.6499 -4.4184,-1.369 -1.369,-0.7191 -2.5583,-1.6387 -3.5678,-2.7589 -1.0095,-1.1201 -1.8047,-2.4062 -2.3855,-3.8582 -0.5808,-1.4521 -0.8712,-2.994 -0.8712,-4.6258 0,-1.5212 0.2489,-2.9732 0.7467,-4.3561l-1.1201 -0.7882c-0.6085,1.5488 -0.9127,3.2359 -0.9127,5.0613zm28.1279 0c0,-1.6594 -0.2627,-3.2221 -0.7882,-4.688l-1.0372 0.5809c0.4425,1.2169 0.6638,2.586 0.6638,4.1071 0,1.6042 -0.2835,3.1323 -0.8505,4.5843 -0.567,1.452 -1.3483,2.7381 -2.344,3.8583 -0.9957,1.1201 -2.1711,2.0535 -3.5263,2.8003 -1.3553,0.7468 -2.8211,1.2169 -4.3976,1.4105l0 1.3276c1.7424,-0.1936 3.3604,-0.6845 4.8539,-1.4728 1.4935,-0.7882 2.7934,-1.8046 3.8998,-3.0492 1.1063,-1.2446 1.9706,-2.6759 2.5929,-4.2939 0.6223,-1.618 0.9334,-3.3397 0.9334,-5.1651zm-17.0925 -9.7078l7.924 1.9083 1.9084 11.2014 -11.8652 0 2.0328 -13.1097zm0.8713 1.7009l-1.6595 10.3717 9.21 0 -1.4935 -9.1271 -6.057 -1.2446z"  
   id="path3605"
   style="fill:#000000;fill-opacity:1;fill-rule:nonzero;stroke:none" />
    
   
   
   </svg>
