<?xml version="1.0" encoding="UTF-8" standalone="no"?>
<!--
  #%L
  xplan-workspaces - Modul zur Gruppierung aller Workspaces
  %%
  Copyright (C) 2008 - 2022 lat/lon GmbH, info@lat-lon.de, www.lat-lon.de
  %%
  This program is free software: you can redistribute it and/or modify
  it under the terms of the GNU Affero General Public License as published by
  the Free Software Foundation, either version 3 of the License, or
  (at your option) any later version.
  
  This program is distributed in the hope that it will be useful,
  but WITHOUT ANY WARRANTY; without even the implied warranty of
  MERCHANTABILITY or FITNESS FOR A PARTICULAR PURPOSE.  See the
  GNU General Public License for more details.
  
  You should have received a copy of the GNU Affero General Public License
  along with this program.  If not, see <http://www.gnu.org/licenses/>.
  #L%
  -->

<!-- Created with Inkscape (http://www.inkscape.org/) -->

<svg
   xmlns:svg="http://www.w3.org/2000/svg"
   xmlns="http://www.w3.org/2000/svg"
   version="1.1"
   width="177.16534"
   height="177.16534"
   viewBox="0 0 50 50"
   id="svg2"
   xml:space="preserve"><defs
   id="defs11" />
 
     
   <path   
   d="M45.3458 25.0622c0,2.7877 -0.5305,5.4089 -1.5914,7.8638 -1.061,2.4549 -2.5069,4.5975 -4.3377,6.4283 -1.8306,1.8307 -3.9838,3.2765 -6.4594,4.3375 -2.4757,1.061 -5.128,1.5915 -7.9574,1.5915 -2.8292,0 -5.4713,-0.5201 -7.9261,-1.5604 -2.4549,-1.0401 -4.608,-2.4651 -6.4594,-4.275 -1.8516,-1.8099 -3.3078,-3.932 -4.3688,-6.3659 -1.0611,-2.434 -1.5915,-5.0657 -1.5915,-7.895 0,-2.8292 0.5304,-5.4921 1.5915,-7.9885 1.061,-2.4964 2.5172,-4.6704 4.3688,-6.5219 1.8514,-1.8515 4.0045,-3.3077 6.4594,-4.3688 2.4548,-1.061 5.0969,-1.5914 7.9261,-1.5914 2.8294,0 5.4817,0.5304 7.9574,1.5914 2.4756,1.0611 4.6288,2.5069 6.4594,4.3376 1.8308,1.8307 3.2767,3.9839 4.3377,6.4595 1.0609,2.4756 1.5914,5.128 1.5914,7.9573z"   
   id="path3605"
   style="fill:#00A0FF;fill-opacity:1;fill-rule:nonzero;stroke:none" />
   
    <path   
   d="M25.1381 4.63c-1.8807,0 -3.6785,0.2351 -5.3933,0.7053 -1.7147,0.4702 -3.3189,1.1271 -4.8124,1.9706 -1.4935,0.8436 -2.8557,1.8669 -4.0864,3.07 -1.2308,1.2031 -2.2887,2.5376 -3.1738,4.0035l2.9456 1.7424c0.7467,-1.1893 1.6318,-2.2817 2.6551,-3.2774 1.0234,-0.9957 2.1504,-1.8462 3.3812,-2.5514 1.2308,-0.7053 2.5583,-1.2585 3.9827,-1.6595 1.4244,-0.401 2.911,-0.6016 4.4598,-0.6016 1.5488,0 3.0354,0.1936 4.4598,0.5808 1.4244,0.3873 2.752,0.9473 3.9827,1.6803 1.2308,0.7329 2.3509,1.6041 3.3604,2.6136 1.0096,1.0095 1.8739,2.1366 2.593,3.3812l3.1529 -1.5765c-0.885,-1.4935 -1.9429,-2.8557 -3.1737,-4.0865 -1.2308,-1.2307 -2.5929,-2.2955 -4.0864,-3.1944 -1.4935,-0.8989 -3.1046,-1.5903 -4.8332,-2.0744 -1.7286,-0.484 -3.5333,-0.726 -5.414,-0.726zm20.2869 20.4114c0,-1.3275 -0.1175,-2.586 -0.3526,-3.7752 -0.2351,-1.1893 -0.5739,-2.3648 -1.0164,-3.5264l-3.153 1.535c0.3042,0.885 0.5462,1.8116 0.726,2.7796 0.1798,0.968 0.2697,1.9499 0.2697,2.9456 0,2.2126 -0.3872,4.3007 -1.1616,6.2644 -0.7745,1.9637 -1.8393,3.7062 -3.1945,5.2273 -1.3552,1.5212 -2.9594,2.7589 -4.8125,3.7131 -1.853,0.9542 -3.8444,1.5281 -5.974,1.7217l0 3.3604c2.6275,-0.1936 5.0752,-0.8505 7.3431,-1.9706 2.2679,-1.1202 4.2455,-2.586 5.9326,-4.3976 1.6871,-1.8116 3.0078,-3.8997 3.962,-6.2645 0.9541,-2.3647 1.4312,-4.9023 1.4312,-7.6128zm-40.7398 0c0,2.6828 0.4771,5.1997 1.4313,7.5506 0.9542,2.3509 2.261,4.4322 3.9205,6.2437 1.6594,1.8116 3.6231,3.2775 5.8911,4.3976 2.2679,1.1202 4.7294,1.7909 7.3846,2.0121l0 -3.3189c-2.1573,-0.2213 -4.1625,-0.8021 -6.0156,-1.7425 -1.853,-0.9403 -3.4641,-2.1573 -4.8332,-3.6508 -1.369,-1.4935 -2.4408,-3.2152 -3.2152,-5.1651 -0.7744,-1.9498 -1.1616,-4.0311 -1.1616,-6.2437 0,-2.102 0.3734,-4.0933 1.1201,-5.9741l-3.0285 -1.7839c-0.4702,1.1893 -0.8366,2.427 -1.0994,3.7131 -0.2627,1.2861 -0.3941,2.6067 -0.3941,3.9619zm33.6041 5.6837l-2.5721 0c0,0.5532 -0.242,1.0787 -0.726,1.5765 -0.484,0.4978 -1.1686,0.9404 -2.0536,1.3276 -1.7701,0.9127 -4.0795,1.4382 -6.9283,1.5765l0 -17.9637 3.6093 0 0 -1.784 -3.6093 0 0 -0.8297c0.166,-0.083 0.3319,-0.2074 0.4979,-0.3734 0.2212,-0.1659 0.3733,-0.3803 0.4563,-0.643 0.083,-0.2628 0.1245,-0.5463 0.1245,-0.8505 0,-0.6361 -0.1936,-1.1478 -0.5808,-1.535 -0.2213,-0.2213 -0.4633,-0.3734 -0.7261,-0.4564 -0.2627,-0.0829 -0.5185,-0.1244 -0.7675,-0.1244 -0.6361,0 -1.1478,0.1936 -1.535,0.5808 -0.4148,0.4702 -0.6223,0.9819 -0.6223,1.535 0,0.6361 0.2075,1.134 0.6223,1.4935 0.0277,0.0553 0.0692,0.1037 0.1245,0.1452 0.0553,0.0415 0.1106,0.0899 0.1659,0.1452l0 0.9127 -3.8997 0 0 1.784 3.8997 0 0 17.9637c-2.5445,-0.166 -4.7709,-0.6915 -6.6793,-1.5765 -0.8851,-0.3872 -1.5834,-0.8298 -2.0951,-1.3276 -0.5116,-0.4978 -0.7675,-1.0233 -0.7675,-1.5765l-2.5307 0c0,1.0787 0.3734,2.0605 1.1202,2.9456 0.7467,0.885 1.7839,1.6456 3.1115,2.2817 2.3232,1.1063 5.1305,1.7148 8.4217,1.8254l0 1.1617 1.0787 0 0 -1.1617c1.6871,-0.0276 3.2498,-0.2005 4.688,-0.5186 1.4382,-0.318 2.7381,-0.7536 3.8997,-1.3068 1.3276,-0.6361 2.3717,-1.3967 3.1323,-2.2817 0.7606,-0.8851 1.1408,-1.8669 1.1408,-2.9456z"  
   id="path3606"
   style="fill:#000000;fill-opacity:1;fill-rule:nonzero;stroke:none" />

   
   
   </svg>
