<?xml version="1.0" encoding="UTF-8" standalone="no"?>
<!--
  #%L
  xplan-workspaces - Modul zur Gruppierung aller Workspaces
  %%
  Copyright (C) 2008 - 2022 lat/lon GmbH, info@lat-lon.de, www.lat-lon.de
  %%
  This program is free software: you can redistribute it and/or modify
  it under the terms of the GNU Affero General Public License as published by
  the Free Software Foundation, either version 3 of the License, or
  (at your option) any later version.
  
  This program is distributed in the hope that it will be useful,
  but WITHOUT ANY WARRANTY; without even the implied warranty of
  MERCHANTABILITY or FITNESS FOR A PARTICULAR PURPOSE.  See the
  GNU General Public License for more details.
  
  You should have received a copy of the GNU Affero General Public License
  along with this program.  If not, see <http://www.gnu.org/licenses/>.
  #L%
  -->

<!-- Created with Inkscape (http://www.inkscape.org/) -->

<svg
   xmlns:svg="http://www.w3.org/2000/svg"
   xmlns="http://www.w3.org/2000/svg"
   version="1.1"
   width="177.16534"
   height="177.16534"
   viewBox="0 0 50 50"
   id="svg2"
   xml:space="preserve"><defs
   id="defs11" />
    
   
   <path   
   d="M45.3458 25.0622c0,2.7877 -0.5305,5.4089 -1.5914,7.8638 -1.061,2.4549 -2.5069,4.5975 -4.3377,6.4283 -1.8306,1.8307 -3.9838,3.2765 -6.4594,4.3375 -2.4757,1.061 -5.128,1.5915 -7.9574,1.5915 -2.8292,0 -5.4713,-0.5201 -7.9261,-1.5604 -2.4549,-1.0401 -4.608,-2.4651 -6.4594,-4.275 -1.8516,-1.8099 -3.3078,-3.932 -4.3688,-6.3659 -1.0611,-2.434 -1.5915,-5.0657 -1.5915,-7.895 0,-2.8292 0.5304,-5.4921 1.5915,-7.9885 1.061,-2.4964 2.5172,-4.6704 4.3688,-6.5219 1.8514,-1.8515 4.0045,-3.3077 6.4594,-4.3688 2.4548,-1.061 5.0969,-1.5914 7.9261,-1.5914 2.8294,0 5.4817,0.5304 7.9574,1.5914 2.4756,1.0611 4.6288,2.5069 6.4594,4.3376 1.8308,1.8307 3.2767,3.9839 4.3377,6.4595 1.0609,2.4756 1.5914,5.128 1.5914,7.9573z"  
   id="path3605"
   style="fill:#00A0FF;fill-opacity:1;fill-rule:nonzero;stroke:none" />
   
   
   <path   
  d="M45.3836 25.0414c0,2.8488 -0.5255,5.5039 -1.5765,7.9655 -1.051,2.4615 -2.4892,4.605 -4.3146,6.4304 -1.8254,1.8254 -3.9689,3.2567 -6.4305,4.2939 -2.4615,1.0371 -5.1028,1.5557 -7.9239,1.5557 -2.8764,0 -5.5592,-0.5186 -8.0484,-1.5557 -2.4892,-1.0372 -4.6465,-2.4685 -6.4719,-4.2939 -1.8254,-1.8254 -3.2636,-3.9689 -4.3146,-6.4304 -1.051,-2.4616 -1.5765,-5.1167 -1.5765,-7.9655 0,-2.8211 0.5255,-5.4693 1.5765,-7.9446 1.051,-2.4754 2.4892,-4.6327 4.3146,-6.472 1.8254,-1.8392 3.9827,-3.2981 6.4719,-4.3768 2.4892,-1.0786 5.172,-1.618 8.0484,-1.618 2.8211,0 5.4624,0.5394 7.9239,1.618 2.4616,1.0787 4.6051,2.5376 6.4305,4.3768 1.8254,1.8393 3.2636,3.9966 4.3146,6.472 1.051,2.4753 1.5765,5.1235 1.5765,7.9446zm-3.5264 -0.0414c0,-2.351 -0.4356,-4.5567 -1.3068,-6.6172 -0.8712,-2.0605 -2.0674,-3.8582 -3.5886,-5.3932 -1.5212,-1.535 -3.2982,-2.745 -5.331,-3.6301 -2.0329,-0.885 -4.2248,-1.3276 -6.5757,-1.3276 -2.3509,0 -4.5566,0.4495 -6.6171,1.3483 -2.0605,0.8989 -3.8582,2.1297 -5.3932,3.6924 -1.535,1.5626 -2.7451,3.3811 -3.6301,5.4554 -0.8851,2.0744 -1.3276,4.2732 -1.3276,6.5964 0,2.3509 0.4425,4.5497 1.3276,6.5964 0.885,2.0467 2.0951,3.8306 3.6301,5.3518 1.535,1.5211 3.3327,2.7173 5.3932,3.5885 2.0605,0.8713 4.2662,1.3069 6.6171,1.3069 2.3509,0 4.5428,-0.4426 6.5757,-1.3276 2.0328,-0.885 3.8098,-2.0951 5.331,-3.6301 1.5212,-1.535 2.7174,-3.3327 3.5886,-5.3932 0.8712,-2.0605 1.3068,-4.2662 1.3068,-6.6171zm-3.4019 5.891l-2.5722 0c0,0.5532 -0.242,1.0787 -0.726,1.5765 -0.484,0.4979 -1.1685,0.9404 -2.0536,1.3276 -1.7701,0.9127 -4.0795,1.4382 -6.9282,1.5765l0 -17.9637 3.6093 0 0 -1.7839 -3.6093 0 0 -0.8298c0.1659,-0.0829 0.3319,-0.2074 0.4978,-0.3733 0.2213,-0.166 0.3734,-0.3803 0.4564,-0.6431 0.0829,-0.2627 0.1244,-0.5462 0.1244,-0.8504 0,-0.6362 -0.1936,-1.1478 -0.5808,-1.5351 -0.2212,-0.2212 -0.4633,-0.3733 -0.726,-0.4563 -0.2628,-0.083 -0.5186,-0.1245 -0.7675,-0.1245 -0.6361,0 -1.1478,0.1936 -1.535,0.5808 -0.4149,0.4702 -0.6223,0.9819 -0.6223,1.5351 0,0.6361 0.2074,1.1339 0.6223,1.4935 0.0276,0.0553 0.0691,0.1037 0.1244,0.1452 0.0554,0.0415 0.1107,0.0899 0.166,0.1452l0 0.9127 -3.8997 0 0 1.7839 3.8997 0 0 17.9637c-2.5445,-0.1659 -4.771,-0.6914 -6.6793,-1.5765 -0.8851,-0.3872 -1.5835,-0.8297 -2.0951,-1.3276 -0.5117,-0.4978 -0.7675,-1.0233 -0.7675,-1.5765l-2.5307 0c0,1.0787 0.3734,2.0606 1.1201,2.9456 0.7468,0.885 1.784,1.6456 3.1115,2.2818 2.3233,1.1063 5.1305,1.7147 8.4218,1.8254l0 1.1616 1.0787 0 0 -1.1616c1.6871,-0.0277 3.2497,-0.2005 4.6879,-0.5186 1.4382,-0.3181 2.7382,-0.7537 3.8998,-1.3068 1.3276,-0.6362 2.3716,-1.3968 3.1322,-2.2818 0.7606,-0.885 1.1409,-1.8669 1.1409,-2.9456z"  
   id="path3605"
   style="fill:#000000;fill-opacity:1;fill-rule:nonzero;stroke:none" />
    
  
   
   </svg>
