<?xml version="1.0" encoding="UTF-8" standalone="no"?>
<!--
  #%L
  xplan-workspaces - Modul zur Gruppierung aller Workspaces
  %%
  Copyright (C) 2008 - 2022 lat/lon GmbH, info@lat-lon.de, www.lat-lon.de
  %%
  This program is free software: you can redistribute it and/or modify
  it under the terms of the GNU Affero General Public License as published by
  the Free Software Foundation, either version 3 of the License, or
  (at your option) any later version.
  
  This program is distributed in the hope that it will be useful,
  but WITHOUT ANY WARRANTY; without even the implied warranty of
  MERCHANTABILITY or FITNESS FOR A PARTICULAR PURPOSE.  See the
  GNU General Public License for more details.
  
  You should have received a copy of the GNU Affero General Public License
  along with this program.  If not, see <http://www.gnu.org/licenses/>.
  #L%
  -->

<!-- Created with Inkscape (http://www.inkscape.org/) -->

<svg
   xmlns:svg="http://www.w3.org/2000/svg"
   xmlns="http://www.w3.org/2000/svg"
   version="1.1"
   width="177.16534"
   height="177.16534"
   viewBox="0 0 50 50"
   id="svg2"
   xml:space="preserve"><defs
   id="defs11" />
 
   
       
   
   <path   
   d="M40.7443 25.0481c0,2.1573 -0.4106,4.1857 -1.2315,6.0854 -0.8211,1.8996 -1.9399,3.5577 -3.3567,4.9744 -1.4166,1.4166 -3.0828,2.5355 -4.9985,3.3565 -1.9158,0.8211 -3.9682,1.2315 -6.1577,1.2315 -2.1894,0 -4.2339,-0.4024 -6.1336,-1.2074 -1.8996,-0.8049 -3.5658,-1.9076 -4.9985,-3.3082 -1.4328,-1.4005 -2.5596,-3.0427 -3.3807,-4.9261 -0.8211,-1.8835 -1.2315,-3.9201 -1.2315,-6.1094 0,-2.1894 0.4104,-4.25 1.2315,-6.1819 0.8211,-1.9317 1.9479,-3.6141 3.3807,-5.0468 1.4327,-1.4328 3.0989,-2.5597 4.9985,-3.3807 1.8997,-0.8211 3.9442,-1.2316 6.1336,-1.2316 2.1895,0 4.2419,0.4105 6.1577,1.2316 1.9157,0.821 3.5819,1.9399 4.9985,3.3565 1.4168,1.4167 2.5356,3.0829 3.3567,4.9986 0.8209,1.9157 1.2315,3.9683 1.2315,6.1576z"  
   id="path3605"
   style="fill:#00A0FF;fill-opacity:1;fill-rule:nonzero;stroke:none" />
   
   
   <path   
   d="M13.9782 24.3154c0.4148,-0.3872 0.8643,-0.7191 1.3483,-0.9957 0.484,-0.2765 1.0026,-0.4701 1.5557,-0.5808 1.1893,-0.2765 2.3095,-0.2765 3.3604,0 0.7192,0.1936 1.3899,0.5117 2.0121,0.9542 0.6223,0.4425 1.1686,1.051 1.6388,1.8254 0.6361,0.9957 1.3829,1.8047 2.2402,2.427 0.8574,0.6223 1.7978,1.0856 2.8211,1.3898 0.7745,0.1936 1.5489,0.2835 2.3233,0.2697 0.7744,-0.0139 1.5626,-0.1038 2.3647,-0.2697 0.7191,-0.2213 1.4175,-0.5117 2.0951,-0.8712 0.6776,-0.3596 1.293,-0.8159 1.8461,-1.3691 0.0554,-0.0553 0.1245,-0.1175 0.2075,-0.1867 0.083,-0.0691 0.1521,-0.1313 0.2074,-0.1867 -0.1936,1.5489 -0.6292,2.9871 -1.3068,4.3146 -0.6776,1.3276 -1.5419,2.5031 -2.5929,3.5264 -1.051,1.0233 -2.2541,1.8531 -3.6094,2.4892 -1.3552,0.6361 -2.7934,1.0233 -4.3146,1.1616l0 2.5722c2.0744,-0.1383 4.0035,-0.6361 5.7874,-1.4935 1.7839,-0.8574 3.3328,-1.9914 4.6465,-3.4019 1.3138,-1.4106 2.3509,-3.0355 3.1115,-4.8747 0.7606,-1.8392 1.1409,-3.8237 1.1409,-5.9533 0,-1.051 -0.0968,-2.0674 -0.2904,-3.0493 -0.1936,-0.9818 -0.4702,-1.9291 -0.8297,-2.8418l-2.4478 1.2446c0.083,0.1936 0.1522,0.3803 0.2075,0.56 0.0553,0.1798 0.1106,0.3665 0.1659,0.5601 -0.0553,0.8851 -0.242,1.6664 -0.56,2.344 -0.3181,0.6776 -0.7122,1.2515 -1.1824,1.7217 -0.8574,0.7744 -1.8393,1.2861 -2.9456,1.535 -0.9127,0.2766 -2.0466,0.2628 -3.4019,-0.0415 -0.6914,-0.1936 -1.3483,-0.5116 -1.9706,-0.9542 -0.6223,-0.4425 -1.1685,-1.0233 -1.6387,-1.7424 -0.6085,-1.051 -1.3483,-1.8876 -2.2195,-2.5099 -0.8713,-0.6223 -1.7909,-1.058 -2.7589,-1.3069 -0.4702,-0.1106 -0.8989,-0.1936 -1.2861,-0.2489 -0.3872,-0.0553 -0.7329,-0.083 -1.0371,-0.083 -1.0234,0 -1.8255,0.0968 -2.4063,0.2904 -0.7191,0.166 -1.4174,0.4287 -2.095,0.7883 -0.6777,0.3595 -1.3069,0.8297 -1.8877,1.4105 -0.0553,0.0553 -0.1175,0.1107 -0.1867,0.166 -0.0691,0.0553 -0.1313,0.1106 -0.1867,0.1659 0.0554,-0.4702 0.1452,-0.9196 0.2697,-1.3483 0.1245,-0.4287 0.2697,-0.8643 0.4356,-1.3068l-2.3232 -1.3276c-0.6915,1.7978 -1.0372,3.7891 -1.0372,5.9741 0,2.102 0.3596,4.0657 1.0787,5.8911 0.7191,1.8254 1.7147,3.4295 2.987,4.8124 1.2722,1.3829 2.7796,2.5169 4.522,3.4019 1.7425,0.8851 3.637,1.4244 5.6837,1.618l0 -2.6137c-1.3829,-0.1382 -2.6897,-0.4771 -3.9205,-1.0164 -1.2308,-0.5393 -2.3371,-1.2377 -3.3189,-2.0951 -0.9819,-0.8573 -1.8254,-1.8461 -2.5307,-2.9662 -0.7053,-1.1202 -1.2239,-2.3302 -1.5558,-3.6301 0.0277,-0.9127 0.2006,-1.7148 0.5186,-2.4062 0.3181,-0.6915 0.7399,-1.2723 1.2654,-1.7425zm11.0769 -15.1841c-1.4659,0 -2.8695,0.1867 -4.2109,0.5601 -1.3414,0.3734 -2.5929,0.892 -3.7545,1.5557 -1.1617,0.6638 -2.2196,1.4659 -3.1738,2.4063 -0.9541,0.9403 -1.777,1.9775 -2.4684,3.1115l2.3232 1.3275c1.1617,-1.9084 2.7174,-3.4364 4.6673,-4.5842 1.9499,-1.1478 4.1417,-1.7217 6.5756,-1.7217 2.4339,0 4.605,0.5669 6.5134,1.7009 1.9084,1.134 3.4434,2.6552 4.605,4.5635l2.4477 -1.2446c-0.6914,-1.1616 -1.5142,-2.2126 -2.4684,-3.1529 -0.9542,-0.9404 -2.0121,-1.7425 -3.1738,-2.4063 -1.1616,-0.6637 -2.4062,-1.1823 -3.7337,-1.5557 -1.3276,-0.3734 -2.7105,-0.5601 -4.1487,-0.5601z"   
   id="path3605"
   style="fill:#000000;fill-opacity:1;fill-rule:nonzero;stroke:none" />
    
  
   
   </svg>
