<?xml version="1.0" encoding="UTF-8" standalone="no"?>
<!--
  #%L
  xplan-workspaces - Modul zur Gruppierung aller Workspaces
  %%
  Copyright (C) 2008 - 2022 lat/lon GmbH, info@lat-lon.de, www.lat-lon.de
  %%
  This program is free software: you can redistribute it and/or modify
  it under the terms of the GNU Affero General Public License as published by
  the Free Software Foundation, either version 3 of the License, or
  (at your option) any later version.
  
  This program is distributed in the hope that it will be useful,
  but WITHOUT ANY WARRANTY; without even the implied warranty of
  MERCHANTABILITY or FITNESS FOR A PARTICULAR PURPOSE.  See the
  GNU General Public License for more details.
  
  You should have received a copy of the GNU Affero General Public License
  along with this program.  If not, see <http://www.gnu.org/licenses/>.
  #L%
  -->

<!-- Created with Inkscape (http://www.inkscape.org/) -->

<svg
   xmlns:svg="http://www.w3.org/2000/svg"
   xmlns="http://www.w3.org/2000/svg"
   version="1.1"
   width="177.16534"
   height="177.16534"
   viewBox="0 0 50 50"
   id="svg2"
   xml:space="preserve"><defs
   id="defs11" />
 
   
   <path   
   d="M33.862 24.9719c0,1.2048 -0.2293,2.3377 -0.6878,3.3987 -0.4586,1.061 -1.0835,1.987 -1.8747,2.7783 -0.7912,0.7912 -1.7218,1.416 -2.7917,1.8746 -1.07,0.4586 -2.2164,0.6878 -3.4392,0.6878 -1.2228,0 -2.3647,-0.2247 -3.4256,-0.6743 -1.061,-0.4496 -1.9916,-1.0655 -2.7918,-1.8477 -0.8002,-0.7822 -1.4296,-1.6994 -1.8881,-2.7513 -0.4586,-1.052 -0.6878,-2.1894 -0.6878,-3.4122 0,-1.2227 0.2292,-2.3736 0.6878,-3.4526 0.4585,-1.0789 1.0879,-2.0185 1.8881,-2.8187 0.8002,-0.8002 1.7308,-1.4296 2.7918,-1.8882 1.0609,-0.4585 2.2028,-0.6878 3.4256,-0.6878 1.2228,0 2.3692,0.2293 3.4392,0.6878 1.0699,0.4586 2.0005,1.0835 2.7917,1.8747 0.7912,0.7913 1.4161,1.7219 1.8747,2.7918 0.4585,1.0699 0.6878,2.2163 0.6878,3.4391z"  
   id="path3604"
   style="fill:#FBFBFB;fill-opacity:1;fill-rule:nonzero;stroke:none" />
     
   
   <path   
   d="M33.9747 25c0,1.2999 -0.2281,2.4892 -0.6845,3.5678 -0.4563,1.0787 -1.0856,2.0121 -1.8876,2.8004 -0.8021,0.7882 -1.7425,1.4036 -2.8211,1.8461 -1.0787,0.4425 -2.2265,0.6638 -3.4434,0.6638 -1.2446,0 -2.4131,-0.2213 -3.5056,-0.6638 -1.0925,-0.4425 -2.0467,-1.0579 -2.8626,-1.8461 -0.8159,-0.7883 -1.4589,-1.7217 -1.9291,-2.8004 -0.4702,-1.0786 -0.7053,-2.2679 -0.7053,-3.5678 0,-1.2446 0.2351,-2.4132 0.7053,-3.5057 0.4702,-1.0924 1.1132,-2.0397 1.9291,-2.8418 0.8159,-0.8021 1.7701,-1.4382 2.8626,-1.9084 1.0925,-0.4701 2.261,-0.7052 3.5056,-0.7052 1.2169,0 2.3647,0.2351 3.4434,0.7052 1.0786,0.4702 2.019,1.1063 2.8211,1.9084 0.802,0.8021 1.4313,1.7494 1.8876,2.8418 0.4564,1.0925 0.6845,2.2611 0.6845,3.5057zm-1.369 0c0,-1.051 -0.1936,-2.0398 -0.5808,-2.9663 -0.3872,-0.9266 -0.9197,-1.7286 -1.5973,-2.4062 -0.6776,-0.6777 -1.4727,-1.217 -2.3854,-1.618 -0.9128,-0.4011 -1.8946,-0.6016 -2.9456,-0.6016 -1.0786,0 -2.0812,0.2005 -3.0078,0.6016 -0.9265,0.401 -1.7424,0.9403 -2.4477,1.618 -0.7053,0.6776 -1.2584,1.4796 -1.6594,2.4062 -0.4011,0.9265 -0.6016,1.9153 -0.6016,2.9663 0,1.0786 0.2005,2.0812 0.6016,3.0077 0.401,0.9266 0.9541,1.7356 1.6594,2.427 0.7053,0.6915 1.5212,1.2377 2.4477,1.6387 0.9266,0.4011 1.9292,0.6016 3.0078,0.6016 1.051,0 2.0328,-0.2005 2.9456,-0.6016 0.9127,-0.401 1.7078,-0.9472 2.3854,-1.6387 0.6776,-0.6914 1.2101,-1.5004 1.5973,-2.427 0.3872,-0.9265 0.5808,-1.9291 0.5808,-3.0077z"   
   id="path3605"
   style="fill:#000000;fill-opacity:1;fill-rule:nonzero;stroke:none" />
   
   
   <polygon   
   points="19.7713,29.3657 19.7713,20.7337 24.8882,20.7337 24.8882,21.7527 20.7058,21.7527 20.7058,24.3955 24.6229,24.3955 24.6229,25.4085 20.7058,25.4085 20.7058,28.3467 25.053,28.3467 25.053,29.3657 " 
   id="path3605"
   style="fill:#000000;fill-opacity:1;fill-rule:nonzero;stroke:none" />
   
   
    <path   
   d="M25.423 26.1324c0,-1.0678 0.2271,-1.8732 0.6813,-2.416 0.4523,-0.5449 1.027,-0.8173 1.7224,-0.8173 0.6813,0 1.2541,0.2724 1.7124,0.8173 0.4602,0.5428 0.6893,1.3263 0.6893,2.3524 0,1.1115 -0.2251,1.9388 -0.6773,2.4816 -0.4522,0.5449 -1.027,0.8153 -1.7244,0.8153 -0.6873,0 -1.2601,-0.2724 -1.7163,-0.8173 -0.4582,-0.5468 -0.6874,-1.3521 -0.6874,-2.416zm0.8904 0c0,0.8014 0.1467,1.3959 0.4401,1.7857 0.2954,0.3917 0.6612,0.5866 1.0953,0.5866 0.408,0 0.7597,-0.1969 1.0511,-0.5926 0.2935,-0.3937 0.4402,-0.9863 0.4402,-1.7797 0,-0.7954 -0.1487,-1.388 -0.4422,-1.7797 -0.2954,-0.3898 -0.6592,-0.5846 -1.0953,-0.5846 -0.412,0 -0.7637,0.1968 -1.0551,0.5886 -0.2894,0.3917 -0.4341,0.9843 -0.4341,1.7757zm0.1165 -4.3051l0 -1.1931 0.9085 0 0 1.1931 -0.9085 0zm1.8028 0l0 -1.1931 0.9064 0 0 1.1931 -0.9064 0z" 
   id="path3605"
   style="fill:#000000;fill-opacity:1;fill-rule:nonzero;stroke:none" />
    
    
	
   
   </svg>
