<?xml version="1.0" encoding="UTF-8" standalone="no"?>
<!--
  #%L
  xplan-workspaces - Modul zur Gruppierung aller Workspaces
  %%
  Copyright (C) 2008 - 2022 lat/lon GmbH, info@lat-lon.de, www.lat-lon.de
  %%
  This program is free software: you can redistribute it and/or modify
  it under the terms of the GNU Affero General Public License as published by
  the Free Software Foundation, either version 3 of the License, or
  (at your option) any later version.
  
  This program is distributed in the hope that it will be useful,
  but WITHOUT ANY WARRANTY; without even the implied warranty of
  MERCHANTABILITY or FITNESS FOR A PARTICULAR PURPOSE.  See the
  GNU General Public License for more details.
  
  You should have received a copy of the GNU Affero General Public License
  along with this program.  If not, see <http://www.gnu.org/licenses/>.
  #L%
  -->

<!-- Created with Inkscape (http://www.inkscape.org/) -->

<svg
   xmlns:svg="http://www.w3.org/2000/svg"
   xmlns="http://www.w3.org/2000/svg"
   version="1.1"
   width="177.16534"
   height="177.16534"
   viewBox="0 0 50 50"
   id="svg2"
   xml:space="preserve"><defs
   id="defs11" />
 
   
       
   
   <path   
   d="M45.3458 25.0622c0,2.7877 -0.5305,5.4089 -1.5914,7.8638 -1.061,2.4549 -2.5069,4.5975 -4.3377,6.4283 -1.8306,1.8307 -3.9838,3.2765 -6.4594,4.3375 -2.4757,1.061 -5.128,1.5915 -7.9574,1.5915 -2.8292,0 -5.4713,-0.5201 -7.9261,-1.5604 -2.4549,-1.0401 -4.608,-2.4651 -6.4594,-4.275 -1.8516,-1.8099 -3.3078,-3.932 -4.3688,-6.3659 -1.0611,-2.434 -1.5915,-5.0657 -1.5915,-7.895 0,-2.8292 0.5304,-5.4921 1.5915,-7.9885 1.061,-2.4964 2.5172,-4.6704 4.3688,-6.5219 1.8514,-1.8515 4.0045,-3.3077 6.4594,-4.3688 2.4548,-1.061 5.0969,-1.5914 7.9261,-1.5914 2.8294,0 5.4817,0.5304 7.9574,1.5914 2.4756,1.0611 4.6288,2.5069 6.4594,4.3376 1.8308,1.8307 3.2767,3.9839 4.3377,6.4595 1.0609,2.4756 1.5914,5.128 1.5914,7.9573z"  
   id="path3605"
   style="fill:#823CB4;fill-opacity:1;fill-rule:nonzero;stroke:none" />
   
   
   <path   
   d="M25.1381 4.63c1.8807,0 3.6854,0.242 5.414,0.726 1.7286,0.4841 3.3397,1.1755 4.8332,2.0744 1.4935,0.8989 2.8556,1.9637 4.0864,3.1944 1.2308,1.2308 2.2887,2.593 3.1737,4.0865l-3.1529 1.5765c-0.7191,-1.2446 -1.5834,-2.3717 -2.593,-3.3812 -1.0095,-1.0095 -2.1296,-1.8807 -3.3604,-2.6136 -1.2307,-0.733 -2.5583,-1.293 -3.9827,-1.6803 -1.4244,-0.3872 -2.911,-0.5808 -4.4598,-0.5808 -1.5488,0 -3.0354,0.2006 -4.4598,0.6016 -1.4244,0.401 -2.7519,0.9542 -3.9827,1.6595 -1.2308,0.7052 -2.3578,1.5557 -3.3812,2.5514 -1.0233,0.9957 -1.9084,2.0881 -2.6551,3.2774l-2.9456 -1.7424c0.8851,-1.4659 1.943,-2.8004 3.1738,-4.0035 1.2307,-1.2031 2.5929,-2.2264 4.0864,-3.07 1.4935,-0.8435 3.0977,-1.5004 4.8124,-1.9706 1.7148,-0.4702 3.5126,-0.7053 5.3933,-0.7053zm20.2869 20.4114c0,2.7105 -0.4771,5.2481 -1.4312,7.6128 -0.9542,2.3648 -2.2749,4.4529 -3.962,6.2645 -1.6871,1.8116 -3.6647,3.2774 -5.9326,4.3976 -2.2679,1.1201 -4.7156,1.777 -7.3431,1.9706l0 -3.3604c2.1296,-0.1936 4.121,-0.7675 5.974,-1.7217 1.8531,-0.9542 3.4573,-2.1919 4.8125,-3.7131 1.3552,-1.5211 2.42,-3.2636 3.1945,-5.2273 0.7744,-1.9637 1.1616,-4.0518 1.1616,-6.2644 0,-0.9957 -0.0899,-1.9776 -0.2697,-2.9456 -0.1798,-0.968 -0.4218,-1.8946 -0.726,-2.7796l3.153 -1.535c0.4425,1.1616 0.7813,2.3371 1.0164,3.5264 0.2351,1.1892 0.3526,2.4477 0.3526,3.7752zm-40.7398 0c0,-1.3552 0.1314,-2.6758 0.3941,-3.9619 0.2628,-1.2861 0.6292,-2.5238 1.0994,-3.7131l3.0285 1.7839c-0.7467,1.8808 -1.1201,3.8721 -1.1201,5.9741 0,2.2126 0.3872,4.2939 1.1616,6.2437 0.7744,1.9499 1.8462,3.6716 3.2152,5.1651 1.3691,1.4935 2.9802,2.7105 4.8332,3.6508 1.8531,0.9404 3.8583,1.5212 6.0156,1.7425l0 3.3189c-2.6552,-0.2212 -5.1167,-0.8919 -7.3846,-2.0121 -2.268,-1.1201 -4.2317,-2.586 -5.8911,-4.3976 -1.6595,-1.8115 -2.9663,-3.8928 -3.9205,-6.2437 -0.9542,-2.3509 -1.4313,-4.8678 -1.4313,-7.5506zm27.8375 -8.5462l1.618 0c0.1106,0 0.1659,0.0691 0.1659,0.2074l-0.1244 0.9957 4.1486 0.0415 0.4149 0 -0.083 0.4563 -0.9957 4.8955 -0.0829 0.2489 -0.2489 0.0415 -3.6924 0.2904 -0.1244 1.1616c0,0.1106 -0.0553,0.166 -0.166,0.166 -0.1382,0 -0.2074,-0.0554 -0.2074,-0.166l-0.1245 -1.1201 -5.891 0.3733 -0.4564 8.9612 4.688 0 0.0415 0.3318 0.2489 1.9499 0.083 0.4149 -5.1444 0 -0.6638 3.1945 -0.0414 0.1659 -0.166 0.0415 -0.6638 0.3734 -0.1659 0.0829 -0.166 -0.0829 -0.7467 -0.4149 -0.166 -0.083 -0.0415 -0.1659 -0.4563 -3.1115 -5.0614 0 0.083 -0.4149 0.2074 -1.9084 0 -0.3319 0.3319 0 4.3976 -0.0414 -0.6223 -8.9612 -5.6837 -0.3733 -0.1244 1.1201c0,0.1106 -0.0553,0.166 -0.166,0.166 -0.1106,0 -0.1659,-0.0554 -0.1659,-0.166l-0.1245 -1.1616 -3.6093 -0.2904 -0.2904 -0.0415 -0.0415 -0.2489 -0.8712 -4.854 -0.083 -0.4563 0.4564 0 3.8167 -0.0415 -0.0415 -1.0372c0,-0.1383 0.0415,-0.2074 0.1245,-0.2074l1.618 0c0.1106,0 0.1659,0.0691 0.1659,0.2074l0 0.0415 -0.083 0.9957 5.2688 -0.0415 0.7053 -4.1072 0.083 -0.1659 1.1201 -1.3276 0.2904 -0.3319 0.249 0.3319 1.0786 1.3276 0.083 0.083 0.0415 0.0829 0.6638 4.1072 5.3102 0 -0.0829 -0.9542 0 -0.0415c0,-0.1383 0.0553,-0.2074 0.1659,-0.2074z"  
   id="path3605"
   style="fill:#000000;fill-opacity:1;fill-rule:nonzero;stroke:none" />
    
    

   
   </svg>
