<?xml version="1.0" encoding="UTF-8" standalone="no"?>
<!--
  #%L
  xplan-workspaces - Modul zur Gruppierung aller Workspaces
  %%
  Copyright (C) 2008 - 2022 lat/lon GmbH, info@lat-lon.de, www.lat-lon.de
  %%
  This program is free software: you can redistribute it and/or modify
  it under the terms of the GNU Affero General Public License as published by
  the Free Software Foundation, either version 3 of the License, or
  (at your option) any later version.
  
  This program is distributed in the hope that it will be useful,
  but WITHOUT ANY WARRANTY; without even the implied warranty of
  MERCHANTABILITY or FITNESS FOR A PARTICULAR PURPOSE.  See the
  GNU General Public License for more details.
  
  You should have received a copy of the GNU Affero General Public License
  along with this program.  If not, see <http://www.gnu.org/licenses/>.
  #L%
  -->

<!-- Created with Inkscape (http://www.inkscape.org/) -->

<svg
   xmlns:svg="http://www.w3.org/2000/svg"
   xmlns="http://www.w3.org/2000/svg"
   version="1.1"
   width="177.16534"
   height="177.16534"
   viewBox="0 0 50 50"
   id="svg2"
   xml:space="preserve"><defs
   id="defs11" />
 
 
     
   
   <path   
   d="M25.9247 9.7087c1.9433,0.108 3.7624,0.5506 5.4573,1.3279 1.695,0.7773 3.1794,1.8083 4.4533,3.093 1.274,1.2848 2.2996,2.7746 3.0769,4.4696 0.7773,1.6949 1.2307,3.514 1.3603,5.4573l2.5262 0c-0.1079,-2.2672 -0.6207,-4.3994 -1.5384,-6.3966 -0.9176,-1.9973 -2.1322,-3.7516 -3.6436,-5.263 -1.5114,-1.5114 -3.2657,-2.726 -5.263,-3.6436 -1.9972,-0.9177 -4.1403,-1.4305 -6.429,-1.5384l0 2.4938zm0 30.6712l0 2.4939c2.2887,-0.1295 4.4318,-0.6477 6.429,-1.5546 1.9973,-0.9069 3.7516,-2.1052 5.263,-3.5951 1.5114,-1.4898 2.726,-3.2279 3.6436,-5.2144 0.9177,-1.9864 1.4305,-4.1349 1.5384,-6.4451l-2.5262 0c-0.1296,1.9433 -0.583,3.7623 -1.3603,5.4572 -0.7773,1.6951 -1.8029,3.1849 -3.0769,4.4696 -1.2739,1.2847 -2.7583,2.3157 -4.4533,3.0931 -1.6949,0.7772 -3.514,1.2091 -5.4573,1.2954zm-18.7849 -16.3234l2.4939 0c0.1511,-1.9001 0.6153,-3.6868 1.3926,-5.3601 0.7774,-1.6734 1.7976,-3.1471 3.0607,-4.421 1.2631,-1.2739 2.7367,-2.3103 4.4209,-3.1092 1.6842,-0.7989 3.4978,-1.274 5.4411,-1.4251l0 -2.5262c-2.3102,0.1511 -4.4533,0.6909 -6.4289,1.6194 -1.9757,0.9284 -3.7085,2.1429 -5.1982,3.6436 -1.4899,1.5006 -2.6882,3.2388 -3.5951,5.2144 -0.9069,1.9757 -1.4359,4.097 -1.587,6.3642zm16.8092 16.3234c-1.9433,-0.1511 -3.7623,-0.6153 -5.4572,-1.3926 -1.6951,-0.7774 -3.1794,-1.7976 -4.4534,-3.0607 -1.274,-1.2631 -2.2995,-2.7314 -3.0769,-4.4048 -0.7773,-1.6733 -1.2198,-3.4816 -1.3278,-5.4249l-2.4939 0c0.1295,2.2888 0.6477,4.421 1.5546,6.3966 0.9069,1.9757 2.1052,3.7085 3.5951,5.1982 1.4898,1.4899 3.2279,2.6882 5.2144,3.5951 1.9864,0.9069 4.1349,1.4359 6.4451,1.587l0 -2.4939zm18.5259 -16.6473l-1.9433 0c-0.1511,-1.9001 -0.6208,-3.6868 -1.4089,-5.3601 -0.7881,-1.6734 -1.8191,-3.1417 -3.093,-4.4048 -1.274,-1.2631 -2.7476,-2.2887 -4.421,-3.0768 -1.6733,-0.7881 -3.46,-1.2578 -5.3601,-1.4089l0 -1.9433c2.1592,0.1512 4.1888,0.6748 6.0889,1.5708 1.9001,0.8961 3.5788,2.0674 5.0363,3.5141 1.4574,1.4467 2.6342,3.1201 3.5303,5.0201 0.896,1.9001 1.4196,3.9297 1.5708,6.0889zm-1.9433 2.6558l1.9433 0c-0.1512,2.1808 -0.6748,4.2212 -1.5708,6.1213 -0.8961,1.9001 -2.0729,3.568 -3.5303,5.0039 -1.4575,1.4359 -3.1362,2.5964 -5.0363,3.4817 -1.9001,0.8852 -3.9297,1.4143 -6.0889,1.587l0 -1.9109c1.9001,-0.1295 3.6868,-0.5884 5.3601,-1.3765 1.6734,-0.7881 3.147,-1.819 4.421,-3.0929 1.2739,-1.274 2.3049,-2.7477 3.093,-4.421 0.7881,-1.6734 1.2578,-3.4709 1.4089,-5.3926zm-33.0679 0.0324l1.9109 0c0.1295,1.9001 0.5883,3.6815 1.3765,5.344 0.7881,1.6625 1.8136,3.1255 3.0768,4.3885 1.2631,1.2632 2.7314,2.2888 4.4047,3.0769 1.6734,0.7881 3.4709,1.2577 5.3926,1.4088l0 1.8785c-2.1808,-0.1943 -4.2212,-0.7341 -6.1213,-1.6194 -1.9001,-0.8852 -3.568,-2.0404 -5.0039,-3.4654 -1.4359,-1.4251 -2.5964,-3.0715 -3.4817,-4.9392 -0.8852,-1.8676 -1.4035,-3.8919 -1.5546,-6.0727zm1.9433 -2.6882l-1.9109 0c0.1727,-2.1159 0.7017,-4.1132 1.587,-5.9917 0.8853,-1.8785 2.0458,-3.5411 3.4816,-4.9877 1.4359,-1.4467 3.0931,-2.6289 4.9716,-3.5465 1.8784,-0.9177 3.9081,-1.4737 6.0889,-1.668l0 1.9433c-1.9001,0.1728 -3.6868,0.664 -5.3602,1.4737 -1.6733,0.8096 -3.1417,1.8514 -4.4047,3.1254 -1.2632,1.2739 -2.2888,2.7367 -3.0769,4.3885 -0.7881,1.6518 -1.2469,3.4062 -1.3764,5.263z" 
   id="path3605"
   style="fill:#666666;fill-opacity:1;fill-rule:nonzero;stroke:none" />
   
   
   <path   
   d="M35.1108 25.0539c0,-1.402 -0.2629,-2.7187 -0.7887,-3.9499 -0.5257,-1.2313 -1.2447,-2.3075 -2.1569,-3.2287 -0.9122,-0.9212 -1.9795,-1.6492 -3.2018,-2.184 -1.2222,-0.5347 -2.5344,-0.8021 -3.9364,-0.8021 -0.9527,0 -1.8627,0.1213 -2.7299,0.364 -0.8673,0.2426 -1.6762,0.5842 -2.4266,1.0245 -0.7505,0.4404 -1.4313,0.9707 -2.0424,1.5908 -0.6112,0.6201 -1.1347,1.3077 -1.5706,2.0626 -0.4359,0.7549 -0.7729,1.5638 -1.0111,2.4266 -0.2381,0.8628 -0.3572,1.7615 -0.3572,2.6962 0,0.9347 0.1191,1.8335 0.3572,2.6962 0.2382,0.8628 0.5752,1.6672 1.0111,2.4131 0.4359,0.746 0.9594,1.4223 1.5706,2.029 0.6111,0.6066 1.2919,1.1256 2.0424,1.557 0.7504,0.4314 1.5593,0.7662 2.4266,1.0044 0.8672,0.2381 1.7772,0.3572 2.7299,0.3572 0.9346,0 1.8311,-0.1191 2.6894,-0.3572 0.8583,-0.2382 1.6605,-0.573 2.4064,-1.0044 0.746,-0.4314 1.4267,-0.9504 2.0424,-1.557 0.6156,-0.6067 1.1414,-1.283 1.5773,-2.029 0.4359,-0.7459 0.7729,-1.5503 1.0111,-2.4131 0.2381,-0.8627 0.3572,-1.7615 0.3572,-2.6962zm-1.6851 -0.0539c0,1.1594 -0.218,2.2491 -0.6539,3.2692 -0.4358,1.02 -1.0313,1.912 -1.7862,2.6759 -0.7549,0.764 -1.6424,1.3684 -2.6625,1.8133 -1.0201,0.4448 -2.1098,0.6673 -3.2692,0.6673 -0.7819,0 -1.5346,-0.0989 -2.2581,-0.2966 -0.7235,-0.1977 -1.3997,-0.4786 -2.0288,-0.8426 -0.6292,-0.364 -1.2021,-0.7999 -1.7189,-1.3076 -0.5168,-0.5078 -0.9571,-1.074 -1.3211,-1.6987 -0.364,-0.6246 -0.6471,-1.2942 -0.8493,-2.0087 -0.2023,-0.7144 -0.3034,-1.4581 -0.3034,-2.2311 0,-1.1503 0.2202,-2.2401 0.6606,-3.2691 0.4404,-1.0291 1.0448,-1.9278 1.8132,-2.6962 0.7684,-0.7684 1.6672,-1.3774 2.6962,-1.8267 1.0291,-0.4494 2.1323,-0.6741 3.3096,-0.6741 1.1594,0 2.2469,0.2225 3.2625,0.6673 1.0155,0.4449 1.903,1.0493 2.6625,1.8133 0.7594,0.7639 1.3571,1.6559 1.7929,2.6759 0.4359,1.0201 0.6539,2.1098 0.6539,3.2692z" 
   id="path3605"
   style="fill:#666666;fill-opacity:1;fill-rule:nonzero;stroke:none" />
    
    

   
   </svg>
