<?xml version="1.0" encoding="UTF-8" standalone="no"?>
<!--
  #%L
  xplan-workspaces - Modul zur Gruppierung aller Workspaces
  %%
  Copyright (C) 2008 - 2022 lat/lon GmbH, info@lat-lon.de, www.lat-lon.de
  %%
  This program is free software: you can redistribute it and/or modify
  it under the terms of the GNU Affero General Public License as published by
  the Free Software Foundation, either version 3 of the License, or
  (at your option) any later version.
  
  This program is distributed in the hope that it will be useful,
  but WITHOUT ANY WARRANTY; without even the implied warranty of
  MERCHANTABILITY or FITNESS FOR A PARTICULAR PURPOSE.  See the
  GNU General Public License for more details.
  
  You should have received a copy of the GNU Affero General Public License
  along with this program.  If not, see <http://www.gnu.org/licenses/>.
  #L%
  -->

<!-- Created with Inkscape (http://www.inkscape.org/) -->

<svg
   xmlns:svg="http://www.w3.org/2000/svg"
   xmlns="http://www.w3.org/2000/svg"
   version="1.1"
   width="177.16534"
   height="177.16534"
   viewBox="0 0 50 50"
   id="svg2"
   xml:space="preserve"><defs
   id="defs11" />
 
   
   <polygon   
   points="42.7492,42.6525 42.7492,7.2644 7.3611,7.2644 7.3611,42.6525 "   
   id="path3604"
   style="fill:#823CB4;fill-opacity:1;fill-rule:nonzero;stroke:none" />
     
   
   <path   
   d="M42.7906 42.7147l-35.471 0 0 -35.5125 35.471 0 0 35.5125zm-2.4892 -2.3647l0 -30.6586 -30.4926 0 0 30.6586 30.4926 0z"   
   id="path3605"
   style="fill:#000000;fill-opacity:1;fill-rule:nonzero;stroke:none" />
   
   
   <path   
   d="M19.0642 32.7353l4.8771 -15.4706 1.8046 0 5.1905 15.4706 -1.9199 0 -1.4768 -4.6862 -5.2986 0 -1.3939 4.6862 -1.783 0zm3.6632 -6.354l4.2936 0 -1.3183 -4.2827c-0.407,-1.3147 -0.706,-2.3845 -0.8969,-3.2094 -0.1621,0.9942 -0.389,1.9775 -0.688,2.9573l-1.3904 4.5348z"  
   id="path3605"
   style="fill:#000000;fill-opacity:1;fill-rule:nonzero;stroke:none" />
    
    
	
   
   </svg>
