<?xml version="1.0" encoding="UTF-8" standalone="no"?>
<!--
  #%L
  xplan-workspaces - Modul zur Gruppierung aller Workspaces
  %%
  Copyright (C) 2008 - 2022 lat/lon GmbH, info@lat-lon.de, www.lat-lon.de
  %%
  This program is free software: you can redistribute it and/or modify
  it under the terms of the GNU Affero General Public License as published by
  the Free Software Foundation, either version 3 of the License, or
  (at your option) any later version.
  
  This program is distributed in the hope that it will be useful,
  but WITHOUT ANY WARRANTY; without even the implied warranty of
  MERCHANTABILITY or FITNESS FOR A PARTICULAR PURPOSE.  See the
  GNU General Public License for more details.
  
  You should have received a copy of the GNU Affero General Public License
  along with this program.  If not, see <http://www.gnu.org/licenses/>.
  #L%
  -->

<!-- Created with Inkscape (http://www.inkscape.org/) -->

<svg
   xmlns:svg="http://www.w3.org/2000/svg"
   xmlns="http://www.w3.org/2000/svg"
   version="1.1"
   width="177.16534"
   height="177.16534"
   viewBox="0 0 50 50"
   id="svg2"
   xml:space="preserve"><defs
   id="defs11" />
 

   
   
   <path   
   d="M39.5523 25.0069c0,1.9869 -0.3781,3.8551 -1.1342,5.6049 -0.7563,1.7496 -1.7868,3.2767 -3.0917,4.5816 -1.3047,1.3048 -2.8394,2.3353 -4.6038,3.0915 -1.7645,0.7562 -3.6549,1.1343 -5.6715,1.1343 -2.0165,0 -3.8997,-0.3707 -5.6493,-1.1121 -1.7496,-0.7413 -3.2843,-1.757 -4.6038,-3.047 -1.3197,-1.29 -2.3576,-2.8024 -3.1138,-4.5371 -0.7562,-1.7349 -1.1343,-3.6106 -1.1343,-5.6271 0,-2.0165 0.3781,-3.9144 1.1343,-5.6937 0.7562,-1.7793 1.7941,-3.3288 3.1138,-4.6484 1.3195,-1.3196 2.8542,-2.3575 4.6038,-3.1138 1.7496,-0.7562 3.6328,-1.1343 5.6493,-1.1343 2.0166,0 3.907,0.3781 5.6715,1.1343 1.7644,0.7563 3.2991,1.7868 4.6038,3.0915 1.3049,1.3049 2.3354,2.8396 3.0917,4.604 0.7561,1.7644 1.1342,3.6549 1.1342,5.6714z"   
   id="path3604"
   style="fill:#FBFBFB;fill-opacity:1;fill-rule:nonzero;stroke:none" />
   
   
   <path   
   d="M39.6377 25.0207c0,-2.019 -0.3803,-3.9274 -1.1409,-5.7251 -0.7606,-1.7978 -1.7908,-3.3604 -3.0908,-4.688 -1.2999,-1.3276 -2.8418,-2.3786 -4.6257,-3.153 -1.7839,-0.7744 -3.6854,-1.1616 -5.7044,-1.1616 -2.0467,0 -3.962,0.3872 -5.7459,1.1616 -1.7839,0.7744 -3.3328,1.8254 -4.6465,3.153 -1.3138,1.3276 -2.344,2.8902 -3.0908,4.688 -0.7467,1.7977 -1.1201,3.7061 -1.1201,5.7251 0,2.0467 0.3734,3.962 1.1201,5.7459 0.7468,1.7839 1.777,3.3328 3.0908,4.6465 1.3137,1.3138 2.8626,2.344 4.6465,3.0908 1.7839,0.7467 3.6992,1.1201 5.7459,1.1201 2.019,0 3.9205,-0.3734 5.7044,-1.1201 1.7839,-0.7468 3.3258,-1.777 4.6257,-3.0908 1.3,-1.3137 2.3302,-2.8626 3.0908,-4.6465 0.7606,-1.7839 1.1409,-3.6992 1.1409,-5.7459zm-2.4062 0c0,1.7148 -0.3181,3.312 -0.9542,4.7917 -0.6362,1.4797 -1.5005,2.7796 -2.5929,3.8998 -1.0925,1.1201 -2.3786,1.9982 -3.8583,2.6344 -1.4797,0.6361 -3.0631,0.9542 -4.7502,0.9542 -1.6871,0 -3.2775,-0.3181 -4.771,-0.9542 -1.4935,-0.6362 -2.7934,-1.5143 -3.8997,-2.6344 -1.1063,-1.1202 -1.9845,-2.4201 -2.6344,-3.8998 -0.65,-1.4797 -0.975,-3.0769 -0.975,-4.7917 0,-1.6871 0.325,-3.2774 0.975,-4.7709 0.6499,-1.4936 1.5281,-2.7935 2.6344,-3.8998 1.1063,-1.1063 2.4062,-1.9844 3.8997,-2.6344 1.4935,-0.6499 3.0839,-0.9749 4.771,-0.9749 1.6871,0 3.2705,0.325 4.7502,0.9749 1.4797,0.65 2.7658,1.5281 3.8583,2.6344 1.0924,1.1063 1.9567,2.4062 2.5929,3.8998 0.6361,1.4935 0.9542,3.0838 0.9542,4.7709zm-17.217 8.8781l0 -17.8807 5.3103 0c0.9957,0 1.9499,0.1521 2.8626,0.4564 0.5531,0.3042 1.0233,0.8712 1.4105,1.7009 0.3872,0.8298 0.5808,1.7701 0.5808,2.8211 0,2.8764 -1.1063,4.5497 -3.3189,5.0199 0.2766,0.2213 0.5186,0.4425 0.726,0.6638 0.2075,0.2212 0.408,0.484 0.6016,0.7882 0.1936,0.3043 0.401,0.6915 0.6223,1.1617 0.2212,0.4701 0.4978,1.0648 0.8297,1.7839l1.4935 3.4848 -2.9455 0 -1.8254 -3.8997c-0.3043,-0.7191 -0.5739,-1.293 -0.809,-1.7217 -0.2351,-0.4287 -0.408,-0.726 -0.5186,-0.8919 -0.2213,-0.3319 -0.4702,-0.5809 -0.7468,-0.7468 -0.7744,-0.1383 -1.1892,-0.2074 -1.2446,-0.2074l-0.5393 0 0 7.4675 -2.4892 0zm2.4892 -10.3301l1.8254 0c0.6362,0 1.1202,-0.0069 1.4521,-0.0208 0.3318,-0.0138 0.5877,-0.0553 0.7675,-0.1244 0.1797,-0.0692 0.3111,-0.159 0.3941,-0.2697 0.083,-0.1106 0.1936,-0.2627 0.3319,-0.4563 0.1936,-0.2766 0.2904,-0.7606 0.2904,-1.4521 0,-1.0786 -0.3596,-1.7701 -1.0787,-2.0743 -0.2489,-0.083 -0.8988,-0.1245 -1.9498,-0.1245l-2.0329 0 0 4.5221z" 
   id="path3605"
   style="fill:#64C800;fill-opacity:1;fill-rule:nonzero;stroke:none" />
   
   
   
 
   
   
   
   
   
   
   </svg>
