<?xml version="1.0" encoding="UTF-8" standalone="no"?>
<!--
  #%L
  xplan-workspaces - Modul zur Gruppierung aller Workspaces
  %%
  Copyright (C) 2008 - 2022 lat/lon GmbH, info@lat-lon.de, www.lat-lon.de
  %%
  This program is free software: you can redistribute it and/or modify
  it under the terms of the GNU Affero General Public License as published by
  the Free Software Foundation, either version 3 of the License, or
  (at your option) any later version.
  
  This program is distributed in the hope that it will be useful,
  but WITHOUT ANY WARRANTY; without even the implied warranty of
  MERCHANTABILITY or FITNESS FOR A PARTICULAR PURPOSE.  See the
  GNU General Public License for more details.
  
  You should have received a copy of the GNU Affero General Public License
  along with this program.  If not, see <http://www.gnu.org/licenses/>.
  #L%
  -->

<!-- Created with Inkscape (http://www.inkscape.org/) -->

<svg
   xmlns:svg="http://www.w3.org/2000/svg"
   xmlns="http://www.w3.org/2000/svg"
   version="1.1"
   width="177.16534"
   height="177.16534"
   viewBox="0 0 50 50"
   id="svg2"
   xml:space="preserve"><defs
   id="defs11" />
 
   

     
   
   <path   
   d="M40.7443 25.0481c0,2.1573 -0.4106,4.1857 -1.2315,6.0854 -0.8211,1.8996 -1.9399,3.5577 -3.3567,4.9744 -1.4166,1.4166 -3.0828,2.5355 -4.9985,3.3565 -1.9158,0.8211 -3.9682,1.2315 -6.1577,1.2315 -2.1894,0 -4.2339,-0.4024 -6.1336,-1.2074 -1.8996,-0.8049 -3.5658,-1.9076 -4.9985,-3.3082 -1.4328,-1.4005 -2.5596,-3.0427 -3.3807,-4.9261 -0.8211,-1.8835 -1.2315,-3.9201 -1.2315,-6.1094 0,-2.1894 0.4104,-4.25 1.2315,-6.1819 0.8211,-1.9317 1.9479,-3.6141 3.3807,-5.0468 1.4327,-1.4328 3.0989,-2.5597 4.9985,-3.3807 1.8997,-0.8211 3.9442,-1.2316 6.1336,-1.2316 2.1895,0 4.2419,0.4105 6.1577,1.2316 1.9157,0.821 3.5819,1.9399 4.9985,3.3565 1.4168,1.4167 2.5356,3.0829 3.3567,4.9986 0.8209,1.9157 1.2315,3.9683 1.2315,6.1576z"  
   id="path3605"
   style="fill:#FF0000;fill-opacity:1;fill-rule:nonzero;stroke:none" />
   
   
   <path   
   d="M9.228 25.0207c0,-2.268 0.3872,-4.2593 1.1616,-5.9741l2.3648 1.3691c-0.5809,1.4658 -0.8713,3.0147 -0.8713,4.6465 0,1.4935 0.2282,2.9109 0.6846,4.2523 0.4563,1.3414 1.0925,2.5584 1.9084,3.6509 0.8159,1.0924 1.7839,2.0397 2.904,2.8418 1.1202,0.8021 2.3578,1.4105 3.7131,1.8254l9.3759 -13.0683 -14.5203 2.3233 10.7451 -14.9352c-0.5532,-0.083 -1.0925,-0.1245 -1.618,-0.1245 -2.4339,0 -4.6258,0.5809 -6.5756,1.7425 -1.9499,1.1616 -3.5057,2.6551 -4.6673,4.4805l-2.2818 -1.2861c1.4106,-2.3509 3.2913,-4.2039 5.6422,-5.5592 2.3509,-1.3552 4.9922,-2.0328 7.924,-2.0328 1.4658,0 2.8695,0.1936 4.2109,0.5808 1.3414,0.3872 2.5929,0.9196 3.7545,1.5972 1.1616,0.6777 2.2195,1.5005 3.1737,2.4685 0.9542,0.968 1.777,2.0328 2.4685,3.1945l-2.4892 1.2031c-0.7744,-1.3553 -1.7632,-2.5307 -2.9663,-3.5264 -1.2031,-0.9957 -2.5653,-1.7286 -4.0864,-2.1988l-10.2057 12.7364 14.3543 -2.2818 -9.7078 15.1841 0.0829 0 0 2.5722c-2.0466,-0.1659 -3.955,-0.6845 -5.7251,-1.5557 -1.7701,-0.8713 -3.3051,-2.0121 -4.605,-3.4227 -1.3,-1.4105 -2.3164,-3.0285 -3.0493,-4.8539 -0.7329,-1.8254 -1.0994,-3.7753 -1.0994,-5.8496zm31.6543 0c0,2.0743 -0.3734,4.0311 -1.1202,5.8703 -0.7467,1.8393 -1.777,3.4642 -3.0907,4.8747 -1.3138,1.4106 -2.8557,2.5514 -4.6258,3.4227 -1.7701,0.8712 -3.6646,1.3898 -5.6836,1.5557l0 -2.6137c1.6594,-0.1659 3.2083,-0.6223 4.6465,-1.369 1.4382,-0.7468 2.6828,-1.701 3.7338,-2.8626 1.051,-1.1616 1.8807,-2.503 2.4892,-4.0242 0.6084,-1.5212 0.9127,-3.153 0.9127,-4.8954 0,-1.6595 -0.2628,-3.1392 -0.7883,-4.4391l2.4477 -1.2031c0.3596,0.8851 0.6292,1.7909 0.809,2.7174 0.1798,0.9265 0.2697,1.9153 0.2697,2.9663z" 
   id="path3605"
   style="fill:#000000;fill-opacity:1;fill-rule:nonzero;stroke:none" />
    
    

   
   </svg>
