<?xml version="1.0" encoding="UTF-8" standalone="no"?>
<!--
  #%L
  xplan-workspaces - Modul zur Gruppierung aller Workspaces
  %%
  Copyright (C) 2008 - 2022 lat/lon GmbH, info@lat-lon.de, www.lat-lon.de
  %%
  This program is free software: you can redistribute it and/or modify
  it under the terms of the GNU Affero General Public License as published by
  the Free Software Foundation, either version 3 of the License, or
  (at your option) any later version.
  
  This program is distributed in the hope that it will be useful,
  but WITHOUT ANY WARRANTY; without even the implied warranty of
  MERCHANTABILITY or FITNESS FOR A PARTICULAR PURPOSE.  See the
  GNU General Public License for more details.
  
  You should have received a copy of the GNU Affero General Public License
  along with this program.  If not, see <http://www.gnu.org/licenses/>.
  #L%
  -->

<!-- Created with Inkscape (http://www.inkscape.org/) -->

<svg
   xmlns:svg="http://www.w3.org/2000/svg"
   xmlns="http://www.w3.org/2000/svg"
   version="1.1"
   width="177.16534"
   height="177.16534"
   viewBox="0 0 50 50"
   id="svg2"
   xml:space="preserve"><defs
   id="defs11" />
 
   
   <polygon   
   points="41.0714,43.4746 9.0037,43.4746 9.0037,11.3321 41.0714,11.3321 "  
   id="path3604"
   style="fill:#AA50AA;fill-opacity:1;fill-rule:nonzero;stroke:none" />
     
   
   <path   
   d="M41.2349 43.6274l0 -32.3595 -32.3595 0 0 32.3595 32.3595 0zm-3.3189 -3.3189l-25.7217 0 0 -25.7217 25.7217 0 0 25.7217zm3.3189 -33.1893l-32.3595 0 0 -0.8297 32.3595 0 0 0.8297z"  
   id="path3605"
   style="fill:#000000;fill-opacity:1;fill-rule:nonzero;stroke:none" />
   
    <polygon   
   points="14.3919,34.9132 14.3919,20.28 24.9707,20.28 24.9707,22.0073 16.3271,22.0073 16.3271,26.4876 24.4222,26.4876 24.4222,28.2048 16.3271,28.2048 16.3271,33.1858 25.3114,33.1858 25.3114,34.9132 " 
   id="path3604"
   style="fill:#000000;fill-opacity:1;fill-rule:nonzero;stroke:none" />
   
   <path   
   d="M25.849 29.5256c0,-1.9284 0.5357,-3.3578 1.6103,-4.2852 0.8939,-0.77 1.9852,-1.1583 3.2741,-1.1583 1.4329,0 2.6046,0.4687 3.5119,1.4094 0.9106,0.9374 1.3625,2.233 1.3625,3.8868 0,1.3425 -0.2008,2.397 -0.6026,3.1636 -0.4017,0.7701 -0.9876,1.3659 -1.7542,1.7911 -0.77,0.4252 -1.6069,0.6361 -2.5176,0.6361 -1.4562,0 -2.6347,-0.4653 -3.5352,-1.4027 -0.9006,-0.9341 -1.3492,-2.2799 -1.3492,-4.0408zm1.8145 0c0,1.3358 0.2913,2.3334 0.8738,2.9963 0.5825,0.6662 1.3156,0.9976 2.1961,0.9976 0.8772,0 1.607,-0.3348 2.1895,-1.001 0.5792,-0.6662 0.8704,-1.6839 0.8704,-3.0498 0,-1.289 -0.2912,-2.2665 -0.8771,-2.9293 -0.5859,-0.6629 -1.3123,-0.9943 -2.1828,-0.9943 -0.8805,0 -1.6136,0.3314 -2.1961,0.9909 -0.5825,0.6595 -0.8738,1.6572 -0.8738,2.9896zm0.3147 -7.248l0 -2.0087 1.8446 0 0 2.0087 -1.8446 0zm3.6558 0l0 -2.0087 1.8446 0 0 2.0087 -1.8446 0z"  
   id="path3605"
   style="fill:#000000;fill-opacity:1;fill-rule:nonzero;stroke:none" />
    
    

   
   </svg>
