<?xml version="1.0" encoding="UTF-8" standalone="no"?>
<!--
  #%L
  xplan-workspaces - Modul zur Gruppierung aller Workspaces
  %%
  Copyright (C) 2008 - 2022 lat/lon GmbH, info@lat-lon.de, www.lat-lon.de
  %%
  This program is free software: you can redistribute it and/or modify
  it under the terms of the GNU Affero General Public License as published by
  the Free Software Foundation, either version 3 of the License, or
  (at your option) any later version.
  
  This program is distributed in the hope that it will be useful,
  but WITHOUT ANY WARRANTY; without even the implied warranty of
  MERCHANTABILITY or FITNESS FOR A PARTICULAR PURPOSE.  See the
  GNU General Public License for more details.
  
  You should have received a copy of the GNU Affero General Public License
  along with this program.  If not, see <http://www.gnu.org/licenses/>.
  #L%
  -->

<!-- Created with Inkscape (http://www.inkscape.org/) -->

<svg
   xmlns:svg="http://www.w3.org/2000/svg"
   xmlns="http://www.w3.org/2000/svg"
   version="1.1"
   width="177.16534"
   height="177.16534"
   viewBox="0 0 50 50"
   id="svg2"
   xml:space="preserve"><defs
   id="defs11" />
 

     
   
   <path   
   d="M38.5798 24.9999c0,1.8531 -0.3527,3.5955 -1.0579,5.2274 -0.7053,1.6318 -1.6664,3.0561 -2.8834,4.2731 -1.2169,1.2169 -2.6482,2.178 -4.2938,2.8833 -1.6457,0.7053 -3.4088,1.0579 -5.2896,1.0579 -1.8807,0 -3.637,-0.3457 -5.2688,-1.0372 -1.6318,-0.6914 -3.0631,-1.6387 -4.2938,-2.8418 -1.2308,-1.2031 -2.1988,-2.6137 -2.9041,-4.2316 -0.7053,-1.618 -1.0579,-3.3674 -1.0579,-5.2481 0,-1.8807 0.3526,-3.6508 1.0579,-5.3103 0.7053,-1.6594 1.6733,-3.1046 2.9041,-4.3353 1.2307,-1.2308 2.662,-2.1988 4.2938,-2.9041 1.6318,-0.7053 3.3881,-1.0579 5.2688,-1.0579 1.8808,0 3.6439,0.3526 5.2896,1.0579 1.6456,0.7053 3.0769,1.6664 4.2938,2.8833 1.217,1.217 2.1781,2.6483 2.8834,4.2939 0.7052,1.6456 1.0579,3.4088 1.0579,5.2895z"  
   id="path3605"
   style="fill:#FBFBFB;fill-opacity:1;fill-rule:nonzero;stroke:none" />
   
   <polygon 
   points="17.5668,17.2649 22.7111,17.2649 22.7111,19.7512 27.4406,19.7512 27.4406,17.2649 32.5435,17.2649 32.5435,24.3976 28.7682,24.3976 28.7682,34.9132 21.3421,34.9132 21.3421,24.3976 17.5668,24.3976 "
   id="path3604"
   style="fill:#A6A6A6;fill-opacity:1;fill-rule:nonzero;stroke:none" />
   
   <path   
   d="M17.5461 17.1175l5.1443 0 0 2.5307 4.7295 0 0 -2.5307 5.1028 0 0 7.2601 -3.7753 0 0 10.7036 -7.4261 0 0 -10.7036 -3.7752 0 0 -7.2601zm3.8997 1.2861l-2.6137 0 0 4.7294 3.7753 0 0 10.6621 4.854 0 0 -10.6621 3.7752 0 0 -4.7294 -2.5306 0 0 2.5306 -7.2602 0 0 -2.5306zm2.987 12.5289l0 -7.4261 1.2031 0 0 7.4261 -1.2031 0zm14.147 -5.9326c0,1.8808 -0.3458,3.637 -1.0372,5.2688 -0.6914,1.6318 -1.6456,3.0493 -2.8626,4.2524 -1.2169,1.2031 -2.6482,2.1504 -4.2938,2.8418 -1.6457,0.6915 -3.4089,1.0372 -5.2896,1.0372 -1.9084,0 -3.6854,-0.3457 -5.331,-1.0372 -1.6456,-0.6914 -3.0769,-1.6387 -4.2939,-2.8418 -1.2169,-1.2031 -2.178,-2.6206 -2.8833,-4.2524 -0.7053,-1.6318 -1.0579,-3.388 -1.0579,-5.2688 0,-1.853 0.3526,-3.5955 1.0579,-5.2273 0.7053,-1.6318 1.6664,-3.0631 2.8833,-4.2938 1.217,-1.2308 2.6483,-2.1988 4.2939,-2.9041 1.6456,-0.7053 3.4226,-1.0579 5.331,-1.0579 1.8807,0 3.6439,0.3526 5.2896,1.0579 1.6456,0.7053 3.0769,1.6733 4.2938,2.9041 1.217,1.2307 2.1712,2.662 2.8626,4.2938 0.6914,1.6318 1.0372,3.3743 1.0372,5.2273zm-2.1159 -0.0415c0,-1.5764 -0.2973,-3.0561 -0.8919,-4.439 -0.5947,-1.3829 -1.4106,-2.5929 -2.4477,-3.6301 -1.0372,-1.0372 -2.2541,-1.8531 -3.6508,-2.4477 -1.3968,-0.5947 -2.8834,-0.892 -4.4599,-0.892 -1.5764,0 -3.063,0.2973 -4.4598,0.892 -1.3967,0.5946 -2.6136,1.4105 -3.6508,2.4477 -1.0372,1.0372 -1.8531,2.2472 -2.4477,3.6301 -0.5946,1.3829 -0.892,2.8626 -0.892,4.439 0,1.5765 0.2974,3.0562 0.892,4.4391 0.5946,1.3829 1.4105,2.5929 2.4477,3.6301 1.0372,1.0372 2.2541,1.8531 3.6508,2.4477 1.3968,0.5946 2.8834,0.892 4.4598,0.892 1.5765,0 3.0631,-0.2974 4.4599,-0.892 1.3967,-0.5946 2.6136,-1.4105 3.6508,-2.4477 1.0371,-1.0372 1.853,-2.2472 2.4477,-3.6301 0.5946,-1.3829 0.8919,-2.8626 0.8919,-4.4391z"  
   id="path3606"
   style="fill:#000000;fill-opacity:1;fill-rule:nonzero;stroke:none" />
    
  
   
   </svg>
