<?xml version="1.0" encoding="UTF-8" standalone="no"?>
<!--
  #%L
  xplan-workspaces - Modul zur Gruppierung aller Workspaces
  %%
  Copyright (C) 2008 - 2022 lat/lon GmbH, info@lat-lon.de, www.lat-lon.de
  %%
  This program is free software: you can redistribute it and/or modify
  it under the terms of the GNU Affero General Public License as published by
  the Free Software Foundation, either version 3 of the License, or
  (at your option) any later version.
  
  This program is distributed in the hope that it will be useful,
  but WITHOUT ANY WARRANTY; without even the implied warranty of
  MERCHANTABILITY or FITNESS FOR A PARTICULAR PURPOSE.  See the
  GNU General Public License for more details.
  
  You should have received a copy of the GNU Affero General Public License
  along with this program.  If not, see <http://www.gnu.org/licenses/>.
  #L%
  -->

<!-- Created with Inkscape (http://www.inkscape.org/) -->

<svg
   xmlns:svg="http://www.w3.org/2000/svg"
   xmlns="http://www.w3.org/2000/svg"
   version="1.1"
   width="177.16534"
   height="177.16534"
   viewBox="0 0 50 50"
   id="svg2"
   xml:space="preserve"><defs
   id="defs11" />
 
 
     
   
   <path   
   d="M23.6031 47.0293c-2.7934,-0.1936 -5.4071,-0.8505 -7.841,-1.9706 -2.4338,-1.1202 -4.5635,-2.5929 -6.3889,-4.4184 -1.8254,-1.8254 -3.2982,-3.9412 -4.4183,-6.3474 -1.1201,-2.4062 -1.7632,-5.0061 -1.9291,-7.7995l-2.9041 0c0.1659,3.1807 0.8781,6.1608 2.1366,8.9404 1.2584,2.7796 2.9317,5.2135 5.0198,7.3016 2.0882,2.0882 4.529,3.7615 7.3224,5.0199 2.7935,1.2584 5.7943,1.9568 9.0026,2.0951l0 -2.8211zm2.8211 0l0 2.8211c2.102,-0.083 4.1348,-0.4218 6.0985,-1.0164 1.9637,-0.5947 3.803,-1.4037 5.5178,-2.427 1.7147,-1.0234 3.2843,-2.2403 4.7087,-3.6508 1.4244,-1.4106 2.662,-2.9663 3.713,-4.6673 1.051,-1.7009 1.8808,-3.5333 2.4892,-5.497 0.6085,-1.9637 0.9542,-4.0103 1.0372,-6.14l-2.8626 0c-0.1659,2.7935 -0.8159,5.4071 -1.9499,7.841 -1.1339,2.4339 -2.6205,4.5774 -4.4598,6.4304 -1.8392,1.8531 -3.9827,3.3328 -6.4304,4.4391 -2.4477,1.1063 -5.0683,1.7286 -7.8617,1.8669zm-26.3025 -23.3985l2.9041 0c0.1936,-2.7381 0.8504,-5.3172 1.9706,-7.7372 1.1201,-2.4201 2.5929,-4.5566 4.4183,-6.4097 1.8254,-1.8531 3.9481,-3.3535 6.3682,-4.5013 2.42,-1.1478 5.0268,-1.8185 7.8202,-2.0121l0 -2.904c-3.2083,0.2212 -6.1953,0.9818 -8.9611,2.2817 -2.7658,1.2999 -5.1927,2.994 -7.2809,5.0821 -2.0881,2.0882 -3.7684,4.5221 -5.0406,7.3017 -1.2723,2.7796 -2.0052,5.7459 -2.1988,8.8988zm26.3025 -23.5643l0 2.8625c2.7934,0.166 5.414,0.8159 7.8617,1.9499 2.4477,1.134 4.5912,2.6206 6.4304,4.4598 1.8393,1.8392 3.3259,3.9827 4.4598,6.4304 1.134,2.4477 1.784,5.0683 1.9499,7.8617l2.8626 0c-0.166,-3.1806 -0.8851,-6.1676 -2.1573,-8.9611 -1.2723,-2.7934 -2.9663,-5.2411 -5.0821,-7.3431 -2.1158,-2.102 -4.5705,-3.796 -7.3639,-5.0821 -2.7934,-1.2861 -5.7805,-2.0121 -8.9611,-2.178zm21.0752 26.8418l2.0328 0c-0.2212,3.07 -0.9542,5.9326 -2.1987,8.5877 -1.2446,2.6552 -2.8765,4.9853 -4.8955,6.9905 -2.019,2.0052 -4.3561,3.6232 -7.0112,4.8539 -2.6551,1.2308 -5.5039,1.9568 -8.5462,2.1781l0 -2.0743c2.7657,-0.1937 5.3586,-0.8505 7.7787,-1.9707 2.42,-1.1201 4.5428,-2.5929 6.3682,-4.4183 1.8254,-1.8254 3.3051,-3.9412 4.4391,-6.3474 1.1339,-2.4063 1.8115,-5.0061 2.0328,-7.7995zm-44.847 -3.7338l-2.0329 0c0.249,-2.9317 0.9957,-5.7182 2.2403,-8.3596 1.2446,-2.6413 2.8626,-4.9784 4.8539,-7.0112 1.9914,-2.0328 4.3008,-3.6923 6.9283,-4.9784 2.6275,-1.2861 5.4624,-2.0536 8.5048,-2.3025l0 2.0328c-2.7382,0.2766 -5.3103,1.0026 -7.7165,2.1781 -2.4063,1.1754 -4.5221,2.6759 -6.3475,4.5013 -1.8254,1.8254 -3.3051,3.9343 -4.4391,6.3267 -1.1339,2.3924 -1.7977,4.93 -1.9913,7.6128zm-2.0743 3.7753l2.0328 0c0.1936,2.7934 0.8505,5.3794 1.9706,7.758 1.1201,2.3785 2.5929,4.4736 4.4183,6.2852 1.8254,1.8116 3.9413,3.2774 6.3475,4.3976 2.4062,1.1201 5.006,1.8046 7.7995,2.0536l0 1.9913c-3.0424,-0.2489 -5.8911,-0.9888 -8.5463,-2.2195 -2.6551,-1.2308 -4.9853,-2.8419 -6.9905,-4.8332 -2.0052,-1.9914 -3.63,-4.3008 -4.8746,-6.9283 -1.2446,-2.6275 -1.9637,-5.4624 -2.1573,-8.5047zm48.9541 -3.8168l-1.9913 0c-0.2213,-2.7658 -0.8989,-5.3518 -2.0329,-7.758 -1.1339,-2.4062 -2.6205,-4.522 -4.4598,-6.3474 -1.8392,-1.8255 -3.9689,-3.3051 -6.3889,-4.4391 -2.4201,-1.134 -5.013,-1.8116 -7.7787,-2.0329l0 -2.0328c3.0147,0.2213 5.8496,0.9542 8.5047,2.1988 2.6552,1.2446 4.9922,2.8764 7.0112,4.8954 2.0191,2.019 3.6578,4.3561 4.9162,7.0112 1.2584,2.6552 1.9983,5.4901 2.2195,8.5048z"  
   id="path3605"
   style="fill:#666666;fill-opacity:1;fill-rule:nonzero;stroke:none" />
   
   
   <path   
   d="M42.8585 25.0975c0,-2.4678 -0.4654,-4.7893 -1.3963,-6.9648 -0.9307,-2.1755 -2.197,-4.0804 -3.7989,-5.7147 -1.6019,-1.6343 -3.4851,-2.9223 -5.6498,-3.8639 -2.1646,-0.9417 -4.4808,-1.4125 -6.9485,-1.4125 -2.511,0 -4.8597,0.4708 -7.046,1.4125 -2.1863,0.9416 -4.0858,2.2296 -5.6985,3.8639 -1.6126,1.6343 -2.879,3.5392 -3.7989,5.7147 -0.92,2.1755 -1.38,4.497 -1.38,6.9648 0,2.4894 0.46,4.811 1.38,6.9648 0.9199,2.1538 2.1863,4.0317 3.7989,5.6335 1.6127,1.6018 3.5122,2.8628 5.6985,3.7827 2.1863,0.92 4.535,1.38 7.046,1.38 2.4677,0 4.7839,-0.46 6.9485,-1.38 2.1647,-0.9199 4.0479,-2.1809 5.6498,-3.7827 1.6019,-1.6018 2.8682,-3.4797 3.7989,-5.6335 0.9309,-2.1538 1.3963,-4.4754 1.3963,-6.9648zm-2.5002 -0.0649c0,2.1213 -0.3951,4.1074 -1.1852,5.9581 -0.7901,1.8509 -1.8778,3.4743 -3.2632,4.8705 -1.3854,1.3963 -3.0035,2.4948 -4.8542,3.2957 -1.8508,0.801 -3.8369,1.2014 -5.9582,1.2014 -2.1647,0 -4.1833,-0.395 -6.0557,-1.1851 -1.8725,-0.7901 -3.5067,-1.8724 -4.9029,-3.247 -1.3963,-1.3746 -2.4948,-2.9927 -3.2957,-4.8542 -0.801,-1.8617 -1.2014,-3.8531 -1.2014,-5.9745 0,-2.0998 0.4004,-4.0912 1.2014,-5.9745 0.8009,-1.8832 1.8994,-3.523 3.2957,-4.9192 1.3962,-1.3961 3.0304,-2.5056 4.9029,-3.3281 1.8724,-0.8226 3.891,-1.2339 6.0557,-1.2339 2.1213,0 4.1074,0.4005 5.9582,1.2014 1.8507,0.8009 3.4688,1.8995 4.8542,3.2957 1.3854,1.3962 2.4731,3.0305 3.2632,4.903 0.7901,1.8724 1.1852,3.8693 1.1852,5.9907z"  
   id="path3605"
   style="fill:#666666;fill-opacity:1;fill-rule:nonzero;stroke:none" />
    
    

   
   </svg>
