<?xml version="1.0" encoding="UTF-8" standalone="no"?>
<!--
  #%L
  xplan-workspaces - Modul zur Gruppierung aller Workspaces
  %%
  Copyright (C) 2008 - 2022 lat/lon GmbH, info@lat-lon.de, www.lat-lon.de
  %%
  This program is free software: you can redistribute it and/or modify
  it under the terms of the GNU Affero General Public License as published by
  the Free Software Foundation, either version 3 of the License, or
  (at your option) any later version.
  
  This program is distributed in the hope that it will be useful,
  but WITHOUT ANY WARRANTY; without even the implied warranty of
  MERCHANTABILITY or FITNESS FOR A PARTICULAR PURPOSE.  See the
  GNU General Public License for more details.
  
  You should have received a copy of the GNU Affero General Public License
  along with this program.  If not, see <http://www.gnu.org/licenses/>.
  #L%
  -->

<!-- Created with Inkscape (http://www.inkscape.org/) -->

<svg
   xmlns:svg="http://www.w3.org/2000/svg"
   xmlns="http://www.w3.org/2000/svg"
   version="1.1"
   width="177.16534"
   height="177.16534"
   viewBox="0 0 50 50"
   id="svg2"
   xml:space="preserve"><defs
   id="defs11" />
 

     
   
   <path   
   d="M40.9212 25.0488c0,2.1814 -0.4152,4.2326 -1.2454,6.1537 -0.8302,1.9209 -1.9616,3.5976 -3.3943,5.0303 -1.4325,1.4325 -3.1175,2.5639 -5.0547,3.3942 -1.9373,0.8303 -4.0128,1.2454 -6.2269,1.2454 -2.2139,0 -4.2815,-0.407 -6.2024,-1.221 -1.921,-0.814 -3.6059,-1.9291 -5.0547,-3.3454 -1.4489,-1.4163 -2.5884,-3.0769 -3.4187,-4.9814 -0.8303,-1.9048 -1.2453,-3.9642 -1.2453,-6.1781 0,-2.214 0.415,-4.2977 1.2453,-6.2513 0.8303,-1.9535 1.9698,-3.6547 3.4187,-5.1035 1.4488,-1.4489 3.1337,-2.5885 5.0547,-3.4187 1.9209,-0.8303 3.9885,-1.2454 6.2024,-1.2454 2.2141,0 4.2896,0.4151 6.2269,1.2454 1.9372,0.8302 3.6222,1.9617 5.0547,3.3942 1.4327,1.4326 2.5641,3.1176 3.3943,5.0548 0.8302,1.9372 1.2454,4.0128 1.2454,6.2268z"  
   id="path3605"
   style="fill:#823CB4;fill-opacity:1;fill-rule:nonzero;stroke:none" />
   
   
   <path   
   d="M25.1174 9.1728c-2.9318,0 -5.5731,0.6776 -7.924,2.0328 -2.3509,1.3553 -4.2316,3.2083 -5.6422,5.5592l2.2818 1.2861c1.1616,-1.8254 2.7174,-3.3189 4.6673,-4.4805 1.9498,-1.1616 4.1417,-1.7425 6.5756,-1.7425 2.4339,0 4.6257,0.5809 6.5756,1.7425 1.9499,1.1616 3.478,2.7104 4.5843,4.6465l2.4892 -1.2031c-0.6915,-1.1617 -1.5143,-2.2265 -2.4685,-3.1945 -0.9542,-0.968 -2.0121,-1.7908 -3.1737,-2.4685 -1.1616,-0.6776 -2.4131,-1.21 -3.7545,-1.5972 -1.3414,-0.3872 -2.7451,-0.5808 -4.2109,-0.5808zm15.7649 15.8479c0,-1.051 -0.0899,-2.0398 -0.2697,-2.9663 -0.1798,-0.9265 -0.4494,-1.8323 -0.809,-2.7174l-2.4477 1.2031c0.5255,1.3829 0.7883,2.8626 0.7883,4.4391 0,1.7424 -0.3043,3.3742 -0.9127,4.8954 -0.6085,1.5212 -1.4382,2.8626 -2.4892,4.0242 -1.051,1.1616 -2.2956,2.1158 -3.7338,2.8626 -1.4382,0.7467 -2.9871,1.2031 -4.6465,1.369l0 2.6137c2.019,-0.1659 3.9135,-0.6845 5.6836,-1.5557 1.7701,-0.8713 3.312,-2.0121 4.6258,-3.4227 1.3137,-1.4105 2.344,-3.0354 3.0907,-4.8747 0.7468,-1.8392 1.1202,-3.796 1.1202,-5.8703zm-31.6543 0c0,2.0743 0.3665,4.0242 1.0994,5.8496 0.7329,1.8254 1.7493,3.4434 3.0493,4.8539 1.2999,1.4106 2.8349,2.5514 4.605,3.4227 1.7701,0.8712 3.6785,1.3898 5.7251,1.5557l0 -2.5722c-1.6871,-0.1659 -3.2498,-0.6153 -4.688,-1.3483 -1.4382,-0.7329 -2.6897,-1.6802 -3.7545,-2.8418 -1.0648,-1.1616 -1.8946,-2.4961 -2.4892,-4.0035 -0.5946,-1.5073 -0.892,-3.1322 -0.892,-4.8746 0,-1.6318 0.2904,-3.1807 0.8713,-4.6465l-2.3648 -1.3691c-0.7744,1.7978 -1.1616,3.7891 -1.1616,5.9741zm15.4745 11.4503l-0.4978 -0.3734 -0.2075 -0.083 -0.0415 -0.1244 -0.2904 -2.4892 -3.4019 0 -0.3733 0 0 -0.3319 0.2074 -1.5765 0 -0.3734 0.3734 0 3.153 0 -0.3734 -7.8824 -7.0528 0 -0.2489 0 -0.1244 -0.3319 -0.9542 -3.6094 -0.1245 -0.4148 0.4979 -0.0415 8.0484 -0.0415 0.3319 -3.153 0.0414 -0.1659 0.083 -0.083 1.0372 -0.7883 0.1659 -0.2074 0.2904 0.2074 0.9957 0.7883 0.1245 0.083 0 0.1659 0.3319 3.153 8.2558 0 0.4978 0 -0.1244 0.4978 -1.0787 3.6508 -0.0415 0.2905 -0.2904 0 -7.2186 0 -0.3319 7.8824 3.1115 0 0.3733 0 0.0415 0.3319 0.2075 1.618 0.0414 0.3319 -0.3733 0 -3.4849 0 -0.5393 2.5307 0 0.1659 -0.1245 0.083 -0.4978 0.2904 -0.2075 0.083 -0.2074 -0.083z"  
   id="path3605"
   style="fill:#000000;fill-opacity:1;fill-rule:nonzero;stroke:none" />
    
 
   
   </svg>
