<?xml version="1.0" encoding="UTF-8" standalone="no"?>
<!--
  #%L
  xplan-workspaces - Modul zur Gruppierung aller Workspaces
  %%
  Copyright (C) 2008 - 2022 lat/lon GmbH, info@lat-lon.de, www.lat-lon.de
  %%
  This program is free software: you can redistribute it and/or modify
  it under the terms of the GNU Affero General Public License as published by
  the Free Software Foundation, either version 3 of the License, or
  (at your option) any later version.
  
  This program is distributed in the hope that it will be useful,
  but WITHOUT ANY WARRANTY; without even the implied warranty of
  MERCHANTABILITY or FITNESS FOR A PARTICULAR PURPOSE.  See the
  GNU General Public License for more details.
  
  You should have received a copy of the GNU Affero General Public License
  along with this program.  If not, see <http://www.gnu.org/licenses/>.
  #L%
  -->

<!-- Created with Inkscape (http://www.inkscape.org/) -->

<svg
   xmlns:svg="http://www.w3.org/2000/svg"
   xmlns="http://www.w3.org/2000/svg"
   version="1.1"
   width="177.16534"
   height="177.16534"
   viewBox="0 0 50 50"
   id="svg2"
   xml:space="preserve"><defs
   id="defs11" />
 

     
   
   <path   
   d="M36.3885 24.9972c0,1.5534 -0.2956,3.014 -0.8868,4.382 -0.5912,1.3679 -1.3969,2.5618 -2.4171,3.582 -1.0201,1.0201 -2.2199,1.8258 -3.5994,2.417 -1.3795,0.5912 -2.8575,0.8868 -4.4341,0.8868 -1.5765,0 -3.0488,-0.2898 -4.4167,-0.8694 -1.3679,-0.5796 -2.5677,-1.3737 -3.5994,-2.3823 -1.0317,-1.0085 -1.8432,-2.191 -2.4344,-3.5472 -0.5913,-1.3563 -0.8868,-2.8228 -0.8868,-4.3994 0,-1.5765 0.2955,-3.0603 0.8868,-4.4514 0.5912,-1.3911 1.4027,-2.6026 2.4344,-3.6342 1.0317,-1.0318 2.2315,-1.8432 3.5994,-2.4345 1.3679,-0.5912 2.8402,-0.8868 4.4167,-0.8868 1.5766,0 3.0546,0.2956 4.4341,0.8868 1.3795,0.5913 2.5793,1.3969 3.5994,2.417 1.0202,1.0202 1.8259,2.22 2.4171,3.5995 0.5912,1.3795 0.8868,2.8575 0.8868,4.4341z"  
   id="path3605"
   style="fill:#FBFBFB;fill-opacity:1;fill-rule:nonzero;stroke:none" />
   
   
   <path   
   d="M36.4847 25.0415c0,1.6318 -0.2973,3.1391 -0.8919,4.522 -0.5947,1.3829 -1.4106,2.5791 -2.4478,3.5886 -1.0371,1.0095 -2.2471,1.8047 -3.63,2.3855 -1.3829,0.5808 -2.8764,0.8712 -4.4806,0.8712 -1.6318,0 -3.1391,-0.2904 -4.522,-0.8712 -1.3829,-0.5808 -2.586,-1.376 -3.6094,-2.3855 -1.0233,-1.0095 -1.8254,-2.2057 -2.4062,-3.5886 -0.5808,-1.3829 -0.8712,-2.8902 -0.8712,-4.522 0,-1.5765 0.2904,-3.07 0.8712,-4.4806 0.5808,-1.4105 1.3829,-2.6344 2.4062,-3.6715 1.0234,-1.0372 2.2265,-1.86 3.6094,-2.4685 1.3829,-0.6085 2.8902,-0.9127 4.522,-0.9127 1.6042,0 3.0977,0.3042 4.4806,0.9127 1.3829,0.6085 2.5929,1.4313 3.63,2.4685 1.0372,1.0371 1.8531,2.261 2.4478,3.6715 0.5946,1.4106 0.8919,2.9041 0.8919,4.4806zm-2.2403 -0.0415c0,-1.2723 -0.2351,-2.4754 -0.7052,-3.6093 -0.4702,-1.134 -1.1202,-2.1228 -1.9499,-2.9663 -0.8297,-0.8436 -1.8047,-1.5074 -2.9248,-1.9914 -1.1201,-0.484 -2.3163,-0.726 -3.5886,-0.726 -1.2999,0 -2.5099,0.242 -3.6301,0.726 -1.1201,0.484 -2.102,1.1478 -2.9455,1.9914 -0.8436,0.8435 -1.5074,1.8323 -1.9914,2.9663 -0.484,1.1339 -0.726,2.337 -0.726,3.6093 0,1.2999 0.242,2.5099 0.726,3.6301 0.484,1.1201 1.1478,2.102 1.9914,2.9455 0.8435,0.8436 1.8254,1.5074 2.9455,1.9914 1.1202,0.484 2.3302,0.726 3.6301,0.726 1.2723,0 2.4685,-0.242 3.5886,-0.726 1.1201,-0.484 2.0951,-1.1478 2.9248,-1.9914 0.8297,-0.8435 1.4797,-1.8254 1.9499,-2.9455 0.4701,-1.1202 0.7052,-2.3302 0.7052,-3.6301zm-11.8236 6.0155l1.286 0 0 -4.8124 2.4892 0c1.3553,0 2.2818,-0.3319 2.7796,-0.9957 0.5532,-0.7191 0.8298,-1.5903 0.8298,-2.6136 0,-0.8021 -0.166,-1.4866 -0.4979,-2.0536 -0.3319,-0.567 -0.7744,-0.9473 -1.3275,-1.1409 -0.5532,-0.1383 -1.1893,-0.2074 -1.9084,-0.2074l-3.6508 0 0 11.8236zm1.286 -6.1815l0 -4.2316 2.4892 0c0.7191,0 1.1755,0.0553 1.3691,0.166 0.2766,0.1382 0.5048,0.3733 0.6845,0.7052 0.1798,0.3319 0.2697,0.733 0.2697,1.2031 0,1.4382 -0.7744,2.1573 -2.3233,2.1573l-2.4892 0z"   
   id="path3605"
   style="fill:#823CB4;fill-opacity:1;fill-rule:nonzero;stroke:none" />
    
 
   
   </svg>
