<?xml version="1.0" encoding="UTF-8" standalone="no"?>
<!--
  #%L
  xplan-workspaces - Modul zur Gruppierung aller Workspaces
  %%
  Copyright (C) 2008 - 2022 lat/lon GmbH, info@lat-lon.de, www.lat-lon.de
  %%
  This program is free software: you can redistribute it and/or modify
  it under the terms of the GNU Affero General Public License as published by
  the Free Software Foundation, either version 3 of the License, or
  (at your option) any later version.
  
  This program is distributed in the hope that it will be useful,
  but WITHOUT ANY WARRANTY; without even the implied warranty of
  MERCHANTABILITY or FITNESS FOR A PARTICULAR PURPOSE.  See the
  GNU General Public License for more details.
  
  You should have received a copy of the GNU Affero General Public License
  along with this program.  If not, see <http://www.gnu.org/licenses/>.
  #L%
  -->

<!-- Created with Inkscape (http://www.inkscape.org/) -->

<svg
   xmlns:svg="http://www.w3.org/2000/svg"
   xmlns="http://www.w3.org/2000/svg"
   version="1.1"
   width="177.16534"
   height="177.16534"
   viewBox="0 0 50 50"
   id="svg2"
   xml:space="preserve"><defs
   id="defs11" />
 
   
  
     
   
   <path   
   d="M40.7443 25.0481c0,2.1573 -0.4106,4.1857 -1.2315,6.0854 -0.8211,1.8996 -1.9399,3.5577 -3.3567,4.9744 -1.4166,1.4166 -3.0828,2.5355 -4.9985,3.3565 -1.9158,0.8211 -3.9682,1.2315 -6.1577,1.2315 -2.1894,0 -4.2339,-0.4024 -6.1336,-1.2074 -1.8996,-0.8049 -3.5658,-1.9076 -4.9985,-3.3082 -1.4328,-1.4005 -2.5596,-3.0427 -3.3807,-4.9261 -0.8211,-1.8835 -1.2315,-3.9201 -1.2315,-6.1094 0,-2.1894 0.4104,-4.25 1.2315,-6.1819 0.8211,-1.9317 1.9479,-3.6141 3.3807,-5.0468 1.4327,-1.4328 3.0989,-2.5597 4.9985,-3.3807 1.8997,-0.8211 3.9442,-1.2316 6.1336,-1.2316 2.1895,0 4.2419,0.4105 6.1577,1.2316 1.9157,0.821 3.5819,1.9399 4.9985,3.3565 1.4168,1.4167 2.5356,3.0829 3.3567,4.9986 0.8209,1.9157 1.2315,3.9683 1.2315,6.1576z"  
   id="path3605"
   style="fill:#A6A6A6;fill-opacity:1;fill-rule:nonzero;stroke:none" />
   
   
   <path   
   d="M40.903 25.0415c0,-2.185 -0.408,-4.2455 -1.2239,-6.1815 -0.8159,-1.9361 -1.9429,-3.6301 -3.3811,-5.0821 -1.4383,-1.4521 -3.1185,-2.5929 -5.0407,-3.4227 -1.9222,-0.8297 -3.9758,-1.2446 -6.1607,-1.2446 -2.2403,0 -4.3216,0.4149 -6.2438,1.2446 -1.9222,0.8298 -3.6024,1.9706 -5.0406,3.4227 -1.4382,1.452 -2.5652,3.146 -3.3811,5.0821 -0.8159,1.936 -1.2239,3.9965 -1.2239,6.1815 0,2.2126 0.408,4.28 1.2239,6.2022 0.8159,1.9223 1.9429,3.5886 3.3811,4.9992 1.4382,1.4105 3.1184,2.5237 5.0406,3.3396 1.9222,0.8159 4.0035,1.2239 6.2438,1.2239 2.1849,0 4.2385,-0.408 6.1607,-1.2239 1.9222,-0.8159 3.6024,-1.9291 5.0407,-3.3396 1.4382,-1.4106 2.5652,-3.0769 3.3811,-4.9992 0.8159,-1.9222 1.2239,-3.9896 1.2239,-6.2022zm-2.7382 -0.0415c0,1.8254 -0.3388,3.5471 -1.0164,5.1651 -0.6776,1.618 -1.611,3.0216 -2.8003,4.2109 -1.1893,1.1893 -2.5791,2.1296 -4.1694,2.8211 -1.5903,0.6914 -3.2982,1.0371 -5.1236,1.0371 -1.8254,0 -3.5471,-0.3388 -5.1651,-1.0164 -1.618,-0.6776 -3.0216,-1.6111 -4.2109,-2.8003 -1.1893,-1.1893 -2.1296,-2.586 -2.8211,-4.1902 -0.6914,-1.6041 -1.0371,-3.3189 -1.0371,-5.1443 0,-0.3319 0.0138,-0.6569 0.0414,-0.975 0.0277,-0.318 0.0692,-0.643 0.1245,-0.9749l26.0536 0c0.083,0.6361 0.1244,1.2584 0.1244,1.8669zm-13.1097 -13.2342c2.5998,0 4.9023,0.643 6.9075,1.9291 2.0052,1.2861 3.5609,2.9801 4.6672,5.0821l-23.2325 0c0.5532,-1.0233 1.2377,-1.9706 2.0536,-2.8418 0.8159,-0.8712 1.7217,-1.6111 2.7174,-2.2196 0.9957,-0.6084 2.0743,-1.0855 3.236,-1.4312 1.1616,-0.3458 2.3785,-0.5186 3.6508,-0.5186zm-12.2386 8.2558l24.3942 0c0.1382,0.3596 0.2558,0.6915 0.3526,0.9957 0.0968,0.3042 0.1729,0.5946 0.2282,0.8712l-25.5973 0c0.166,-0.6085 0.3734,-1.2308 0.6223,-1.8669z" 
   id="path3605"
   style="fill:#000000;fill-opacity:1;fill-rule:nonzero;stroke:none" />
    
    
   
   </svg>
