<?xml version="1.0" encoding="UTF-8" standalone="no"?>
<!--
  #%L
  xplan-workspaces - Modul zur Gruppierung aller Workspaces
  %%
  Copyright (C) 2008 - 2022 lat/lon GmbH, info@lat-lon.de, www.lat-lon.de
  %%
  This program is free software: you can redistribute it and/or modify
  it under the terms of the GNU Affero General Public License as published by
  the Free Software Foundation, either version 3 of the License, or
  (at your option) any later version.
  
  This program is distributed in the hope that it will be useful,
  but WITHOUT ANY WARRANTY; without even the implied warranty of
  MERCHANTABILITY or FITNESS FOR A PARTICULAR PURPOSE.  See the
  GNU General Public License for more details.
  
  You should have received a copy of the GNU Affero General Public License
  along with this program.  If not, see <http://www.gnu.org/licenses/>.
  #L%
  -->

<!-- Created with Inkscape (http://www.inkscape.org/) -->

<svg
   xmlns:svg="http://www.w3.org/2000/svg"
   xmlns="http://www.w3.org/2000/svg"
   version="1.1"
   width="177.16534"
   height="177.16534"
   viewBox="0 0 50 50"
   id="svg2"
   xml:space="preserve"><defs
   id="defs11" />
 
   
       
   
   <path   
   d="M49.852 25.0761c0,3.4052 -0.6481,6.6069 -1.9439,9.6056 -1.2961,2.9984 -3.0621,5.6156 -5.2984,7.8519 -2.2361,2.2361 -4.8661,4.0022 -7.89,5.2982 -3.024,1.296 -6.2638,1.9439 -9.7198,1.9439 -3.4558,0 -6.6831,-0.6352 -9.6816,-1.9059 -2.9985,-1.2705 -5.6285,-3.0112 -7.89,-5.2219 -2.2616,-2.2107 -4.0403,-4.8027 -5.3363,-7.7757 -1.296,-2.9731 -1.944,-6.1877 -1.944,-9.6435 0,-3.4559 0.648,-6.7085 1.944,-9.7579 1.296,-3.0492 3.0747,-5.7048 5.3363,-7.9662 2.2615,-2.2617 4.8915,-4.0404 7.89,-5.3364 2.9985,-1.296 6.2258,-1.9439 9.6816,-1.9439 3.456,0 6.6958,0.6479 9.7198,1.9439 3.0239,1.296 5.6539,3.0621 7.89,5.2981 2.2363,2.2363 4.0023,4.8664 5.2984,7.8902 1.2958,3.0239 1.9439,6.2638 1.9439,9.7196z"   
   id="path3605"
   style="fill:#823CB4;fill-opacity:1;fill-rule:nonzero;stroke:none" />
   
   
   <path   
   d="M49.9056 24.9999c0,-2.2956 -0.2904,-4.5013 -0.8712,-6.6171 -0.5808,-2.1158 -1.4036,-4.0933 -2.4684,-5.9326 -1.0648,-1.8392 -2.3509,-3.5194 -3.8583,-5.0406 -1.5073,-1.5212 -3.1737,-2.8211 -4.9991,-3.8997 -1.8254,-1.0787 -3.796,-1.9153 -5.9119,-2.51 -2.1158,-0.5946 -4.3215,-0.8919 -6.6171,-0.8919 -3.5125,0 -6.7899,0.6499 -9.8323,1.9498 -3.0423,1.2999 -5.6837,3.0769 -7.9239,5.3311 -2.2403,2.2541 -4.0035,4.8954 -5.2896,7.9239 -1.2861,3.0285 -1.9291,6.2576 -1.9291,9.6871 0,3.4572 0.643,6.6932 1.9291,9.7079 1.2861,3.0147 3.0493,5.6422 5.2896,7.8824 2.2402,2.2403 4.8816,4.0035 7.9239,5.2896 3.0424,1.2861 6.3198,1.9291 9.8323,1.9291 3.4296,0 6.6517,-0.643 9.6664,-1.9291 3.0147,-1.2861 5.6353,-3.0493 7.8617,-5.2896 2.2265,-2.2402 3.9827,-4.8677 5.2688,-7.8824 1.2861,-3.0147 1.9291,-6.2507 1.9291,-9.7079zm-4.2731 -0.0415c0,2.8764 -0.5324,5.5731 -1.5972,8.0899 -1.0648,2.5169 -2.5238,4.7157 -4.3768,6.5964 -1.8531,1.8807 -4.0312,3.3604 -6.5342,4.439 -2.503,1.0787 -5.1789,1.618 -8.0276,1.618 -2.8764,0 -5.5731,-0.5324 -8.0899,-1.5972 -2.5169,-1.0648 -4.7157,-2.5238 -6.5964,-4.3768 -1.8807,-1.8531 -3.3604,-4.0312 -4.4391,-6.5342 -1.0786,-2.503 -1.6179,-5.1927 -1.6179,-8.0691 0,-2.8488 0.5393,-5.5385 1.6179,-8.0692 1.0787,-2.5307 2.5584,-4.7433 4.4391,-6.6378 1.8807,-1.8946 4.0795,-3.395 6.5964,-4.5013 2.5168,-1.1063 5.2135,-1.6595 8.0899,-1.6595 2.8487,0 5.5246,0.5393 8.0276,1.618 2.503,1.0786 4.6811,2.5583 6.5342,4.4391 1.853,1.8807 3.312,4.0795 4.3768,6.5963 1.0648,2.5169 1.5972,5.1997 1.5972,8.0484zm-22.1953 0.5394l0.4149 10.828 -5.4763 2.2817c-0.0276,0.0277 -0.0622,0.0553 -0.1037,0.083 -0.0415,0.0276 -0.0622,0.0691 -0.0622,0.1245l-0.4979 2.3232 0 0.1245c0.0554,0.1106 0.1314,0.2005 0.2282,0.2696 0.0968,0.0692 0.1867,0.0761 0.2697,0.0208l5.6836 -0.9127 0.249 1.4105c0,0.0277 0.0069,0.0553 0.0207,0.083 0.0138,0.0276 0.0208,0.0691 0.0208,0.1244l0.7467 1.0372c0.083,0.0277 0.1383,0.083 0.166,0.166 0.0829,0.0553 0.1797,0.0622 0.2904,0.0207 0.1106,-0.0415 0.1936,-0.1037 0.2489,-0.1867l0.5393 -1.0786c0,-0.0554 0.0138,-0.0969 0.0415,-0.1245l0.3734 -1.452 5.4762 0.8297 0.1245 0c0.2489,-0.083 0.3595,-0.2074 0.3319,-0.3734l-0.4149 -2.0328c0,-0.1936 -0.0691,-0.3181 -0.2074,-0.3734l-5.1859 -2.3647 0.2904 -10.828 15.8479 4.4805c0.083,0.0277 0.1936,0 0.3319,-0.083 0.2489,-0.1106 0.2904,-0.2765 0.1245,-0.4978l-3.6923 -5.3933c-0.0277,-0.0829 -0.083,-0.1383 -0.166,-0.1659l-10.0812 -4.7295c-0.0553,0 -0.0899,-0.0069 -0.1037,-0.0207 -0.0139,-0.0139 -0.0346,-0.0208 -0.0623,-0.0208l-2.2402 -0.7467 -0.3319 -10.1642c0,-0.1107 -0.0139,-0.1798 -0.0415,-0.2075l-0.9127 -1.3276c-0.0277,-0.0553 -0.0484,-0.0898 -0.0623,-0.1037 -0.0138,-0.0138 -0.0207,-0.0207 -0.0207,-0.0207 -0.2213,-0.2213 -0.401,-0.2074 -0.5393,0.0415l-1.1202 1.4105c-0.0553,0.0553 -0.0829,0.1245 -0.0829,0.2075l-0.4149 10.2057 -2.3647 0.8297 -0.0415 0 -9.9568 4.4805c-0.0553,0.1107 -0.0968,0.1798 -0.1245,0.2075l-3.5678 5.3932c-0.0277,0.0277 -0.0415,0.1245 -0.0415,0.2904 0.083,0.2213 0.2627,0.3181 0.5393,0.2904l15.5575 -4.356z" 
   id="path3605"
   style="fill:#000000;fill-opacity:1;fill-rule:nonzero;stroke:none" />
    
    

   
   </svg>
