<?xml version="1.0" encoding="UTF-8" standalone="no"?>
<!--
  #%L
  xplan-workspaces - Modul zur Gruppierung aller Workspaces
  %%
  Copyright (C) 2008 - 2022 lat/lon GmbH, info@lat-lon.de, www.lat-lon.de
  %%
  This program is free software: you can redistribute it and/or modify
  it under the terms of the GNU Affero General Public License as published by
  the Free Software Foundation, either version 3 of the License, or
  (at your option) any later version.
  
  This program is distributed in the hope that it will be useful,
  but WITHOUT ANY WARRANTY; without even the implied warranty of
  MERCHANTABILITY or FITNESS FOR A PARTICULAR PURPOSE.  See the
  GNU General Public License for more details.
  
  You should have received a copy of the GNU Affero General Public License
  along with this program.  If not, see <http://www.gnu.org/licenses/>.
  #L%
  -->

<!-- Created with Inkscape (http://www.inkscape.org/) -->

<svg
   xmlns:svg="http://www.w3.org/2000/svg"
   xmlns="http://www.w3.org/2000/svg"
   version="1.1"
   width="177.16534"
   height="177.16534"
   viewBox="0 0 50 50"
   id="svg2"
   xml:space="preserve"><defs
   id="defs11" />
 
  
     
   
   <path   
   d="M35.8894 25.0192c0,1.4882 -0.2832,2.8876 -0.8496,4.1982 -0.5664,1.3105 -1.3383,2.4544 -2.3157,3.4318 -0.9773,0.9773 -2.1268,1.7492 -3.4484,2.3156 -1.3217,0.5664 -2.7376,0.8496 -4.2481,0.8496 -1.5105,0 -2.921,-0.2776 -4.2315,-0.833 -1.3105,-0.5553 -2.46,-1.316 -3.4484,-2.2823 -0.9885,-0.9662 -1.7659,-2.0991 -2.3323,-3.3984 -0.5665,-1.2995 -0.8496,-2.7044 -0.8496,-4.2148 0,-1.5105 0.2831,-2.9321 0.8496,-4.2648 0.5664,-1.3327 1.3438,-2.4934 2.3323,-3.4818 0.9884,-0.9884 2.1379,-1.7658 3.4484,-2.3323 1.3105,-0.5664 2.721,-0.8496 4.2315,-0.8496 1.5105,0 2.9264,0.2832 4.2481,0.8496 1.3216,0.5665 2.4711,1.3383 3.4484,2.3156 0.9774,0.9774 1.7493,2.1269 2.3157,3.4485 0.5664,1.3216 0.8496,2.7377 0.8496,4.2481z"   
   id="path3605"
   style="fill:#FBFBFB;fill-opacity:1;fill-rule:nonzero;stroke:none" />
   
   
   <path   
   d="M35.9661 25.0414c0,-1.5211 -0.2835,-2.9593 -0.8505,-4.3146 -0.567,-1.3552 -1.3483,-2.5376 -2.344,-3.5471 -0.9957,-1.0095 -2.1573,-1.8046 -3.4849,-2.3855 -1.3276,-0.5808 -2.7519,-0.8712 -4.2731,-0.8712 -1.5488,0 -2.987,0.2904 -4.3146,0.8712 -1.3276,0.5809 -2.4754,1.376 -3.4434,2.3855 -0.968,1.0095 -1.7286,2.1919 -2.2818,3.5471 -0.5531,1.3553 -0.8297,2.7935 -0.8297,4.3146 0,1.5765 0.2766,3.0355 0.8297,4.3769 0.5532,1.3414 1.3138,2.503 2.2818,3.4848 0.968,0.9819 2.1158,1.7425 3.4434,2.2818 1.3276,0.5393 2.7658,0.809 4.3146,0.809 1.5212,0 2.9455,-0.2697 4.2731,-0.809 1.3276,-0.5393 2.4892,-1.2999 3.4849,-2.2818 0.9957,-0.9818 1.777,-2.1434 2.344,-3.4848 0.567,-1.3414 0.8505,-2.8004 0.8505,-4.3769zm-1.2861 -0.1244c0,1.3275 -0.249,2.586 -0.7468,3.7753 -0.4978,1.1892 -1.1824,2.2195 -2.0536,3.0907 -0.8712,0.8712 -1.8876,1.5627 -3.0492,2.0743 -1.1617,0.5117 -2.4201,0.7675 -3.7753,0.7675 -1.3553,0 -2.6206,-0.2558 -3.796,-0.7675 -1.1755,-0.5116 -2.2058,-1.2031 -3.0908,-2.0743 -0.885,-0.8712 -1.5834,-1.9015 -2.0951,-3.0907 -0.5116,-1.1893 -0.7675,-2.4478 -0.7675,-3.7753 0,-1.3553 0.2559,-2.6206 0.7675,-3.796 0.5117,-1.1755 1.2101,-2.1988 2.0951,-3.0701 0.885,-0.8712 1.9153,-1.5626 3.0908,-2.0743 1.1754,-0.5117 2.4407,-0.7675 3.796,-0.7675 1.3552,0 2.6136,0.2558 3.7753,0.7675 1.1616,0.5117 2.178,1.2031 3.0492,2.0743 0.8712,0.8713 1.5558,1.8946 2.0536,3.0701 0.4978,1.1754 0.7468,2.4407 0.7468,3.796zm-12.446 5.974l0 -11.8236 3.6508 0c0.6638,0 1.2999,0.0691 1.9084,0.2074 0.5531,0.1936 0.9957,0.5739 1.3276,1.1409 0.3319,0.567 0.4978,1.2515 0.4978,2.0536 0,1.0233 -0.2766,1.8945 -0.8297,2.6136 -0.4979,0.6638 -1.4244,0.9957 -2.7796,0.9957l-2.4892 0 0 4.8124 -1.2861 0zm1.2861 -6.1815l2.4892 0c1.5488,0 2.3232,-0.7191 2.3232,-2.1573 0,-0.4701 -0.0899,-0.8712 -0.2696,-1.2031 -0.1798,-0.3319 -0.408,-0.567 -0.6846,-0.7052 -0.1936,-0.1107 -0.6499,-0.166 -1.369,-0.166l-2.4892 0 0 4.2316z"  
   id="path3606"
   style="fill:#823CB4;fill-opacity:1;fill-rule:nonzero;stroke:none" />
    
  
   
   </svg>
