<?xml version="1.0" encoding="UTF-8" standalone="no"?>
<!--
  #%L
  xplan-workspaces - Modul zur Gruppierung aller Workspaces
  %%
  Copyright (C) 2008 - 2022 lat/lon GmbH, info@lat-lon.de, www.lat-lon.de
  %%
  This program is free software: you can redistribute it and/or modify
  it under the terms of the GNU Affero General Public License as published by
  the Free Software Foundation, either version 3 of the License, or
  (at your option) any later version.
  
  This program is distributed in the hope that it will be useful,
  but WITHOUT ANY WARRANTY; without even the implied warranty of
  MERCHANTABILITY or FITNESS FOR A PARTICULAR PURPOSE.  See the
  GNU General Public License for more details.
  
  You should have received a copy of the GNU Affero General Public License
  along with this program.  If not, see <http://www.gnu.org/licenses/>.
  #L%
  -->

<!-- Created with Inkscape (http://www.inkscape.org/) -->

<svg
   xmlns:svg="http://www.w3.org/2000/svg"
   xmlns="http://www.w3.org/2000/svg"
   version="1.1"
   width="177.16534"
   height="177.16534"
   viewBox="0 0 50 50"
   id="svg2"
   xml:space="preserve"><defs
   id="defs11" />
 
   
   <polygon   
   points="36.2014,34.1271 36.2014,15.873 13.7986,15.873 13.7986,34.1271 " 
   id="path3604"
   style="fill:#FBFBFB;fill-opacity:1;fill-rule:nonzero;stroke:none" />
     
   
   <path   
   d="M36.2014 34.1271l-22.4028 0 0 -18.2541 22.4028 0 0 18.2541zm-1.6595 -1.6595l0 -14.9351 -19.0838 0 0 14.9351 19.0838 0z" 
   id="path3605"
   style="fill:#FF0000;fill-opacity:1;fill-rule:nonzero;stroke:none" />
   
   
   <path   
   d="M27.0569 28.0065l0 0.904 -4.1541 0c-0.0089,-0.3655 0.1016,-0.7756 0.3334,-1.2267 0.23,-0.4528 0.6543,-0.9877 1.2712,-1.6046 0.7203,-0.7167 1.1927,-1.2712 1.4156,-1.6634 0.2229,-0.3922 0.3334,-0.7559 0.3334,-1.0947 0,-0.3904 -0.1141,-0.7078 -0.3423,-0.9521 -0.2264,-0.246 -0.5081,-0.369 -0.8433,-0.369 -0.3584,0 -0.6526,0.1319 -0.8826,0.3976 -0.2299,0.2638 -0.3441,0.6436 -0.3441,1.1375l-0.7933 -0.0981c0.0552,-0.7346 0.262,-1.2872 0.624,-1.6581 0.3601,-0.3708 0.8344,-0.558 1.4227,-0.558 0.6401,0 1.125,0.2175 1.4549,0.6489 0.328,0.4315 0.4938,0.9218 0.4938,1.4727 0,0.4867 -0.1301,0.9556 -0.3869,1.4031 -0.2585,0.4475 -0.747,1.043 -1.4673,1.7883 -0.46,0.4707 -0.7577,0.7898 -0.8914,0.9609 -0.1338,0.1712 -0.2425,0.3406 -0.3263,0.5117l3.0826 0z"   
   id="path3605"
   style="fill:#FF0000;fill-opacity:1;fill-rule:nonzero;stroke:none" />
    
    
	<path   
   d="M28.1096 25.0033c0,-1.2854 0.173,-2.2589 0.5206,-2.9203 0.3459,-0.6615 0.8576,-0.9931 1.5333,-0.9931 0.5991,0 1.0698,0.2692 1.4156,0.8059 0.4172,0.6471 0.6258,1.683 0.6258,3.1075 0,1.2784 -0.1729,2.2482 -0.517,2.9115 -0.3441,0.6632 -0.8558,0.9948 -1.5351,0.9948 -0.599,0 -1.0893,-0.2924 -1.4708,-0.8771 -0.3816,-0.5848 -0.5724,-1.594 -0.5724,-3.0292zm0.7899 0c0,1.2427 0.1194,2.0753 0.3565,2.4996 0.2389,0.4226 0.5456,0.6347 0.9182,0.6347 0.3513,0 0.6454,-0.2139 0.8826,-0.6436 0.2353,-0.4279 0.3548,-1.2587 0.3548,-2.4907 0,-1.2462 -0.1195,-2.0806 -0.3584,-2.5014 -0.2389,-0.4225 -0.5474,-0.6329 -0.9271,-0.6329 -0.3477,0 -0.6401,0.214 -0.8754,0.6419 -0.2336,0.4296 -0.3512,1.2587 -0.3512,2.4924z"
   id="path3604"
   style="fill:#FF0000;fill-opacity:1;fill-rule:nonzero;stroke:none" />
   
   
   <path   
   d="M21.9501 28.0062l0 0.904 -4.1541 0c-0.0089,-0.3655 0.1016,-0.7756 0.3334,-1.2267 0.23,-0.4528 0.6543,-0.9877 1.2712,-1.6046 0.7203,-0.7167 1.1927,-1.2712 1.4156,-1.6634 0.2229,-0.3922 0.3334,-0.7559 0.3334,-1.0947 0,-0.3904 -0.1141,-0.7078 -0.3423,-0.9521 -0.2264,-0.246 -0.5081,-0.369 -0.8433,-0.369 -0.3584,0 -0.6526,0.1319 -0.8826,0.3976 -0.2299,0.2638 -0.3441,0.6436 -0.3441,1.1375l-0.7933 -0.0981c0.0552,-0.7346 0.262,-1.2872 0.624,-1.6581 0.3601,-0.3708 0.8344,-0.558 1.4227,-0.558 0.6401,0 1.125,0.2175 1.4549,0.6489 0.328,0.4315 0.4938,0.9218 0.4938,1.4727 0,0.4867 -0.1301,0.9556 -0.3869,1.4031 -0.2585,0.4475 -0.747,1.043 -1.4673,1.7883 -0.46,0.4707 -0.7577,0.7898 -0.8914,0.9609 -0.1338,0.1712 -0.2425,0.3406 -0.3263,0.5117l3.0826 0z"
   id="path3604"
   style="fill:#FF1900;fill-opacity:1;fill-rule:nonzero;stroke:none" />
   
   </svg>
