<?xml version="1.0" encoding="UTF-8" standalone="no"?>
<!--
  #%L
  xplan-workspaces - Modul zur Gruppierung aller Workspaces
  %%
  Copyright (C) 2008 - 2022 lat/lon GmbH, info@lat-lon.de, www.lat-lon.de
  %%
  This program is free software: you can redistribute it and/or modify
  it under the terms of the GNU Affero General Public License as published by
  the Free Software Foundation, either version 3 of the License, or
  (at your option) any later version.
  
  This program is distributed in the hope that it will be useful,
  but WITHOUT ANY WARRANTY; without even the implied warranty of
  MERCHANTABILITY or FITNESS FOR A PARTICULAR PURPOSE.  See the
  GNU General Public License for more details.
  
  You should have received a copy of the GNU Affero General Public License
  along with this program.  If not, see <http://www.gnu.org/licenses/>.
  #L%
  -->

<!-- Created with Inkscape (http://www.inkscape.org/) -->

<svg
   xmlns:svg="http://www.w3.org/2000/svg"
   xmlns="http://www.w3.org/2000/svg"
   version="1.1"
   width="177.16534"
   height="177.16534"
   viewBox="0 0 50 50"
   id="svg2"
   xml:space="preserve"><defs
   id="defs11" />
 
   
       
   
   <path   
   d="M45.3458 25.0622c0,2.7877 -0.5305,5.4089 -1.5914,7.8638 -1.061,2.4549 -2.5069,4.5975 -4.3377,6.4283 -1.8306,1.8307 -3.9838,3.2765 -6.4594,4.3375 -2.4757,1.061 -5.128,1.5915 -7.9574,1.5915 -2.8292,0 -5.4713,-0.5201 -7.9261,-1.5604 -2.4549,-1.0401 -4.608,-2.4651 -6.4594,-4.275 -1.8516,-1.8099 -3.3078,-3.932 -4.3688,-6.3659 -1.0611,-2.434 -1.5915,-5.0657 -1.5915,-7.895 0,-2.8292 0.5304,-5.4921 1.5915,-7.9885 1.061,-2.4964 2.5172,-4.6704 4.3688,-6.5219 1.8514,-1.8515 4.0045,-3.3077 6.4594,-4.3688 2.4548,-1.061 5.0969,-1.5914 7.9261,-1.5914 2.8294,0 5.4817,0.5304 7.9574,1.5914 2.4756,1.0611 4.6288,2.5069 6.4594,4.3376 1.8308,1.8307 3.2767,3.9839 4.3377,6.4595 1.0609,2.4756 1.5914,5.128 1.5914,7.9573z"  
   id="path3605"
   style="fill:#823CB4;fill-opacity:1;fill-rule:nonzero;stroke:none" />
   
   
   <path   
   d="M45.3836 25.0414c0,-2.8211 -0.5255,-5.4693 -1.5765,-7.9446 -1.051,-2.4754 -2.4892,-4.6327 -4.3146,-6.472 -1.8254,-1.8392 -3.9689,-3.2981 -6.4305,-4.3768 -2.4615,-1.0786 -5.1028,-1.618 -7.9239,-1.618 -2.8764,0 -5.5592,0.5394 -8.0484,1.618 -2.4892,1.0787 -4.6465,2.5376 -6.4719,4.3768 -1.8254,1.8393 -3.2636,3.9966 -4.3146,6.472 -1.051,2.4753 -1.5765,5.1235 -1.5765,7.9446 0,2.8488 0.5255,5.5039 1.5765,7.9655 1.051,2.4615 2.4892,4.605 4.3146,6.4304 1.8254,1.8254 3.9827,3.2567 6.4719,4.2939 2.4892,1.0371 5.172,1.5557 8.0484,1.5557 2.8211,0 5.4624,-0.5186 7.9239,-1.5557 2.4616,-1.0372 4.6051,-2.4685 6.4305,-4.2939 1.8254,-1.8254 3.2636,-3.9689 4.3146,-6.4304 1.051,-2.4616 1.5765,-5.1167 1.5765,-7.9655zm-3.5264 -0.0414c0,2.3509 -0.4356,4.5566 -1.3068,6.6171 -0.8712,2.0605 -2.0674,3.8582 -3.5886,5.3932 -1.5212,1.535 -3.2982,2.7451 -5.331,3.6301 -2.0329,0.885 -4.2248,1.3276 -6.5757,1.3276 -2.3509,0 -4.5566,-0.4356 -6.6171,-1.3069 -2.0605,-0.8712 -3.8582,-2.0674 -5.3932,-3.5885 -1.535,-1.5212 -2.7451,-3.3051 -3.6301,-5.3518 -0.8851,-2.0467 -1.3276,-4.2455 -1.3276,-6.5964 0,-2.3232 0.4425,-4.522 1.3276,-6.5964 0.885,-2.0743 2.0951,-3.8928 3.6301,-5.4554 1.535,-1.5627 3.3327,-2.7935 5.3932,-3.6924 2.0605,-0.8988 4.2662,-1.3483 6.6171,-1.3483 2.3509,0 4.5428,0.4426 6.5757,1.3276 2.0328,0.8851 3.8098,2.0951 5.331,3.6301 1.5212,1.535 2.7174,3.3327 3.5886,5.3932 0.8712,2.0605 1.3068,4.2662 1.3068,6.6172zm-9.293 -8.5048l1.618 0c0.1106,0 0.1659,0.0691 0.1659,0.2074l-0.1244 0.9957 4.1486 0.0415 0.4149 0 -0.083 0.4563 -0.9957 4.8955 -0.0829 0.2489 -0.2489 0.0415 -3.6924 0.2904 -0.1244 1.1616c0,0.1106 -0.0553,0.166 -0.166,0.166 -0.1382,0 -0.2074,-0.0554 -0.2074,-0.166l-0.1245 -1.1201 -5.891 0.3733 -0.4564 8.9612 4.688 0 0.0415 0.3318 0.2489 1.9499 0.083 0.4149 -5.1444 0 -0.6638 3.1945 -0.0414 0.1659 -0.166 0.0415 -0.6638 0.3734 -0.1659 0.0829 -0.166 -0.0829 -0.7467 -0.4149 -0.166 -0.083 -0.0415 -0.1659 -0.4563 -3.1115 -5.0614 0 0.083 -0.4149 0.2074 -1.9084 0 -0.3319 0.3319 0 4.3976 -0.0414 -0.6223 -8.9612 -5.6837 -0.3733 -0.1244 1.1201c0,0.1106 -0.0553,0.166 -0.166,0.166 -0.1106,0 -0.1659,-0.0554 -0.1659,-0.166l-0.1245 -1.1616 -3.6093 -0.2904 -0.2904 -0.0415 -0.0415 -0.2489 -0.8712 -4.854 -0.083 -0.4563 0.4564 0 3.8167 -0.0415 -0.0415 -1.0372c0,-0.1383 0.0415,-0.2074 0.1245,-0.2074l1.618 0c0.1106,0 0.1659,0.0691 0.1659,0.2074l0 0.0415 -0.083 0.9957 5.2688 -0.0415 0.7053 -4.1072 0.083 -0.1659 1.1201 -1.3276 0.2904 -0.3319 0.249 0.3319 1.0786 1.3276 0.083 0.083 0.0415 0.0829 0.6638 4.1072 5.3102 0 -0.0829 -0.9542 0 -0.0415c0,-0.1383 0.0553,-0.2074 0.1659,-0.2074z" 
   id="path3605"
   style="fill:#000000;fill-opacity:1;fill-rule:nonzero;stroke:none" />
    
    

   
   </svg>
