<?xml version="1.0" encoding="UTF-8" standalone="no"?>
<!--
  #%L
  xplan-workspaces - Modul zur Gruppierung aller Workspaces
  %%
  Copyright (C) 2008 - 2022 lat/lon GmbH, info@lat-lon.de, www.lat-lon.de
  %%
  This program is free software: you can redistribute it and/or modify
  it under the terms of the GNU Affero General Public License as published by
  the Free Software Foundation, either version 3 of the License, or
  (at your option) any later version.
  
  This program is distributed in the hope that it will be useful,
  but WITHOUT ANY WARRANTY; without even the implied warranty of
  MERCHANTABILITY or FITNESS FOR A PARTICULAR PURPOSE.  See the
  GNU General Public License for more details.
  
  You should have received a copy of the GNU Affero General Public License
  along with this program.  If not, see <http://www.gnu.org/licenses/>.
  #L%
  -->

<!-- Created with Inkscape (http://www.inkscape.org/) -->

<svg
   xmlns:svg="http://www.w3.org/2000/svg"
   xmlns="http://www.w3.org/2000/svg"
   version="1.1"
   width="177.16534"
   height="177.16534"
   viewBox="0 0 50 50"
   id="svg2"
   xml:space="preserve"><defs
   id="defs11" />
 
   
   <path   
   d="M33.6629 24.9619c0,1.1781 -0.2242,2.2859 -0.6726,3.3233 -0.4484,1.0375 -1.0594,1.943 -1.8331,2.7167 -0.7737,0.7737 -1.6836,1.3847 -2.7298,1.8331 -1.0463,0.4484 -2.1672,0.6726 -3.3629,0.6726 -1.1957,0 -2.3123,-0.2198 -3.3497,-0.6594 -1.0374,-0.4396 -1.9474,-1.0419 -2.7298,-1.8067 -0.7825,-0.7649 -1.3979,-1.6617 -1.8463,-2.6903 -0.4484,-1.0287 -0.6726,-2.1409 -0.6726,-3.3365 0,-1.1957 0.2242,-2.3211 0.6726,-3.3761 0.4484,-1.055 1.0638,-1.9738 1.8463,-2.7562 0.7824,-0.7825 1.6924,-1.3979 2.7298,-1.8463 1.0374,-0.4484 2.154,-0.6726 3.3497,-0.6726 1.1957,0 2.3166,0.2242 3.3629,0.6726 1.0462,0.4484 1.9561,1.0594 2.7298,1.8331 0.7737,0.7737 1.3847,1.6836 1.8331,2.7298 0.4484,1.0462 0.6726,2.1672 0.6726,3.3629z"  
   id="path3604"
   style="fill:#FBFBFB;fill-opacity:1;fill-rule:nonzero;stroke:none" />
     
   
   <path   
   d="M33.7258 24.9792c0,-1.1893 -0.2213,-2.3094 -0.6638,-3.3604 -0.4425,-1.051 -1.051,-1.9706 -1.8254,-2.7589 -0.7744,-0.7882 -1.6871,-1.4105 -2.7381,-1.8669 -1.051,-0.4563 -2.1711,-0.6845 -3.3604,-0.6845 -1.1893,0 -2.3164,0.2282 -3.3812,0.6845 -1.0648,0.4564 -1.9913,1.0787 -2.7796,1.8669 -0.7882,0.7883 -1.4174,1.7079 -1.8876,2.7589 -0.4702,1.051 -0.7053,2.1711 -0.7053,3.3604 0,1.2446 0.2351,2.3924 0.7053,3.4434 0.4702,1.051 1.0994,1.9637 1.8876,2.7381 0.7883,0.7744 1.7148,1.376 2.7796,1.8047 1.0648,0.4287 2.1919,0.643 3.3812,0.643 1.1893,0 2.3094,-0.2143 3.3604,-0.643 1.051,-0.4287 1.9637,-1.0303 2.7381,-1.8047 0.7744,-0.7744 1.3829,-1.6871 1.8254,-2.7381 0.4425,-1.051 0.6638,-2.1988 0.6638,-3.4434zm-0.8297 -0.0415c0,1.1063 -0.2006,2.1366 -0.6016,3.0908 -0.401,0.9541 -0.9542,1.7908 -1.6595,2.5099 -0.7052,0.7191 -1.528,1.2861 -2.4684,1.7009 -0.9404,0.4149 -1.9499,0.6223 -3.0285,0.6223 -1.1063,0 -2.1366,-0.2074 -3.0908,-0.6223 -0.9542,-0.4148 -1.7908,-0.9818 -2.5099,-1.7009 -0.7191,-0.7191 -1.2861,-1.5558 -1.701,-2.5099 -0.4148,-0.9542 -0.6223,-1.9845 -0.6223,-3.0908 0,-1.0787 0.2075,-2.0951 0.6223,-3.0493 0.4149,-0.9542 0.9819,-1.7839 1.701,-2.4892 0.7191,-0.7052 1.5557,-1.2653 2.5099,-1.6802 0.9542,-0.4148 1.9845,-0.6223 3.0908,-0.6223 1.0786,0 2.0881,0.2075 3.0285,0.6223 0.9404,0.4149 1.7632,0.975 2.4684,1.6802 0.7053,0.7053 1.2585,1.535 1.6595,2.4892 0.401,0.9542 0.6016,1.9706 0.6016,3.0493z"  
   id="path3605"
   style="fill:#000000;fill-opacity:1;fill-rule:nonzero;stroke:none" />
   
   
   <path   
   d="M26.5841 26.1259l0.6456 -0.0691c0.0352,0.3485 0.1132,0.619 0.2352,0.8117 0.1221,0.1941 0.2956,0.3499 0.5235,0.4676 0.2264,0.1176 0.4822,0.1764 0.766,0.1764 0.4088,0 0.7249,-0.0985 0.9499,-0.2985 0.2265,-0.2 0.3382,-0.4587 0.3382,-0.7778 0,-0.1868 -0.0412,-0.35 -0.122,-0.4882 -0.0824,-0.1397 -0.2059,-0.2544 -0.3706,-0.3426 -0.1661,-0.0897 -0.522,-0.2147 -1.0704,-0.3749 -0.4882,-0.1441 -0.8367,-0.2897 -1.0425,-0.4353 -0.2073,-0.147 -0.3676,-0.3323 -0.4823,-0.5587 -0.1162,-0.225 -0.1735,-0.4794 -0.1735,-0.7646 0,-0.5103 0.1661,-0.9278 0.4955,-1.2528 0.3308,-0.325 0.7764,-0.4867 1.3366,-0.4867 0.3837,0 0.7205,0.0765 1.0101,0.2279 0.2882,0.1529 0.5117,0.3706 0.672,0.6543 0.1588,0.2853 0.2441,0.6191 0.2559,1.0043l-0.6588 0.0603c-0.0353,-0.4102 -0.1573,-0.7146 -0.369,-0.9131 -0.2103,-0.1985 -0.5073,-0.297 -0.8896,-0.297 -0.3868,0 -0.6838,0.0867 -0.8867,0.2602 -0.2044,0.1735 -0.3058,0.3985 -0.3058,0.6749 0,0.2544 0.0735,0.4529 0.2235,0.5941 0.15,0.1411 0.4852,0.2823 1.0087,0.4264 0.5102,0.1411 0.869,0.2632 1.0763,0.3661 0.3161,0.1603 0.5543,0.372 0.7146,0.6352 0.1617,0.2632 0.2411,0.5764 0.2411,0.9411 0,0.3617 -0.0838,0.691 -0.2529,0.9895 -0.1705,0.2971 -0.3999,0.522 -0.6925,0.6779 -0.2912,0.1544 -0.6426,0.2323 -1.0528,0.2323 -0.6411,0 -1.1513,-0.1926 -1.5322,-0.5764 -0.3793,-0.3852 -0.5778,-0.9072 -0.5911,-1.5645z" 
   id="path3605"
   style="fill:#000000;fill-opacity:1;fill-rule:nonzero;stroke:none" />
    
    
	<path   
   d="M20.7153 28.2668l-1.4209 -6.5269 0.7264 0 0.8145 4.2778c0.0866,0.4407 0.1626,0.886 0.2265,1.3358l0.2416 -1.2066 1.0197 -4.407 0.854 0 0.7659 3.3037c0.1869,0.8039 0.3267,1.5744 0.4179,2.3099 0.0684,-0.424 0.1566,-0.8966 0.2629,-1.4194l0.8419 -4.1942 0.7128 0 -1.4696 6.5269 -0.6808 0 -1.1306 -4.9723 -0.1702 -0.7659c-0.0501,0.2842 -0.1018,0.5394 -0.155,0.7659l-1.1352 4.9723 -0.7218 0z"
   id="path3604"
   style="fill:#000000;fill-opacity:1;fill-rule:nonzero;stroke:none" />
   
 
   
   </svg>
