<?xml version="1.0" encoding="UTF-8" standalone="no"?>
<!--
  #%L
  xplan-workspaces - Modul zur Gruppierung aller Workspaces
  %%
  Copyright (C) 2008 - 2022 lat/lon GmbH, info@lat-lon.de, www.lat-lon.de
  %%
  This program is free software: you can redistribute it and/or modify
  it under the terms of the GNU Affero General Public License as published by
  the Free Software Foundation, either version 3 of the License, or
  (at your option) any later version.
  
  This program is distributed in the hope that it will be useful,
  but WITHOUT ANY WARRANTY; without even the implied warranty of
  MERCHANTABILITY or FITNESS FOR A PARTICULAR PURPOSE.  See the
  GNU General Public License for more details.
  
  You should have received a copy of the GNU Affero General Public License
  along with this program.  If not, see <http://www.gnu.org/licenses/>.
  #L%
  -->

<!-- Created with Inkscape (http://www.inkscape.org/) -->

<svg
   xmlns:svg="http://www.w3.org/2000/svg"
   xmlns="http://www.w3.org/2000/svg"
   version="1.1"
   width="177.16534"
   height="177.16534"
   viewBox="0 0 50 50"
   id="svg2"
   xml:space="preserve"><defs
   id="defs11" />
 

     
   
   <path   
   d="M41.2555 25.0002c0,-2.1504 -0.4086,-4.2146 -1.2255,-6.1927 -0.817,-1.9781 -1.9567,-3.6984 -3.4189,-5.1603 -1.4622,-1.4622 -3.1822,-2.6234 -5.1606,-3.4835 -1.9781,-0.8602 -4.0852,-1.2902 -6.3214,-1.2902 -2.2363,0 -4.3649,0.43 -6.3862,1.2902 -2.021,0.8601 -3.7628,2.0213 -5.225,3.4835 -1.4622,1.4619 -2.6233,3.1822 -3.4832,5.1603 -0.8601,1.9781 -1.2902,4.0423 -1.2902,6.1927 0,2.3221 0.4301,4.4724 1.2902,6.4505 0.8599,1.9781 2.021,3.677 3.4832,5.096 1.4622,1.4192 3.204,2.5372 5.225,3.3544 2.0213,0.817 4.1499,1.2256 6.3862,1.2256 2.2362,0 4.3433,-0.4086 6.3214,-1.2256 1.9784,-0.8172 3.6984,-1.9352 5.1606,-3.3544 1.4622,-1.419 2.6019,-3.1179 3.4189,-5.096 0.8169,-1.9781 1.2255,-4.1284 1.2255,-6.4505z" 
   id="path3605"
   style="fill:#64C800;fill-opacity:1;fill-rule:nonzero;stroke:none" />
   
   
   <path   
   d="M41.2555 25.0002c0,-2.1504 -0.4086,-4.2146 -1.2255,-6.1927 -0.817,-1.9781 -1.9567,-3.6984 -3.4189,-5.1603 -1.4622,-1.4622 -3.1822,-2.6234 -5.1606,-3.4835 -1.9781,-0.8602 -4.0852,-1.2902 -6.3214,-1.2902 -2.2363,0 -4.3649,0.43 -6.3862,1.2902 -2.021,0.8601 -3.7628,2.0213 -5.225,3.4835 -1.4622,1.4619 -2.6233,3.1822 -3.4832,5.1603 -0.8601,1.9781 -1.2902,4.0423 -1.2902,6.1927 0,2.3221 0.4301,4.4724 1.2902,6.4505 0.8599,1.9781 2.021,3.677 3.4832,5.096 1.4622,1.4192 3.204,2.5372 5.225,3.3544 2.0213,0.817 4.1499,1.2256 6.3862,1.2256 2.2362,0 4.3433,-0.4086 6.3214,-1.2256 1.9784,-0.8172 3.6984,-1.9352 5.1606,-3.3544 1.4622,-1.419 2.6019,-3.1179 3.4189,-5.096 0.8169,-1.9781 1.2255,-4.1284 1.2255,-6.4505zm-3.9994 0c0,3.6123 -1.1827,6.5581 -3.5476,8.8373 -2.3653,2.2791 -5.2253,3.4188 -8.5794,3.4188 -3.4403,0 -6.3647,-1.1397 -8.7729,-3.4188 -2.4082,-2.2792 -3.6123,-5.225 -3.6123,-8.8373 0,-1.6341 0.3225,-3.2039 0.9675,-4.709 0.6452,-1.5052 1.5268,-2.8168 2.6448,-3.9348 1.1183,-1.1182 2.4296,-1.9999 3.935,-2.6448 1.5052,-0.645 3.1176,-0.9678 4.8379,-0.9678 1.6341,0 3.2036,0.3228 4.709,0.9678 1.5051,0.6449 2.7951,1.5266 3.8704,2.6448 1.075,1.118 1.9352,2.4296 2.5801,3.9348 0.645,1.5051 0.9675,3.0749 0.9675,4.709z"  
   id="path3605"
   style="fill:#009664;fill-opacity:1;fill-rule:nonzero;stroke:none" />
    
   
   
   </svg>
