<?xml version="1.0" encoding="UTF-8" standalone="no"?>
<!--
  #%L
  xplan-workspaces - Modul zur Gruppierung aller Workspaces
  %%
  Copyright (C) 2008 - 2022 lat/lon GmbH, info@lat-lon.de, www.lat-lon.de
  %%
  This program is free software: you can redistribute it and/or modify
  it under the terms of the GNU Affero General Public License as published by
  the Free Software Foundation, either version 3 of the License, or
  (at your option) any later version.
  
  This program is distributed in the hope that it will be useful,
  but WITHOUT ANY WARRANTY; without even the implied warranty of
  MERCHANTABILITY or FITNESS FOR A PARTICULAR PURPOSE.  See the
  GNU General Public License for more details.
  
  You should have received a copy of the GNU Affero General Public License
  along with this program.  If not, see <http://www.gnu.org/licenses/>.
  #L%
  -->

<!-- Created with Inkscape (http://www.inkscape.org/) -->

<svg
   xmlns:svg="http://www.w3.org/2000/svg"
   xmlns="http://www.w3.org/2000/svg"
   version="1.1"
   width="177.16534"
   height="177.16534"
   viewBox="0 0 50 50"
   id="svg2"
   xml:space="preserve"><defs
   id="defs11" />
 
   
  
     
   
   <path   
   d="M40.7443 25.0481c0,2.1573 -0.4106,4.1857 -1.2315,6.0854 -0.8211,1.8996 -1.9399,3.5577 -3.3567,4.9744 -1.4166,1.4166 -3.0828,2.5355 -4.9985,3.3565 -1.9158,0.8211 -3.9682,1.2315 -6.1577,1.2315 -2.1894,0 -4.2339,-0.4024 -6.1336,-1.2074 -1.8996,-0.8049 -3.5658,-1.9076 -4.9985,-3.3082 -1.4328,-1.4005 -2.5596,-3.0427 -3.3807,-4.9261 -0.8211,-1.8835 -1.2315,-3.9201 -1.2315,-6.1094 0,-2.1894 0.4104,-4.25 1.2315,-6.1819 0.8211,-1.9317 1.9479,-3.6141 3.3807,-5.0468 1.4327,-1.4328 3.0989,-2.5597 4.9985,-3.3807 1.8997,-0.8211 3.9442,-1.2316 6.1336,-1.2316 2.1895,0 4.2419,0.4105 6.1577,1.2316 1.9157,0.821 3.5819,1.9399 4.9985,3.3565 1.4168,1.4167 2.5356,3.0829 3.3567,4.9986 0.8209,1.9157 1.2315,3.9683 1.2315,6.1576z"  
   id="path3605"
   style="fill:#A6A6A6;fill-opacity:1;fill-rule:nonzero;stroke:none" />
   
   
   <path   
   d="M36.6298 18.7977l-23.2325 0c0.1937,-0.3595 0.408,-0.7122 0.6431,-1.0579 0.2351,-0.3457 0.4909,-0.6845 0.7675,-1.0164l-1.8254 -2.0329c-1.1893,1.4106 -2.1158,2.994 -2.7796,4.7502 -0.6638,1.7563 -0.9957,3.6301 -0.9957,5.6215 0,2.102 0.3665,4.0657 1.0994,5.8911 0.7329,1.8254 1.7493,3.4364 3.0493,4.8332 1.2999,1.3967 2.8349,2.5306 4.605,3.4019 1.7701,0.8712 3.6785,1.3898 5.7251,1.5557l0 -2.5722c-1.6871,-0.1659 -3.2498,-0.6153 -4.688,-1.3483 -1.4382,-0.7329 -2.6897,-1.6802 -3.7545,-2.8418 -1.0648,-1.1616 -1.9015,-2.503 -2.5099,-4.0242 -0.6085,-1.5212 -0.9127,-3.1392 -0.9127,-4.8539 0,-0.3319 0.0138,-0.6569 0.0414,-0.975 0.0277,-0.318 0.0692,-0.643 0.1245,-0.9749l26.0536 0c0.083,0.6361 0.1244,1.2584 0.1244,1.8669 0,1.7148 -0.3042,3.3397 -0.9127,4.8747 -0.6084,1.535 -1.4382,2.8902 -2.4892,4.0657 -1.0509,1.1754 -2.2955,2.1365 -3.7337,2.8833 -1.4383,0.7467 -2.9871,1.2031 -4.6465,1.369l0 2.5722c2.0466,-0.1659 3.955,-0.6845 5.7251,-1.5557 1.7701,-0.8713 3.3051,-2.0052 4.605,-3.4019 1.2999,-1.3968 2.3233,-3.0147 3.07,-4.854 0.7468,-1.8392 1.1202,-3.8098 1.1202,-5.9118 0,-2.019 -0.3458,-3.9274 -1.0372,-5.7252 -0.6914,-1.7977 -1.6595,-3.4019 -2.9041,-4.8124l-1.8669 1.9913c0.2766,0.3596 0.5463,0.7261 0.809,1.0994 0.2628,0.3734 0.5048,0.7675 0.726,1.1824zm-11.5747 -7.0112c1.5765,0 3.0285,0.2489 4.3561,0.7467 1.3275,0.4979 2.5721,1.1893 3.7338,2.0744l1.8254 -1.9914c-1.3552,-1.0787 -2.8626,-1.9291 -4.5221,-2.5514 -1.6594,-0.6223 -3.4433,-0.9335 -5.3517,-0.9335 -1.9914,0 -3.8445,0.325 -5.5592,0.975 -1.7148,0.6499 -3.2498,1.5557 -4.605,2.7173l1.7424 1.9914c1.1616,-0.9404 2.4477,-1.6802 3.8582,-2.2195 1.4106,-0.5394 2.9179,-0.809 4.5221,-0.809zm-12.2386 8.2558l24.3942 0c0.1382,0.3596 0.2558,0.6914 0.3526,0.9957 0.0968,0.3042 0.1729,0.5946 0.2282,0.8712l-25.5973 0c0.166,-0.6085 0.3734,-1.2308 0.6223,-1.8669z"  
   id="path3605"
   style="fill:#000000;fill-opacity:1;fill-rule:nonzero;stroke:none" />
    
    
   
   </svg>
