<?xml version="1.0" encoding="UTF-8" standalone="no"?>
<!--
  #%L
  xplan-workspaces - Modul zur Gruppierung aller Workspaces
  %%
  Copyright (C) 2008 - 2022 lat/lon GmbH, info@lat-lon.de, www.lat-lon.de
  %%
  This program is free software: you can redistribute it and/or modify
  it under the terms of the GNU Affero General Public License as published by
  the Free Software Foundation, either version 3 of the License, or
  (at your option) any later version.
  
  This program is distributed in the hope that it will be useful,
  but WITHOUT ANY WARRANTY; without even the implied warranty of
  MERCHANTABILITY or FITNESS FOR A PARTICULAR PURPOSE.  See the
  GNU General Public License for more details.
  
  You should have received a copy of the GNU Affero General Public License
  along with this program.  If not, see <http://www.gnu.org/licenses/>.
  #L%
  -->

<!-- Created with Inkscape (http://www.inkscape.org/) -->

<svg
   xmlns:svg="http://www.w3.org/2000/svg"
   xmlns="http://www.w3.org/2000/svg"
   version="1.1"
   width="177.16534"
   height="177.16534"
   viewBox="0 0 50 50"
   id="svg2"
   xml:space="preserve"><defs
   id="defs11" />
 

   
   
   <path   
   d="M40.4706 25.0473c0,2.1197 -0.4034,4.1128 -1.2101,5.9795 -0.8068,1.8666 -1.9062,3.4958 -3.2983,4.8879 -1.392,1.392 -3.0292,2.4914 -4.9116,3.2982 -1.8825,0.8067 -3.8992,1.2101 -6.0506,1.2101 -2.1513,0 -4.1603,-0.3955 -6.0269,-1.1865 -1.8666,-0.7908 -3.5038,-1.8744 -4.9116,-3.2506 -1.4079,-1.3762 -2.5152,-2.9898 -3.3219,-4.8405 -0.8068,-1.8508 -1.2102,-3.8519 -1.2102,-6.0032 0,-2.1513 0.4034,-4.1761 1.2102,-6.0743 0.8067,-1.8982 1.914,-3.5513 3.3219,-4.9591 1.4078,-1.4079 3.045,-2.5152 4.9116,-3.3219 1.8666,-0.8068 3.8756,-1.2101 6.0269,-1.2101 2.1514,0 4.1681,0.4033 6.0506,1.2101 1.8824,0.8067 3.5196,1.9061 4.9116,3.2981 1.3921,1.3921 2.4915,3.0294 3.2983,4.9117 0.8067,1.8824 1.2101,3.8993 1.2101,6.0506z"  
   id="path3604"
   style="fill:#FBFBFB;fill-opacity:1;fill-rule:nonzero;stroke:none" />
   
   
   <path   
   d="M36.4017 25c0,-1.4106 -0.2351,-2.7382 -0.7053,-3.9828 -0.4701,-1.2446 -1.1201,-2.3578 -1.9498,-3.3396 -0.8298,-0.9819 -1.8047,-1.8116 -2.9248,-2.4892 -1.1202,-0.6776 -2.344,-1.1409 -3.6716,-1.3898l0 -4.2317c1.9084,0.249 3.6785,0.8229 5.3103,1.7217 1.6318,0.8989 3.0493,2.0329 4.2524,3.4019 1.2031,1.3691 2.1504,2.9318 2.8418,4.688 0.6914,1.7563 1.0372,3.6163 1.0372,5.58 0,1.9913 -0.3458,3.8721 -1.0372,5.6421 -0.6914,1.7701 -1.6387,3.3328 -2.8418,4.688 -1.2031,1.3553 -2.6206,2.4754 -4.2524,3.3604 -1.6318,0.8851 -3.4019,1.4521 -5.3103,1.701l0 -4.1072c1.3276,-0.2489 2.5514,-0.7122 3.6716,-1.3898 1.1201,-0.6776 2.095,-1.5142 2.9248,-2.5099 0.8297,-0.9957 1.4797,-2.1158 1.9498,-3.3604 0.4702,-1.2446 0.7053,-2.5722 0.7053,-3.9827zm-26.8833 -0.0415c0,-1.9361 0.3388,-3.7822 1.0164,-5.5385 0.6776,-1.7563 1.618,-3.3258 2.8211,-4.7087 1.2031,-1.3829 2.6275,-2.5238 4.2731,-3.4227 1.6457,-0.8988 3.4227,-1.4727 5.3311,-1.7217l0 4.2317c-1.3276,0.2489 -2.5584,0.7191 -3.6923,1.4105 -1.134,0.6915 -2.1228,1.535 -2.9663,2.5307 -0.8436,0.9957 -1.5005,2.1227 -1.9707,3.3812 -0.4701,1.2584 -0.7052,2.579 -0.7052,3.9619 0,1.4106 0.2351,2.7381 0.7052,3.9827 0.4702,1.2446 1.1271,2.3579 1.9707,3.3397 0.8435,0.9819 1.8323,1.8047 2.9663,2.4685 1.1339,0.6638 2.3647,1.1201 3.6923,1.369l0 4.0657c-1.9084,-0.2489 -3.6854,-0.8159 -5.3311,-1.7009 -1.6456,-0.8851 -3.07,-2.0052 -4.2731,-3.3605 -1.2031,-1.3552 -2.1435,-2.9109 -2.8211,-4.6672 -0.6776,-1.7563 -1.0164,-3.6301 -1.0164,-5.6214z"   
   id="path3605"
   style="fill:#FF0000;fill-opacity:1;fill-rule:nonzero;stroke:none" />
   
   
   
 
   
   
   
   
   
   
   </svg>
