<?xml version="1.0" encoding="UTF-8" standalone="no"?>
<!--
  #%L
  xplan-workspaces - Modul zur Gruppierung aller Workspaces
  %%
  Copyright (C) 2008 - 2022 lat/lon GmbH, info@lat-lon.de, www.lat-lon.de
  %%
  This program is free software: you can redistribute it and/or modify
  it under the terms of the GNU Affero General Public License as published by
  the Free Software Foundation, either version 3 of the License, or
  (at your option) any later version.
  
  This program is distributed in the hope that it will be useful,
  but WITHOUT ANY WARRANTY; without even the implied warranty of
  MERCHANTABILITY or FITNESS FOR A PARTICULAR PURPOSE.  See the
  GNU General Public License for more details.
  
  You should have received a copy of the GNU Affero General Public License
  along with this program.  If not, see <http://www.gnu.org/licenses/>.
  #L%
  -->

<!-- Created with Inkscape (http://www.inkscape.org/) -->

<svg
   xmlns:svg="http://www.w3.org/2000/svg"
   xmlns="http://www.w3.org/2000/svg"
   version="1.1"
   width="177.16534"
   height="177.16534"
   viewBox="0 0 50 50"
   id="svg2"
   xml:space="preserve"><defs
   id="defs11" />
 
   

     
   
   <path   
   d="M40.7443 25.0481c0,2.1573 -0.4106,4.1857 -1.2315,6.0854 -0.8211,1.8996 -1.9399,3.5577 -3.3567,4.9744 -1.4166,1.4166 -3.0828,2.5355 -4.9985,3.3565 -1.9158,0.8211 -3.9682,1.2315 -6.1577,1.2315 -2.1894,0 -4.2339,-0.4024 -6.1336,-1.2074 -1.8996,-0.8049 -3.5658,-1.9076 -4.9985,-3.3082 -1.4328,-1.4005 -2.5596,-3.0427 -3.3807,-4.9261 -0.8211,-1.8835 -1.2315,-3.9201 -1.2315,-6.1094 0,-2.1894 0.4104,-4.25 1.2315,-6.1819 0.8211,-1.9317 1.9479,-3.6141 3.3807,-5.0468 1.4327,-1.4328 3.0989,-2.5597 4.9985,-3.3807 1.8997,-0.8211 3.9442,-1.2316 6.1336,-1.2316 2.1895,0 4.2419,0.4105 6.1577,1.2316 1.9157,0.821 3.5819,1.9399 4.9985,3.3565 1.4168,1.4167 2.5356,3.0829 3.3567,4.9986 0.8209,1.9157 1.2315,3.9683 1.2315,6.1576z"  
   id="path3605"
   style="fill:#FF0000;fill-opacity:1;fill-rule:nonzero;stroke:none" />
   
   
   <path   
   d="M40.903 25.0415c0,-2.185 -0.408,-4.2455 -1.2239,-6.1815 -0.8159,-1.9361 -1.9429,-3.6301 -3.3811,-5.0821 -1.4383,-1.4521 -3.1185,-2.5929 -5.0407,-3.4227 -1.9222,-0.8297 -3.9758,-1.2446 -6.1607,-1.2446 -2.2403,0 -4.3216,0.4149 -6.2438,1.2446 -1.9222,0.8298 -3.6024,1.9706 -5.0406,3.4227 -1.4382,1.452 -2.5652,3.146 -3.3811,5.0821 -0.8159,1.936 -1.2239,3.9965 -1.2239,6.1815 0,2.2126 0.408,4.28 1.2239,6.2022 0.8159,1.9223 1.9429,3.5886 3.3811,4.9992 1.4382,1.4105 3.1184,2.5237 5.0406,3.3396 1.9222,0.8159 4.0035,1.2239 6.2438,1.2239 2.1849,0 4.2385,-0.408 6.1607,-1.2239 1.9222,-0.8159 3.6024,-1.9291 5.0407,-3.3396 1.4382,-1.4106 2.5652,-3.0769 3.3811,-4.9992 0.8159,-1.9222 1.2239,-3.9896 1.2239,-6.2022zm-2.7382 -0.0415c0,1.8254 -0.3388,3.5471 -1.0164,5.1651 -0.6776,1.618 -1.611,3.0216 -2.8003,4.2109 -1.1893,1.1893 -2.5791,2.1296 -4.1694,2.8211 -1.5903,0.6914 -3.2982,1.0371 -5.1236,1.0371 -0.2489,0 -0.4909,-0.0069 -0.726,-0.0207 -0.2351,-0.0138 -0.4633,-0.0346 -0.6846,-0.0622l-0.8712 -0.083 -0.9542 -0.2074 -0.7052 -0.2075c-1.3553,-0.4148 -2.5999,-1.0233 -3.7338,-1.8254 -1.134,-0.8021 -2.1159,-1.7493 -2.9456,-2.8418 -0.8297,-1.0925 -1.4728,-2.3094 -1.9291,-3.6508 -0.4564,-1.3414 -0.6845,-2.7589 -0.6845,-4.2524 0,-1.8254 0.3457,-3.5402 1.0371,-5.1444 0.6915,-1.6041 1.6318,-3.0147 2.8211,-4.2316 1.1893,-1.2169 2.5929,-2.178 4.2109,-2.8833 1.618,-0.7053 3.3397,-1.0579 5.1651,-1.0579 0.5808,0 1.1478,0.0415 1.7009,0.1244l0.6638 0.083 0.9957 0.2074 0.8297 0.249c1.2999,0.4425 2.4961,1.0717 3.5886,1.8876 1.0925,0.8159 2.0329,1.7701 2.8211,2.8626 0.7883,1.0925 1.4036,2.3025 1.8462,3.6301 0.4425,1.3275 0.6637,2.7242 0.6637,4.1901zm-4.8124 -2.0328l-9.7079 15.1841c-0.8574,-0.083 -1.7009,-0.249 -2.5306,-0.4979l9.3759 -13.0683 -14.5203 2.3233 10.7865 -15.0182c0.4702,0.0554 0.9127,0.1314 1.3276,0.2282 0.4149,0.0968 0.8021,0.2005 1.1616,0.3112l-10.2472 12.8193 14.3544 -2.2817z"
   id="path3605"
   style="fill:#000000;fill-opacity:1;fill-rule:nonzero;stroke:none" />
    
    

   
   </svg>
