<?xml version="1.0" encoding="UTF-8" standalone="no"?>
<!--
  #%L
  xplan-workspaces - Modul zur Gruppierung aller Workspaces
  %%
  Copyright (C) 2008 - 2022 lat/lon GmbH, info@lat-lon.de, www.lat-lon.de
  %%
  This program is free software: you can redistribute it and/or modify
  it under the terms of the GNU Affero General Public License as published by
  the Free Software Foundation, either version 3 of the License, or
  (at your option) any later version.
  
  This program is distributed in the hope that it will be useful,
  but WITHOUT ANY WARRANTY; without even the implied warranty of
  MERCHANTABILITY or FITNESS FOR A PARTICULAR PURPOSE.  See the
  GNU General Public License for more details.
  
  You should have received a copy of the GNU Affero General Public License
  along with this program.  If not, see <http://www.gnu.org/licenses/>.
  #L%
  -->

<!-- Created with Inkscape (http://www.inkscape.org/) -->

<svg
   xmlns:svg="http://www.w3.org/2000/svg"
   xmlns="http://www.w3.org/2000/svg"
   version="1.1"
   width="177.16534"
   height="177.16534"
   viewBox="0 0 50 50"
   id="svg2"
   xml:space="preserve"><defs
   id="defs11" />
 
   
   <path   
   d="M33.6629 24.9619c0,1.1781 -0.2242,2.2859 -0.6726,3.3233 -0.4484,1.0375 -1.0594,1.943 -1.8331,2.7167 -0.7737,0.7737 -1.6836,1.3847 -2.7298,1.8331 -1.0463,0.4484 -2.1672,0.6726 -3.3629,0.6726 -1.1957,0 -2.3123,-0.2198 -3.3497,-0.6594 -1.0374,-0.4396 -1.9474,-1.0419 -2.7298,-1.8067 -0.7825,-0.7649 -1.3979,-1.6617 -1.8463,-2.6903 -0.4484,-1.0287 -0.6726,-2.1409 -0.6726,-3.3365 0,-1.1957 0.2242,-2.3211 0.6726,-3.3761 0.4484,-1.055 1.0638,-1.9738 1.8463,-2.7562 0.7824,-0.7825 1.6924,-1.3979 2.7298,-1.8463 1.0374,-0.4484 2.154,-0.6726 3.3497,-0.6726 1.1957,0 2.3166,0.2242 3.3629,0.6726 1.0462,0.4484 1.9561,1.0594 2.7298,1.8331 0.7737,0.7737 1.3847,1.6836 1.8331,2.7298 0.4484,1.0462 0.6726,2.1672 0.6726,3.3629z"  
   id="path3604"
   style="fill:#FBFBFB;fill-opacity:1;fill-rule:nonzero;stroke:none" />
     
   
   <path   
   d="M33.7258 24.9792c0,-1.1893 -0.2213,-2.3094 -0.6638,-3.3604 -0.4425,-1.051 -1.051,-1.9706 -1.8254,-2.7589 -0.7744,-0.7882 -1.6871,-1.4105 -2.7381,-1.8669 -1.051,-0.4563 -2.1711,-0.6845 -3.3604,-0.6845 -1.1893,0 -2.3164,0.2282 -3.3812,0.6845 -1.0648,0.4564 -1.9913,1.0787 -2.7796,1.8669 -0.7882,0.7883 -1.4174,1.7079 -1.8876,2.7589 -0.4702,1.051 -0.7053,2.1711 -0.7053,3.3604 0,1.2446 0.2351,2.3924 0.7053,3.4434 0.4702,1.051 1.0994,1.9637 1.8876,2.7381 0.7883,0.7744 1.7148,1.376 2.7796,1.8047 1.0648,0.4287 2.1919,0.643 3.3812,0.643 1.1893,0 2.3094,-0.2143 3.3604,-0.643 1.051,-0.4287 1.9637,-1.0303 2.7381,-1.8047 0.7744,-0.7744 1.3829,-1.6871 1.8254,-2.7381 0.4425,-1.051 0.6638,-2.1988 0.6638,-3.4434zm-0.8297 -0.0415c0,1.1063 -0.2006,2.1366 -0.6016,3.0908 -0.401,0.9541 -0.9542,1.7908 -1.6595,2.5099 -0.7052,0.7191 -1.528,1.2861 -2.4684,1.7009 -0.9404,0.4149 -1.9499,0.6223 -3.0285,0.6223 -1.1063,0 -2.1366,-0.2074 -3.0908,-0.6223 -0.9542,-0.4148 -1.7908,-0.9818 -2.5099,-1.7009 -0.7191,-0.7191 -1.2861,-1.5558 -1.701,-2.5099 -0.4148,-0.9542 -0.6223,-1.9845 -0.6223,-3.0908 0,-1.0787 0.2075,-2.0951 0.6223,-3.0493 0.4149,-0.9542 0.9819,-1.7839 1.701,-2.4892 0.7191,-0.7052 1.5557,-1.2653 2.5099,-1.6802 0.9542,-0.4148 1.9845,-0.6223 3.0908,-0.6223 1.0786,0 2.0881,0.2075 3.0285,0.6223 0.9404,0.4149 1.7632,0.975 2.4684,1.6802 0.7053,0.7053 1.2585,1.535 1.6595,2.4892 0.401,0.9542 0.6016,1.9706 0.6016,3.0493z"  
   id="path3605"
   style="fill:#000000;fill-opacity:1;fill-rule:nonzero;stroke:none" />
   
   
   <path   
   d="M20.4417 26.1778l0.6753 -0.0723c0.0369,0.3645 0.1185,0.6476 0.2461,0.8491 0.1277,0.203 0.3092,0.366 0.5476,0.4891 0.2369,0.123 0.5045,0.1846 0.8014,0.1846 0.4276,0 0.7583,-0.1031 0.9936,-0.3123 0.2369,-0.2092 0.3538,-0.4799 0.3538,-0.8137 0,-0.1953 -0.043,-0.366 -0.1276,-0.5106 -0.0862,-0.1461 -0.2154,-0.2661 -0.3877,-0.3584 -0.1738,-0.0938 -0.546,-0.2246 -1.1198,-0.3923 -0.5106,-0.1507 -0.8752,-0.303 -1.0905,-0.4553 -0.2169,-0.1538 -0.3846,-0.3476 -0.5045,-0.5845 -0.1215,-0.2353 -0.1815,-0.5014 -0.1815,-0.7998 0,-0.5337 0.1738,-0.9706 0.5183,-1.3105 0.3461,-0.34 0.8122,-0.5091 1.3982,-0.5091 0.4015,0 0.7537,0.0799 1.0567,0.2384 0.3015,0.1599 0.5353,0.3876 0.703,0.6845 0.1661,0.2984 0.2553,0.6475 0.2676,1.0505l-0.6891 0.0631c-0.0369,-0.4292 -0.1646,-0.7476 -0.3861,-0.9552 -0.2199,-0.2077 -0.5306,-0.3107 -0.9306,-0.3107 -0.4045,0 -0.7152,0.0907 -0.9275,0.2722 -0.2138,0.1815 -0.3199,0.4169 -0.3199,0.7061 0,0.2661 0.0769,0.4737 0.2338,0.6214 0.1569,0.1476 0.5076,0.2953 1.0552,0.446 0.5337,0.1477 0.909,0.2754 1.1259,0.383 0.3307,0.1677 0.5799,0.3892 0.7476,0.6645 0.1692,0.2754 0.2522,0.603 0.2522,0.9844 0,0.3784 -0.0876,0.723 -0.2645,1.0352 -0.1785,0.3107 -0.4184,0.5461 -0.7245,0.7091 -0.3046,0.1615 -0.6722,0.2431 -1.1013,0.2431 -0.6707,0 -1.2044,-0.2015 -1.6028,-0.603 -0.3969,-0.403 -0.6045,-0.9491 -0.6184,-1.6366z" 
   id="path3605"
   style="fill:#000000;fill-opacity:1;fill-rule:nonzero;stroke:none" />
    
    
	<path   
   d="M25.3207 28.2336l0 -0.8022 2.7475 -4.1875c0.1903,-0.2922 0.376,-0.551 0.5571,-0.7763l-2.9956 0 0 -0.7717 3.8389 0 0 0.7717 -3.0063 4.5345 -0.3242 0.4598 3.4203 0 0 0.7717 -4.2377 0z"
   id="path3604"
   style="fill:#000000;fill-opacity:1;fill-rule:nonzero;stroke:none" />
   
 
   
   </svg>
