<?xml version="1.0" encoding="UTF-8" standalone="no"?>
<!--
  #%L
  xplan-workspaces - Modul zur Gruppierung aller Workspaces
  %%
  Copyright (C) 2008 - 2022 lat/lon GmbH, info@lat-lon.de, www.lat-lon.de
  %%
  This program is free software: you can redistribute it and/or modify
  it under the terms of the GNU Affero General Public License as published by
  the Free Software Foundation, either version 3 of the License, or
  (at your option) any later version.
  
  This program is distributed in the hope that it will be useful,
  but WITHOUT ANY WARRANTY; without even the implied warranty of
  MERCHANTABILITY or FITNESS FOR A PARTICULAR PURPOSE.  See the
  GNU General Public License for more details.
  
  You should have received a copy of the GNU Affero General Public License
  along with this program.  If not, see <http://www.gnu.org/licenses/>.
  #L%
  -->

<!-- Created with Inkscape (http://www.inkscape.org/) -->

<svg
   xmlns:svg="http://www.w3.org/2000/svg"
   xmlns="http://www.w3.org/2000/svg"
   version="1.1"
   width="177.16534"
   height="177.16534"
   viewBox="0 0 50 50"
   id="svg2"
   xml:space="preserve"><defs
   id="defs11" />
 
   
   <polygon   
   points="44.1182,37.7986 44.1182,12.1184 5.992,12.1184 5.992,37.7986 "   
   id="path3604"
   style="fill:#A6A6A6;fill-opacity:1;fill-rule:nonzero;stroke:none" />
     
   
   <path   
   d="M44.1182 37.7986l-38.1262 0 0 -25.6802 38.1262 0 0 25.6802zm-2.9041 -2.8626l0 -19.9135 -32.3595 0 0 19.9135 32.3595 0z"   
   id="path3605"
   style="fill:#000000;fill-opacity:1;fill-rule:nonzero;stroke:none" />
   
   <polygon   
   points="8.8754,24.5436 8.8754,25.3733 41.2349,25.3733 41.2349,24.5436 "  
   id="path3604"
   style="fill:#000000;fill-opacity:1;fill-rule:nonzero;stroke:none" />
     
   <path   
   d="M33.5243 25.0473c0,1.1903 -0.2211,2.2871 -0.6632,3.2905 -0.4422,1.0033 -1.0459,1.8706 -1.8112,2.602 -0.7652,0.7312 -1.6666,1.3009 -2.7039,1.709 -1.0374,0.4082 -2.1342,0.6122 -3.2906,0.6122 -1.1904,0 -2.2958,-0.204 -3.3161,-0.6122 -1.0205,-0.4081 -1.9048,-0.9778 -2.6529,-1.709 -0.7483,-0.7314 -1.335,-1.5987 -1.7601,-2.602 -0.4252,-1.0034 -0.6378,-2.1002 -0.6378,-3.2905 0,-1.1565 0.204,-2.2449 0.6122,-3.2652 0.4081,-1.0203 0.9864,-1.9216 1.7346,-2.704 0.7483,-0.7822 1.6326,-1.403 2.6529,-1.862 1.0204,-0.4592 2.1427,-0.6888 3.3672,-0.6888 1.1564,0 2.2532,0.2296 3.2906,0.6888 1.0373,0.459 1.9387,1.0798 2.7039,1.862 0.7653,0.7824 1.369,1.6837 1.8112,2.704 0.4421,1.0203 0.6632,2.1087 0.6632,3.2652z"  
   id="path3605"
   style="fill:#A6A6A6;fill-opacity:1;fill-rule:nonzero;stroke:none" />
   
   <path   
   d="M33.6843 24.9792c0,-1.1893 -0.2212,-2.3094 -0.6638,-3.3604 -0.4425,-1.051 -1.044,-1.9706 -1.8046,-2.7589 -0.7606,-0.7882 -1.6595,-1.4105 -2.6967,-1.8669 -1.0371,-0.4563 -2.1503,-0.6845 -3.3396,-0.6845 -1.1893,0 -2.3164,0.2282 -3.3812,0.6845 -1.0648,0.4564 -1.9913,1.0787 -2.7796,1.8669 -0.7882,0.7883 -1.4174,1.7079 -1.8876,2.7589 -0.4702,1.051 -0.7053,2.1711 -0.7053,3.3604 0,1.2446 0.2351,2.3924 0.7053,3.4434 0.4702,1.051 1.0994,1.9637 1.8876,2.7381 0.7883,0.7744 1.7148,1.376 2.7796,1.8047 1.0648,0.4287 2.1919,0.643 3.3812,0.643 1.1893,0 2.3025,-0.2143 3.3396,-0.643 1.0372,-0.4287 1.9361,-1.0303 2.6967,-1.8047 0.7606,-0.7744 1.3621,-1.6871 1.8046,-2.7381 0.4426,-1.051 0.6638,-2.1988 0.6638,-3.4434zm-0.8297 -0.0415c0,1.1063 -0.2005,2.1366 -0.6016,3.0908 -0.401,0.9541 -0.9472,1.7908 -1.6387,2.5099 -0.6914,0.7191 -1.5004,1.2861 -2.4269,1.7009 -0.9266,0.4149 -1.9292,0.6223 -3.0078,0.6223 -1.1063,0 -2.1366,-0.2074 -3.0908,-0.6223 -0.9542,-0.4148 -1.7908,-0.9818 -2.5099,-1.7009 -0.7191,-0.7191 -1.2861,-1.5558 -1.701,-2.5099 -0.4148,-0.9542 -0.6223,-1.9845 -0.6223,-3.0908 0,-0.9957 0.2075,-1.9637 0.6223,-2.9041 0.4149,-0.9403 0.9888,-1.777 1.7217,-2.5099 0.733,-0.7329 1.5765,-1.3207 2.5307,-1.7632 0.9542,-0.4425 1.9706,-0.6638 3.0493,-0.6638 1.0786,0 2.0881,0.2075 3.0285,0.6223 0.9404,0.4149 1.7563,0.975 2.4477,1.6802 0.6914,0.7053 1.2308,1.535 1.618,2.4892 0.3872,0.9542 0.5808,1.9706 0.5808,3.0493z"  
   id="path3605"
   style="fill:#000000;fill-opacity:1;fill-rule:nonzero;stroke:none" />
    
    
	<path   
   d="M21.4538 30.1067l0 -10.2132 3.5169 0c0.7943,0 1.4006,0.0499 1.8192,0.1474 0.5849,0.1332 1.0843,0.3781 1.4981,0.73 0.5374,0.4566 0.9416,1.0368 1.2079,1.7454 0.2687,0.7087 0.4019,1.5172 0.4019,2.4279 0,0.7752 -0.0903,1.4624 -0.2734,2.0617 -0.1808,0.5992 -0.4114,1.0962 -0.6968,1.4886 -0.283,0.3923 -0.5921,0.7015 -0.9298,0.925 -0.3352,0.2259 -0.7419,0.3971 -1.2175,0.5136 -0.4779,0.1165 -1.0248,0.1736 -1.6407,0.1736l-3.6858 0zm1.3507 -1.2056l2.1805 0c0.673,0 1.2032,-0.0618 1.5861,-0.1879 0.3829,-0.126 0.6872,-0.302 0.9155,-0.5303 0.321,-0.3186 0.5707,-0.7514 0.749,-1.2912 0.1784,-0.5421 0.2688,-1.1961 0.2688,-1.9689 0,-1.0677 -0.176,-1.888 -0.5256,-2.4611 -0.3519,-0.5755 -0.7775,-0.9583 -1.2793,-1.1533 -0.3615,-0.1403 -0.9464,-0.2093 -1.7478,-0.2093l-2.1472 0 0 7.802z"
   id="path3604"
   style="fill:#000000;fill-opacity:1;fill-rule:nonzero;stroke:none" />
   
 
   
   </svg>
