<?xml version="1.0" encoding="UTF-8" standalone="no"?>
<!--
  #%L
  xplan-workspaces - Modul zur Gruppierung aller Workspaces
  %%
  Copyright (C) 2008 - 2022 lat/lon GmbH, info@lat-lon.de, www.lat-lon.de
  %%
  This program is free software: you can redistribute it and/or modify
  it under the terms of the GNU Affero General Public License as published by
  the Free Software Foundation, either version 3 of the License, or
  (at your option) any later version.
  
  This program is distributed in the hope that it will be useful,
  but WITHOUT ANY WARRANTY; without even the implied warranty of
  MERCHANTABILITY or FITNESS FOR A PARTICULAR PURPOSE.  See the
  GNU General Public License for more details.
  
  You should have received a copy of the GNU Affero General Public License
  along with this program.  If not, see <http://www.gnu.org/licenses/>.
  #L%
  -->

<!-- Created with Inkscape (http://www.inkscape.org/) -->

<svg
   xmlns:svg="http://www.w3.org/2000/svg"
   xmlns="http://www.w3.org/2000/svg"
   version="1.1"
   width="177.16534"
   height="177.16534"
   viewBox="0 0 50 50"
   id="svg2"
   xml:space="preserve"><defs
   id="defs11" />
 

   
   
   <path   
   d="M40.4706 25.0473c0,2.1197 -0.4034,4.1128 -1.2101,5.9795 -0.8068,1.8666 -1.9062,3.4958 -3.2983,4.8879 -1.392,1.392 -3.0292,2.4914 -4.9116,3.2982 -1.8825,0.8067 -3.8992,1.2101 -6.0506,1.2101 -2.1513,0 -4.1603,-0.3955 -6.0269,-1.1865 -1.8666,-0.7908 -3.5038,-1.8744 -4.9116,-3.2506 -1.4079,-1.3762 -2.5152,-2.9898 -3.3219,-4.8405 -0.8068,-1.8508 -1.2102,-3.8519 -1.2102,-6.0032 0,-2.1513 0.4034,-4.1761 1.2102,-6.0743 0.8067,-1.8982 1.914,-3.5513 3.3219,-4.9591 1.4078,-1.4079 3.045,-2.5152 4.9116,-3.3219 1.8666,-0.8068 3.8756,-1.2101 6.0269,-1.2101 2.1514,0 4.1681,0.4033 6.0506,1.2101 1.8824,0.8067 3.5196,1.9061 4.9116,3.2981 1.3921,1.3921 2.4915,3.0294 3.2983,4.9117 0.8067,1.8824 1.2101,3.8993 1.2101,6.0506z"   
   id="path3604"
   style="fill:#FBFBFB;fill-opacity:1;fill-rule:nonzero;stroke:none" />
   
   
   <path   
   d="M40.5919 24.9792c0,2.1573 -0.4011,4.1832 -1.2031,6.0778 -0.8021,1.8946 -1.9015,3.5402 -3.2982,4.9369 -1.3967,1.3967 -3.0355,2.4961 -4.9162,3.2982 -1.8807,0.8021 -3.8997,1.2031 -6.057,1.2031 -2.185,0 -4.2248,-0.401 -6.1193,-1.2031 -1.8946,-0.8021 -3.5471,-1.9015 -4.9577,-3.2982 -1.4105,-1.3967 -2.5168,-3.0423 -3.3189,-4.9369 -0.8021,-1.8946 -1.2031,-3.9205 -1.2031,-6.0778 0,-2.1573 0.401,-4.1763 1.2031,-6.057 0.8021,-1.8808 1.9084,-3.5264 3.3189,-4.9369 1.4106,-1.4106 3.0631,-2.5238 4.9577,-3.3397 1.8945,-0.8159 3.9343,-1.2239 6.1193,-1.2239 2.1573,0 4.1763,0.408 6.057,1.2239 1.8807,0.8159 3.5195,1.9291 4.9162,3.3397 1.3967,1.4105 2.4961,3.0561 3.2982,4.9369 0.802,1.8807 1.2031,3.8997 1.2031,6.057zm-4.1902 0.0415c0,-1.5765 -0.2973,-3.0562 -0.8919,-4.4391 -0.5947,-1.3829 -1.3968,-2.5929 -2.4063,-3.63 -1.0095,-1.0372 -2.2057,-1.8531 -3.5886,-2.4478 -1.3828,-0.5946 -2.8625,-0.8919 -4.439,-0.8919 -1.5765,0 -3.0631,0.3042 -4.4598,0.9127 -1.3967,0.6085 -2.6137,1.4382 -3.6509,2.4892 -1.0371,1.051 -1.853,2.2679 -2.4477,3.6508 -0.5946,1.3829 -0.8919,2.8626 -0.8919,4.4391 0,1.5765 0.2973,3.0562 0.8919,4.439 0.5947,1.3829 1.4106,2.5791 2.4477,3.5886 1.0372,1.0095 2.2542,1.8116 3.6509,2.4063 1.3967,0.5946 2.8833,0.8919 4.4598,0.8919 1.5765,0 3.0562,-0.2973 4.439,-0.8919 1.3829,-0.5947 2.5791,-1.4106 3.5886,-2.4478 1.0095,-1.0371 1.8116,-2.2471 2.4063,-3.63 0.5946,-1.3829 0.8919,-2.8626 0.8919,-4.4391z"   
   id="path3605"
   style="fill:#FF0000;fill-opacity:1;fill-rule:nonzero;stroke:none" />
   
   
   
 
   
   
   
   
   
   
   </svg>
